Martel-Bold.ufo
<glyph name="exclam" format="1">
  <advance width="397"/>
  <unicode hex="0021"/>
  <outline>
    <contour>
      <point x="82" y="869" type="line"/>
      <point x="152" y="277" type="line"/>
      <point x="241" y="277" type="line"/>
      <point x="315" y="869" type="line"/>
    </contour>
    <contour>
      <point x="146" y="186"/>
      <point x="87" y="132"/>
      <point x="87" y="75" type="curve" smooth="yes"/>
      <point x="87" y="21"/>
      <point x="134" y="-16"/>
      <point x="187" y="-16" type="curve" smooth="yes"/>
      <point x="246" y="-16"/>
      <point x="305" y="26"/>
      <point x="305" y="91" type="curve" smooth="yes"/>
      <point x="305" y="148"/>
      <point x="268" y="186"/>
      <point x="204" y="186" type="curve" smooth="yes"/>
    </contour>
  </outline>
</glyph>
<glyph name="quotedbl" format="1">
  <advance width="616"/>
  <unicode hex="0022"/>
  <outline>
    <contour>
      <point x="394" y="467" type="line"/>
      <point x="489" y="467" type="line"/>
      <point x="531" y="870" type="line"/>
      <point x="353" y="870" type="line"/>
    </contour>
    <contour>
      <point x="126" y="467" type="line"/>
      <point x="222" y="467" type="line"/>
      <point x="263" y="870" type="line"/>
      <point x="85" y="870" type="line"/>
    </contour>
  </outline>
</glyph>
<glyph name="numbersign" format="1">
  <advance width="727"/>
  <unicode hex="0023"/>
  <outline>
    <contour>
      <point x="146" y="0" type="line"/>
      <point x="271" y="0" type="line"/>
      <point x="288" y="168" type="line"/>
      <point x="402" y="168" type="line"/>
      <point x="389" y="0" type="line"/>
      <point x="514" y="0" type="line"/>
      <point x="529" y="168" type="line"/>
      <point x="654" y="168" type="line"/>
      <point x="653" y="275" type="line"/>
      <point x="539" y="275" type="line"/>
      <point x="550" y="405" type="line"/>
      <point x="672" y="405" type="line"/>
      <point x="672" y="510" type="line"/>
      <point x="562" y="510" type="line"/>
      <point x="575" y="662" type="line"/>
      <point x="447" y="662" type="line"/>
      <point x="434" y="510" type="line"/>
      <point x="315" y="510" type="line"/>
      <point x="328" y="662" type="line"/>
      <point x="208" y="662" type="line"/>
      <point x="189" y="510" type="line"/>
      <point x="68" y="510" type="line"/>
      <point x="68" y="405" type="line"/>
      <point x="183" y="405" type="line"/>
      <point x="170" y="275" type="line"/>
      <point x="55" y="275" type="line"/>
      <point x="55" y="168" type="line"/>
      <point x="161" y="168" type="line"/>
    </contour>
    <contour>
      <point x="297" y="275" type="line"/>
      <point x="309" y="405" type="line"/>
      <point x="423" y="405" type="line"/>
      <point x="412" y="275" type="line"/>
    </contour>
  </outline>
</glyph>
<glyph name="dollar" format="1">
  <advance width="667"/>
  <unicode hex="0024"/>
  <outline>
	<contour>
	  <point x="62" y="31" type="line"/>
	  <point x="99" y="10"/>
	  <point x="179" y="-3"/>
	  <point x="241" y="-10" type="curve"/>
	  <point x="237" y="-118" type="line"/>
	  <point x="346" y="-118" type="line"/>
	  <point x="351" y="-12" type="line"/>
	  <point x="494" y="-3"/>
	  <point x="608" y="76"/>
	  <point x="608" y="206" type="curve" smooth="yes"/>
	  <point x="608" y="324"/>
	  <point x="518" y="370"/>
	  <point x="367" y="454" type="curve" smooth="yes"/>
	  <point x="290" y="497"/>
	  <point x="224" y="540"/>
	  <point x="224" y="614" type="curve" smooth="yes"/>
	  <point x="226" y="671"/>
	  <point x="278" y="694"/>
	  <point x="338" y="694" type="curve" smooth="yes"/>
	  <point x="355" y="694"/>
	  <point x="418" y="685"/>
	  <point x="432" y="671" type="curve"/>
	  <point x="478" y="568" type="line"/>
	  <point x="558" y="568" type="line"/>
	  <point x="558" y="730" type="line"/>
	  <point x="527" y="746"/>
	  <point x="444" y="757"/>
	  <point x="395" y="762" type="curve"/>
	  <point x="397" y="865" type="line"/>
	  <point x="293" y="865" type="line"/>
	  <point x="291" y="764" type="line"/>
	  <point x="162" y="751"/>
	  <point x="59" y="677"/>
	  <point x="59" y="557" type="curve" smooth="yes"/>
	  <point x="59" y="430"/>
	  <point x="168" y="372"/>
	  <point x="322" y="290" type="curve" smooth="yes"/>
	  <point x="381" y="259"/>
	  <point x="434" y="218"/>
	  <point x="434" y="170" type="curve" smooth="yes"/>
	  <point x="434" y="99"/>
	  <point x="389" y="62"/>
	  <point x="318" y="62" type="curve" smooth="yes"/>
	  <point x="262" y="62"/>
	  <point x="213" y="67"/>
	  <point x="181" y="111" type="curve"/>
	  <point x="135" y="229" type="line"/>
	  <point x="62" y="229" type="line"/>
	</contour>
  </outline>
</glyph>
<glyph name="ampersand" format="1">
  <advance width="777"/>
  <unicode hex="0026"/>
  <outline>
    <contour>
      <point x="231" y="758"/>
      <point x="122" y="686"/>
      <point x="118" y="564" type="curve" smooth="yes"/>
      <point x="116" y="498"/>
      <point x="154" y="437"/>
      <point x="205" y="372" type="curve"/>
      <point x="109" y="333"/>
      <point x="40" y="284"/>
      <point x="40" y="188" type="curve" smooth="yes"/>
      <point x="40" y="42"/>
      <point x="182" y="-14"/>
      <point x="359" y="-14" type="curve" smooth="yes"/>
      <point x="433" y="-14"/>
      <point x="485" y="0"/>
      <point x="528" y="21" type="curve"/>
      <point x="561" y="1"/>
      <point x="617" y="-9"/>
      <point x="659" y="-9" type="curve" smooth="yes"/>
      <point x="692" y="-9"/>
      <point x="723" y="-5"/>
      <point x="742" y="6" type="curve"/>
      <point x="742" y="75" type="line"/>
      <point x="714" y="75"/>
      <point x="684" y="84"/>
      <point x="652" y="104" type="curve"/>
      <point x="696" y="153"/>
      <point x="720" y="218"/>
      <point x="720" y="274" type="curve" smooth="yes"/>
      <point x="720" y="300"/>
      <point x="718" y="344"/>
      <point x="702" y="360" type="curve"/>
      <point x="549" y="360" type="line"/>
      <point x="563" y="327"/>
      <point x="567" y="288"/>
      <point x="567" y="248" type="curve" smooth="yes"/>
      <point x="567" y="226"/>
      <point x="568" y="202"/>
      <point x="564" y="179" type="curve"/>
      <point x="529" y="214"/>
      <point x="433" y="326"/>
      <point x="396" y="374" type="curve"/>
      <point x="489" y="414"/>
      <point x="570" y="493"/>
      <point x="570" y="592" type="curve" smooth="yes"/>
      <point x="570" y="696"/>
      <point x="470" y="758"/>
      <point x="350" y="758" type="curve" smooth="yes"/>
    </contour>
    <contour>
      <point x="305" y="234"/>
      <point x="398" y="120"/>
      <point x="452" y="72" type="curve"/>
      <point x="429" y="67"/>
      <point x="402" y="66"/>
      <point x="371" y="66" type="curve" smooth="yes"/>
      <point x="273" y="66"/>
      <point x="208" y="113"/>
      <point x="208" y="214" type="curve" smooth="yes"/>
      <point x="208" y="248"/>
      <point x="231" y="279"/>
      <point x="257" y="300" type="curve"/>
    </contour>
    <contour>
      <point x="395" y="691"/>
      <point x="419" y="650"/>
      <point x="419" y="600" type="curve" smooth="yes"/>
      <point x="419" y="526"/>
      <point x="411" y="475"/>
      <point x="352" y="434" type="curve"/>
      <point x="302" y="491"/>
      <point x="264" y="546"/>
      <point x="274" y="617" type="curve" smooth="yes"/>
      <point x="281" y="658"/>
      <point x="302" y="691"/>
      <point x="347" y="691" type="curve" smooth="yes"/>
    </contour>
  </outline>
</glyph>
<glyph name="quotesingle" format="1">
  <advance width="348"/>
  <unicode hex="0027"/>
  <outline>
	<contour>
	  <point x="126" y="467" type="line"/>
	  <point x="222" y="467" type="line"/>
	  <point x="263" y="870" type="line"/>
	  <point x="85" y="870" type="line"/>
	</contour>
  </outline>
</glyph>
<glyph name="parenleft" format="1">
  <advance width="494"/>
  <unicode hex="0028"/>
  <outline>
	<contour>
	  <point x="423" y="-116" type="line"/>
	  <point x="305" y="-18"/>
	  <point x="235" y="186"/>
	  <point x="241" y="375" type="curve" smooth="yes"/>
	  <point x="246" y="548"/>
	  <point x="295" y="727"/>
	  <point x="409" y="811" type="curve"/>
	  <point x="339" y="866" type="line"/>
	  <point x="183" y="769"/>
	  <point x="78" y="559"/>
	  <point x="78" y="348" type="curve" smooth="yes"/>
	  <point x="78" y="122"/>
	  <point x="163" y="-69"/>
	  <point x="349" y="-172" type="curve"/>
	</contour>
  </outline>
</glyph>
<glyph name="parenright" format="1">
  <advance width="494"/>
  <unicode hex="0029"/>
  <outline>
    <contour>
      <point x="154" y="-177" type="line"/>
      <point x="310" y="-80"/>
      <point x="415" y="130"/>
      <point x="415" y="341" type="curve" smooth="yes"/>
      <point x="415" y="567"/>
      <point x="330" y="758"/>
      <point x="144" y="861" type="curve"/>
      <point x="70" y="805" type="line"/>
      <point x="188" y="707"/>
      <point x="258" y="503"/>
      <point x="252" y="314" type="curve" smooth="yes"/>
      <point x="247" y="141"/>
      <point x="198" y="-38"/>
      <point x="84" y="-122" type="curve"/>
    </contour>
  </outline>
</glyph>
<glyph name="asterisk" format="1">
  <advance width="605"/>
  <unicode hex="002A"/>
  <outline>
    <contour>
      <point x="230" y="369" type="line"/>
      <point x="366" y="369" type="line"/>
      <point x="352" y="521" type="line"/>
      <point x="323" y="583" type="line"/>
      <point x="368" y="528" type="line"/>
      <point x="484" y="432" type="line"/>
      <point x="569" y="528" type="line"/>
      <point x="404" y="610" type="line"/>
      <point x="341" y="622" type="line"/>
      <point x="404" y="631" type="line"/>
      <point x="571" y="699" type="line"/>
      <point x="486" y="809" type="line"/>
      <point x="368" y="719" type="line"/>
      <point x="321" y="663" type="line"/>
      <point x="356" y="728" type="line"/>
      <point x="366" y="878" type="line"/>
      <point x="230" y="878" type="line"/>
      <point x="241" y="728" type="line"/>
      <point x="270" y="663" type="line"/>
      <point x="226" y="713" type="line"/>
      <point x="107" y="811" type="line"/>
      <point x="34" y="700" type="line"/>
      <point x="188" y="630" type="line"/>
      <point x="250" y="622" type="line"/>
      <point x="187" y="611" type="line"/>
      <point x="36" y="529" type="line"/>
      <point x="109" y="430" type="line"/>
      <point x="226" y="528" type="line"/>
      <point x="270" y="583" type="line"/>
      <point x="241" y="521" type="line"/>
    </contour>
  </outline>
</glyph>
<glyph name="plus" format="1">
  <advance width="645"/>
  <unicode hex="002B"/>
  <outline>
    <contour>
      <point x="258" y="167" type="line"/>
      <point x="386" y="167" type="line"/>
      <point x="386" y="261" type="line"/>
      <point x="381" y="353" type="line"/>
      <point x="457" y="348" type="line"/>
      <point x="560" y="348" type="line"/>
      <point x="560" y="473" type="line"/>
      <point x="457" y="473" type="line"/>
      <point x="381" y="468" type="line"/>
      <point x="386" y="560" type="line"/>
      <point x="386" y="663" type="line"/>
      <point x="258" y="663" type="line"/>
      <point x="258" y="560" type="line"/>
      <point x="263" y="468" type="line"/>
      <point x="188" y="473" type="line"/>
      <point x="84" y="473" type="line"/>
      <point x="84" y="348" type="line"/>
      <point x="188" y="348" type="line"/>
      <point x="263" y="353" type="line"/>
      <point x="258" y="261" type="line"/>
    </contour>
  </outline>
</glyph>
<glyph name="comma" format="1">
  <advance width="389"/>
  <unicode hex="002C"/>
  <outline>
    <contour>
      <point x="88" y="-7" type="line"/>
      <point x="133" y="-11"/>
      <point x="172" y="-55"/>
      <point x="172" y="-99" type="curve" smooth="yes"/>
      <point x="172" y="-160"/>
      <point x="139" y="-209"/>
      <point x="88" y="-230" type="curve"/>
      <point x="88" y="-257" type="line"/>
      <point x="125" y="-291" type="line"/>
      <point x="234" y="-255"/>
      <point x="313" y="-161"/>
      <point x="316" y="-38" type="curve" smooth="yes"/>
      <point x="316" y="53"/>
      <point x="271" y="128"/>
      <point x="188" y="158" type="curve"/>
      <point x="88" y="32" type="line"/>
    </contour>
  </outline>
</glyph>
<glyph name="hyphen" format="1">
  <advance width="645"/>
  <unicode hex="002D"/>
  <outline>
	<contour>
	  <point x="89" y="353" type="line"/>
	  <point x="555" y="353" type="line"/>
	  <point x="555" y="468" type="line"/>
	  <point x="89" y="468" type="line"/>
	</contour>
  </outline>
</glyph>
<glyph name="period" format="1">
  <advance width="392"/>
  <unicode hex="002E"/>
  <outline>
	<contour>
	  <point x="150" y="188"/>
	  <point x="87" y="137"/>
	  <point x="87" y="77" type="curve" smooth="yes"/>
	  <point x="87" y="23"/>
	  <point x="134" y="-14"/>
	  <point x="187" y="-14" type="curve" smooth="yes"/>
	  <point x="247" y="-14"/>
	  <point x="305" y="29"/>
	  <point x="305" y="93" type="curve" smooth="yes"/>
	  <point x="305" y="150"/>
	  <point x="268" y="188"/>
	  <point x="204" y="188" type="curve" smooth="yes"/>
	</contour>
  </outline>
</glyph>
<glyph name="slash" format="1">
  <advance width="404"/>
  <unicode hex="002F"/>
  <outline>
	<contour>
	  <point x="15" y="-177" type="line"/>
	  <point x="138" y="-177" type="line"/>
	  <point x="389" y="781" type="line"/>
	  <point x="266" y="781" type="line"/>
	</contour>
  </outline>
</glyph>
<glyph name="zero" format="1">
  <advance width="686"/>
  <unicode hex="0030"/>
  <outline>
	<contour>
	  <point x="188" y="611"/>
	  <point x="55" y="483"/>
	  <point x="52" y="309" type="curve" smooth="yes"/>
	  <point x="48" y="127"/>
	  <point x="154" y="-12"/>
	  <point x="340" y="-12" type="curve" smooth="yes"/>
	  <point x="505" y="-12"/>
	  <point x="633" y="127"/>
	  <point x="636" y="304" type="curve" smooth="yes"/>
	  <point x="636" y="497"/>
	  <point x="540" y="613"/>
	  <point x="353" y="611" type="curve" smooth="yes"/>
	</contour>
	<contour>
	  <point x="417" y="535"/>
	  <point x="446" y="414"/>
	  <point x="446" y="298" type="curve" smooth="yes"/>
	  <point x="446" y="172"/>
	  <point x="438" y="58"/>
	  <point x="351" y="63" type="curve" smooth="yes"/>
	  <point x="279" y="63"/>
	  <point x="241" y="215"/>
	  <point x="241" y="318" type="curve" smooth="yes"/>
	  <point x="241" y="437"/>
	  <point x="253" y="539"/>
	  <point x="335" y="537" type="curve" smooth="yes"/>
	</contour>
  </outline>
</glyph>
<glyph name="one" format="1">
  <advance width="486"/>
  <unicode hex="0031"/>
  <outline>
	<contour>
	  <point x="55" y="0" type="line"/>
	  <point x="465" y="0" type="line"/>
	  <point x="465" y="71" type="line"/>
	  <point x="349" y="91" type="line"/>
	  <point x="352" y="610" type="line"/>
	  <point x="281" y="619" type="line"/>
	  <point x="249" y="595"/>
	  <point x="84" y="524"/>
	  <point x="30" y="509" type="curve"/>
	  <point x="47" y="430" type="line"/>
	  <point x="92" y="435"/>
	  <point x="138" y="440"/>
	  <point x="183" y="445" type="curve"/>
	  <point x="183" y="91" type="line"/>
	  <point x="55" y="71" type="line"/>
	</contour>
  </outline>
</glyph>
<glyph name="two" format="1">
  <advance width="616"/>
  <unicode hex="0032"/>
  <outline>
    <contour>
      <point x="68" y="0" type="line"/>
      <point x="555" y="0" type="line"/>
      <point x="589" y="159" type="line"/>
      <point x="518" y="180" type="line"/>
      <point x="473" y="123" type="line"/>
      <point x="216" y="88" type="line"/>
      <point x="385" y="199"/>
      <point x="534" y="293"/>
      <point x="534" y="444" type="curve" smooth="yes"/>
      <point x="534" y="550"/>
      <point x="428" y="617"/>
      <point x="304" y="617" type="curve" smooth="yes"/>
      <point x="213" y="617"/>
      <point x="81" y="571"/>
      <point x="39" y="505" type="curve"/>
      <point x="81" y="442" type="line"/>
      <point x="135" y="485"/>
      <point x="182" y="512"/>
      <point x="250" y="512" type="curve" smooth="yes"/>
      <point x="314" y="512"/>
      <point x="354" y="466"/>
      <point x="354" y="405" type="curve" smooth="yes"/>
      <point x="354" y="294"/>
      <point x="186" y="147"/>
      <point x="43" y="63" type="curve"/>
    </contour>
  </outline>
</glyph>
<glyph name="three" format="1">
  <advance width="544"/>
  <unicode hex="0033"/>
  <outline>
	<contour>
	  <point x="170" y="620"/>
	  <point x="82" y="591"/>
	  <point x="21" y="536" type="curve"/>
	  <point x="63" y="474" type="line"/>
	  <point x="120" y="506"/>
	  <point x="148" y="523"/>
	  <point x="214" y="523" type="curve" smooth="yes"/>
	  <point x="256" y="523"/>
	  <point x="295" y="496"/>
	  <point x="295" y="447" type="curve" smooth="yes"/>
	  <point x="295" y="363"/>
	  <point x="201" y="299"/>
	  <point x="115" y="294" type="curve"/>
	  <point x="115" y="204" type="line"/>
	  <point x="180" y="218" type="line"/>
	  <point x="193" y="221"/>
	  <point x="207" y="223"/>
	  <point x="220" y="226" type="curve"/>
	  <point x="296" y="217"/>
	  <point x="338" y="176"/>
	  <point x="338" y="93" type="curve" smooth="yes"/>
	  <point x="338" y="-13"/>
	  <point x="247" y="-75"/>
	  <point x="136" y="-75" type="curve" smooth="yes"/>
	  <point x="110" y="-75"/>
	  <point x="83" y="-72"/>
	  <point x="55" y="-65" type="curve"/>
	  <point x="56" y="-152" type="line"/>
	  <point x="94" y="-159"/>
	  <point x="130" y="-162"/>
	  <point x="163" y="-162" type="curve" smooth="yes"/>
	  <point x="340" y="-162"/>
	  <point x="506" y="-64"/>
	  <point x="506" y="98" type="curve" smooth="yes"/>
	  <point x="506" y="203"/>
	  <point x="424" y="273"/>
	  <point x="308" y="275" type="curve"/>
	  <point x="383" y="299"/>
	  <point x="458" y="380"/>
	  <point x="458" y="455" type="curve" smooth="yes"/>
	  <point x="458" y="565"/>
	  <point x="368" y="620"/>
	  <point x="254" y="620" type="curve" smooth="yes"/>
	</contour>
  </outline>
</glyph>
<glyph name="four" format="1">
  <advance width="639"/>
  <unicode hex="0034"/>
  <outline>
    <contour>
      <point x="61" y="0" type="line"/>
      <point x="388" y="0" type="line"/>
      <point x="380" y="-184" type="line"/>
      <point x="534" y="-184" type="line"/>
      <point x="534" y="0" type="line"/>
      <point x="622" y="0" type="line"/>
      <point x="622" y="127" type="line"/>
      <point x="534" y="118" type="line"/>
      <point x="534" y="304" type="line"/>
      <point x="399" y="288" type="line"/>
      <point x="392" y="103" type="line"/>
      <point x="173" y="80" type="line"/>
      <point x="208" y="122" type="line"/>
      <point x="307" y="264"/>
      <point x="407" y="405"/>
      <point x="506" y="547" type="curve"/>
      <point x="394" y="622" type="line"/>
      <point x="346" y="622" type="line"/>
      <point x="260" y="434"/>
      <point x="148" y="248"/>
      <point x="37" y="63" type="curve"/>
    </contour>
  </outline>
</glyph>
<glyph name="five" format="1">
  <advance width="556"/>
  <unicode hex="0035"/>
  <outline>
    <contour>
      <point x="53" y="-165" type="line"/>
      <point x="70" y="-170"/>
      <point x="96" y="-171"/>
      <point x="113" y="-171" type="curve" smooth="yes"/>
      <point x="318" y="-171"/>
      <point x="514" y="-62"/>
      <point x="514" y="131" type="curve" smooth="yes"/>
      <point x="514" y="300"/>
      <point x="351" y="382"/>
      <point x="174" y="329" type="curve"/>
      <point x="206" y="475" type="line"/>
      <point x="454" y="475" type="line"/>
      <point x="495" y="622" type="line"/>
      <point x="432" y="622" type="line"/>
      <point x="418" y="604" type="line"/>
      <point x="93" y="604" type="line"/>
      <point x="63" y="264" type="line"/>
      <point x="127" y="245" type="line"/>
      <point x="254" y="275"/>
      <point x="336" y="235"/>
      <point x="336" y="111" type="curve" smooth="yes"/>
      <point x="336" y="-38"/>
      <point x="209" y="-102"/>
      <point x="53" y="-89" type="curve"/>
    </contour>
  </outline>
</glyph>
<glyph name="six" format="1">
  <advance width="658"/>
  <unicode hex="0036"/>
  <outline>
    <contour>
      <point x="266" y="717"/>
      <point x="56" y="511"/>
      <point x="56" y="269" type="curve" smooth="yes"/>
      <point x="56" y="108"/>
      <point x="165" y="-12"/>
      <point x="323" y="-12" type="curve" smooth="yes"/>
      <point x="491" y="-12"/>
      <point x="609" y="95"/>
      <point x="609" y="259" type="curve" smooth="yes"/>
      <point x="609" y="385"/>
      <point x="538" y="473"/>
      <point x="408" y="473" type="curve" smooth="yes"/>
      <point x="350" y="473"/>
      <point x="277" y="444"/>
      <point x="253" y="401" type="curve"/>
      <point x="276" y="355" type="line"/>
      <point x="293" y="364"/>
      <point x="313" y="369"/>
      <point x="337" y="369" type="curve" smooth="yes"/>
      <point x="402" y="369"/>
      <point x="445" y="299"/>
      <point x="445" y="231" type="curve" smooth="yes"/>
      <point x="445" y="141"/>
      <point x="415" y="60"/>
      <point x="341" y="60" type="curve" smooth="yes"/>
      <point x="245" y="60"/>
      <point x="226" y="173"/>
      <point x="226" y="304" type="curve" smooth="yes"/>
      <point x="226" y="474"/>
      <point x="376" y="645"/>
      <point x="541" y="685" type="curve"/>
      <point x="502" y="757" type="line"/>
    </contour>
  </outline>
</glyph>
<glyph name="seven" format="1">
  <advance width="602"/>
  <unicode hex="0037"/>
  <outline>
	<contour>
	  <point x="296" y="-164" type="line"/>
	  <point x="575" y="581" type="line"/>
	  <point x="546" y="612" type="line"/>
	  <point x="76" y="612" type="line"/>
	  <point x="58" y="407" type="line"/>
	  <point x="160" y="405" type="line"/>
	  <point x="197" y="517" type="line"/>
	  <point x="439" y="530" type="line"/>
	  <point x="347" y="322"/>
	  <point x="232" y="83"/>
	  <point x="128" y="-105" type="curve"/>
	</contour>
  </outline>
</glyph>
<glyph name="eight" format="1">
  <advance width="633"/>
  <unicode hex="0038"/>
  <outline>
    <contour>
      <point x="196" y="765"/>
      <point x="82" y="697"/>
      <point x="82" y="573" type="curve" smooth="yes"/>
      <point x="82" y="495"/>
      <point x="134" y="436"/>
      <point x="208" y="382" type="curve"/>
      <point x="116" y="351"/>
      <point x="48" y="271"/>
      <point x="48" y="182" type="curve" smooth="yes"/>
      <point x="48" y="48"/>
      <point x="176" y="-12"/>
      <point x="325" y="-12" type="curve" smooth="yes"/>
      <point x="467" y="-12"/>
      <point x="590" y="59"/>
      <point x="590" y="203" type="curve" smooth="yes"/>
      <point x="590" y="289"/>
      <point x="518" y="351"/>
      <point x="426" y="413" type="curve"/>
      <point x="487" y="436"/>
      <point x="555" y="518"/>
      <point x="555" y="587" type="curve" smooth="yes"/>
      <point x="555" y="705"/>
      <point x="450" y="765"/>
      <point x="322" y="765" type="curve" smooth="yes"/>
    </contour>
    <contour>
      <point x="354" y="285"/>
      <point x="433" y="235"/>
      <point x="433" y="166" type="curve" smooth="yes"/>
      <point x="433" y="102"/>
      <point x="395" y="60"/>
      <point x="333" y="60" type="curve" smooth="yes"/>
      <point x="254" y="60"/>
      <point x="200" y="132"/>
      <point x="200" y="223" type="curve" smooth="yes"/>
      <point x="200" y="268"/>
      <point x="230" y="309"/>
      <point x="270" y="339" type="curve"/>
    </contour>
    <contour>
      <point x="372" y="696"/>
      <point x="417" y="644"/>
      <point x="417" y="577" type="curve"/>
      <point x="418" y="525"/>
      <point x="400" y="482"/>
      <point x="363" y="455" type="curve"/>
      <point x="292" y="503"/>
      <point x="226" y="552"/>
      <point x="226" y="612" type="curve" smooth="yes"/>
      <point x="226" y="662"/>
      <point x="267" y="696"/>
      <point x="314" y="696" type="curve" smooth="yes"/>
    </contour>
  </outline>
</glyph>
<glyph name="nine" format="1">
  <advance width="650"/>
  <unicode hex="0039"/>
  <outline>
	<contour>
	  <point x="175" y="-200" type="line"/>
	  <point x="403" y="-160"/>
	  <point x="598" y="88"/>
	  <point x="598" y="332" type="curve" smooth="yes"/>
	  <point x="598" y="490"/>
	  <point x="493" y="612"/>
	  <point x="330" y="612" type="curve" smooth="yes"/>
	  <point x="161" y="612"/>
	  <point x="44" y="506"/>
	  <point x="44" y="341" type="curve" smooth="yes"/>
	  <point x="44" y="217"/>
	  <point x="116" y="128"/>
	  <point x="245" y="128" type="curve" smooth="yes"/>
	  <point x="309" y="128"/>
	  <point x="373" y="149"/>
	  <point x="400" y="199" type="curve"/>
	  <point x="377" y="246" type="line"/>
	  <point x="360" y="236"/>
	  <point x="340" y="232"/>
	  <point x="316" y="232" type="curve" smooth="yes"/>
	  <point x="252" y="232"/>
	  <point x="208" y="302"/>
	  <point x="208" y="369" type="curve" smooth="yes"/>
	  <point x="208" y="459"/>
	  <point x="239" y="541"/>
	  <point x="313" y="541" type="curve" smooth="yes"/>
	  <point x="408" y="541"/>
	  <point x="427" y="427"/>
	  <point x="427" y="297" type="curve" smooth="yes"/>
	  <point x="427" y="124"/>
	  <point x="293" y="-89"/>
	  <point x="137" y="-127" type="curve"/>
	</contour>
  </outline>
</glyph>
<glyph name="colon" format="1">
  <advance width="392"/>
  <unicode hex="003A"/>
  <outline>
	<contour>
	  <point x="146" y="544"/>
	  <point x="87" y="492"/>
	  <point x="87" y="434" type="curve" smooth="yes"/>
	  <point x="87" y="380"/>
	  <point x="134" y="343"/>
	  <point x="187" y="343" type="curve" smooth="yes"/>
	  <point x="247" y="343"/>
	  <point x="305" y="386"/>
	  <point x="305" y="450" type="curve" smooth="yes"/>
	  <point x="305" y="507"/>
	  <point x="268" y="544"/>
	  <point x="204" y="544" type="curve" smooth="yes"/>
	</contour>
	<contour>
	  <point x="146" y="184"/>
	  <point x="87" y="130"/>
	  <point x="87" y="73" type="curve" smooth="yes"/>
	  <point x="87" y="19"/>
	  <point x="134" y="-18"/>
	  <point x="187" y="-18" type="curve" smooth="yes"/>
	  <point x="246" y="-18"/>
	  <point x="305" y="24"/>
	  <point x="305" y="89" type="curve" smooth="yes"/>
	  <point x="305" y="146"/>
	  <point x="268" y="184"/>
	  <point x="204" y="184" type="curve" smooth="yes"/>
	</contour>
  </outline>
</glyph>
<glyph name="semicolon" format="1">
  <advance width="404"/>
  <unicode hex="003B"/>
  <outline>
    <contour>
      <point x="104" y="32" type="line"/>
      <point x="104" y="-7" type="line"/>
      <point x="148" y="-11"/>
      <point x="187" y="-55"/>
      <point x="187" y="-99" type="curve" smooth="yes"/>
      <point x="187" y="-158"/>
      <point x="156" y="-208"/>
      <point x="103" y="-230" type="curve"/>
      <point x="103" y="-257" type="line"/>
      <point x="141" y="-291" type="line"/>
      <point x="249" y="-256"/>
      <point x="329" y="-159"/>
      <point x="331" y="-38" type="curve" smooth="yes"/>
      <point x="333" y="50"/>
      <point x="285" y="129"/>
      <point x="203" y="158" type="curve"/>
    </contour>
    <contour>
      <point x="149" y="544"/>
      <point x="88" y="495"/>
      <point x="88" y="434" type="curve" smooth="yes"/>
      <point x="88" y="380"/>
      <point x="134" y="343"/>
      <point x="187" y="343" type="curve" smooth="yes"/>
      <point x="247" y="343"/>
      <point x="305" y="385"/>
      <point x="305" y="450" type="curve" smooth="yes"/>
      <point x="305" y="508"/>
      <point x="269" y="544"/>
      <point x="204" y="544" type="curve" smooth="yes"/>
    </contour>
  </outline>
</glyph>
<glyph name="less" format="1">
  <advance width="652"/>
  <unicode hex="003C"/>
  <outline>
    <contour>
      <point x="89" y="343" type="line"/>
      <point x="563" y="106" type="line"/>
      <point x="563" y="254" type="line"/>
      <point x="272" y="375" type="line"/>
      <point x="563" y="511" type="line"/>
      <point x="563" y="654" type="line"/>
      <point x="89" y="409" type="line"/>
    </contour>
  </outline>
</glyph>
<glyph name="equal" format="1">
  <advance width="645"/>
  <unicode hex="003D"/>
  <outline>
    <contour>
      <point x="89" y="478" type="line"/>
      <point x="555" y="478" type="line"/>
      <point x="555" y="591" type="line"/>
      <point x="89" y="591" type="line" smooth="yes"/>
    </contour>
    <contour>
      <point x="89" y="210" type="line"/>
      <point x="555" y="210" type="line"/>
      <point x="555" y="323" type="line"/>
      <point x="89" y="323" type="line"/>
    </contour>
  </outline>
</glyph>
<glyph name="greater" format="1">
  <advance width="652"/>
  <unicode hex="003E"/>
  <outline>
    <contour>
      <point x="89" y="98" type="line"/>
      <point x="563" y="343" type="line"/>
      <point x="563" y="409" type="line"/>
      <point x="89" y="646" type="line"/>
      <point x="89" y="498" type="line"/>
      <point x="380" y="377" type="line"/>
      <point x="89" y="241" type="line"/>
    </contour>
  </outline>
</glyph>
<glyph name="question" format="1">
  <advance width="519"/>
  <unicode hex="003F"/>
  <outline>
    <contour>
      <point x="118" y="909"/>
      <point x="47" y="901"/>
      <point x="33" y="884" type="curve"/>
      <point x="41" y="751" type="line"/>
      <point x="55" y="762"/>
      <point x="79" y="768"/>
      <point x="121" y="768" type="curve" smooth="yes"/>
      <point x="294" y="767"/>
      <point x="367" y="660"/>
      <point x="367" y="576" type="curve" smooth="yes"/>
      <point x="367" y="566"/>
      <point x="352" y="558"/>
      <point x="330" y="549" type="curve" smooth="yes"/>
      <point x="255" y="522"/>
      <point x="96" y="496"/>
      <point x="96" y="417" type="curve" smooth="yes"/>
      <point x="96" y="367"/>
      <point x="135" y="305"/>
      <point x="177" y="265" type="curve"/>
      <point x="299" y="265" type="line"/>
      <point x="277" y="309"/>
      <point x="251" y="365"/>
      <point x="251" y="406" type="curve" smooth="yes"/>
      <point x="251" y="441"/>
      <point x="308" y="460"/>
      <point x="400" y="503" type="curve" smooth="yes"/>
      <point x="450" y="526"/>
      <point x="465" y="553"/>
      <point x="465" y="627" type="curve" smooth="yes"/>
      <point x="465" y="795"/>
      <point x="339" y="900"/>
      <point x="155" y="909" type="curve" smooth="yes"/>
    </contour>
    <contour>
      <point x="225" y="186"/>
      <point x="164" y="136"/>
      <point x="164" y="75" type="curve" smooth="yes"/>
      <point x="164" y="20"/>
      <point x="210" y="-16"/>
      <point x="263" y="-16" type="curve" smooth="yes"/>
      <point x="322" y="-16"/>
      <point x="381" y="27"/>
      <point x="381" y="91" type="curve" smooth="yes"/>
      <point x="381" y="148"/>
      <point x="344" y="186"/>
      <point x="280" y="186" type="curve" smooth="yes"/>
    </contour>
  </outline>
</glyph>
<glyph name="at" format="1">
  <advance width="1114"/>
  <unicode hex="0040"/>
  <outline>
	<contour>
	  <point x="340" y="714"/>
	  <point x="68" y="481"/>
	  <point x="68" y="186" type="curve" smooth="yes"/>
	  <point x="68" y="-58"/>
	  <point x="272" y="-185"/>
	  <point x="542" y="-185" type="curve" smooth="yes"/>
	  <point x="656" y="-185"/>
	  <point x="744" y="-163"/>
	  <point x="792" y="-128" type="curve"/>
	  <point x="760" y="-65" type="line"/>
	  <point x="733" y="-84"/>
	  <point x="614" y="-105"/>
	  <point x="561" y="-105" type="curve" smooth="yes"/>
	  <point x="338" y="-105"/>
	  <point x="212" y="11"/>
	  <point x="212" y="240" type="curve" smooth="yes"/>
	  <point x="212" y="445"/>
	  <point x="389" y="636"/>
	  <point x="587" y="636" type="curve" smooth="yes"/>
	  <point x="791" y="636"/>
	  <point x="927" y="558"/>
	  <point x="927" y="356" type="curve" smooth="yes"/>
	  <point x="927" y="235"/>
	  <point x="847" y="105"/>
	  <point x="799" y="105" type="curve" smooth="yes"/>
	  <point x="790" y="105"/>
	  <point x="788" y="155"/>
	  <point x="788" y="176" type="curve" smooth="yes"/>
	  <point x="788" y="258"/>
	  <point x="804" y="336"/>
	  <point x="828" y="482" type="curve"/>
	  <point x="786" y="496"/>
	  <point x="762" y="504"/>
	  <point x="712" y="519" type="curve" smooth="yes"/>
	  <point x="698" y="523"/>
	  <point x="689" y="510"/>
	  <point x="682" y="493" type="curve"/>
	  <point x="641" y="509"/>
	  <point x="614" y="518"/>
	  <point x="569" y="518" type="curve" smooth="yes"/>
	  <point x="428" y="518"/>
	  <point x="311" y="368"/>
	  <point x="311" y="188" type="curve" smooth="yes"/>
	  <point x="311" y="93"/>
	  <point x="389" y="7"/>
	  <point x="477" y="12" type="curve" smooth="yes"/>
	  <point x="558" y="16"/>
	  <point x="625" y="105"/>
	  <point x="666" y="194" type="curve"/>
	  <point x="662" y="162"/>
	  <point x="659" y="131"/>
	  <point x="659" y="120" type="curve" smooth="yes"/>
	  <point x="659" y="50"/>
	  <point x="680" y="14"/>
	  <point x="746" y="18" type="curve" smooth="yes"/>
	  <point x="921" y="28"/>
	  <point x="1053" y="206"/>
	  <point x="1053" y="399" type="curve" smooth="yes"/>
	  <point x="1053" y="614"/>
	  <point x="868" y="714"/>
	  <point x="632" y="714" type="curve" smooth="yes"/>
	</contour>
	<contour>
	  <point x="582" y="421"/>
	  <point x="632" y="412"/>
	  <point x="649" y="402" type="curve"/>
	  <point x="637" y="293"/>
	  <point x="537" y="121"/>
	  <point x="500" y="121" type="curve" smooth="yes"/>
	  <point x="463" y="121"/>
	  <point x="453" y="192"/>
	  <point x="453" y="245" type="curve" smooth="yes"/>
	  <point x="453" y="339"/>
	  <point x="488" y="421"/>
	  <point x="567" y="421" type="curve" smooth="yes"/>
	</contour>
  </outline>
</glyph>
<glyph name="A" format="1">
  <advance width="781"/>
  <unicode hex="0041"/>
  <outline>
	<contour>
	  <point x="2" y="0" type="line"/>
	  <point x="276" y="0" type="line"/>
	  <point x="276" y="68" type="line"/>
	  <point x="203" y="91" type="line"/>
	  <point x="225" y="164" type="line"/>
	  <point x="489" y="164" type="line"/>
	  <point x="510" y="89" type="line"/>
	  <point x="445" y="67" type="line"/>
	  <point x="445" y="0" type="line"/>
	  <point x="779" y="0" type="line"/>
	  <point x="779" y="67" type="line"/>
	  <point x="705" y="87" type="line"/>
	  <point x="471" y="758" type="line"/>
	  <point x="308" y="758" type="line"/>
	  <point x="67" y="88" type="line"/>
	  <point x="2" y="68" type="line"/>
	</contour>
	<contour>
	  <point x="253" y="254" type="line"/>
	  <point x="362" y="612" type="line"/>
	  <point x="398" y="478" type="line"/>
	  <point x="463" y="254" type="line"/>
	</contour>
  </outline>
</glyph>
<glyph name="B" format="1">
  <advance width="711"/>
  <unicode hex="0042"/>
  <outline>
    <contour>
      <point x="39" y="0" type="line"/>
      <point x="149" y="0" type="line" smooth="yes"/>
      <point x="232" y="0"/>
      <point x="278" y="-5"/>
      <point x="342" y="-5" type="curve" smooth="yes"/>
      <point x="550" y="-5"/>
      <point x="689" y="45"/>
      <point x="689" y="227" type="curve" smooth="yes"/>
      <point x="689" y="322"/>
      <point x="610" y="409"/>
      <point x="509" y="409" type="curve"/>
      <point x="588" y="430"/>
      <point x="637" y="495"/>
      <point x="637" y="584" type="curve" smooth="yes"/>
      <point x="637" y="718"/>
      <point x="522" y="765"/>
      <point x="364" y="765" type="curve" smooth="yes"/>
      <point x="324" y="765"/>
      <point x="241" y="758"/>
      <point x="193" y="758" type="curve"/>
      <point x="41" y="758" type="line"/>
      <point x="41" y="678" type="line"/>
      <point x="115" y="667" type="line"/>
      <point x="115" y="89" type="line"/>
      <point x="39" y="68" type="line"/>
    </contour>
    <contour>
      <point x="289" y="683" type="line"/>
      <point x="309" y="689"/>
      <point x="323" y="690"/>
      <point x="340" y="690" type="curve" smooth="yes"/>
      <point x="426" y="690"/>
      <point x="471" y="655"/>
      <point x="471" y="572" type="curve" smooth="yes"/>
      <point x="471" y="480"/>
      <point x="446" y="427"/>
      <point x="351" y="427" type="curve" smooth="yes"/>
      <point x="330" y="427"/>
      <point x="308" y="427"/>
      <point x="288" y="431" type="curve"/>
    </contour>
    <contour>
      <point x="287" y="348" type="line"/>
      <point x="318" y="354"/>
      <point x="351" y="354"/>
      <point x="380" y="354" type="curve" smooth="yes"/>
      <point x="451" y="354"/>
      <point x="507" y="301"/>
      <point x="507" y="219" type="curve" smooth="yes"/>
      <point x="507" y="137"/>
      <point x="470" y="67"/>
      <point x="387" y="67" type="curve" smooth="yes"/>
      <point x="342" y="67"/>
      <point x="303" y="72"/>
      <point x="287" y="80" type="curve"/>
    </contour>
  </outline>
</glyph>
<glyph name="C" format="1">
  <advance width="720"/>
  <unicode hex="0043"/>
  <outline>
	<contour>
	  <point x="221" y="765"/>
	  <point x="33" y="587"/>
	  <point x="33" y="354" type="curve" smooth="yes"/>
	  <point x="33" y="129"/>
	  <point x="186" y="-14"/>
	  <point x="416" y="-14" type="curve" smooth="yes"/>
	  <point x="549" y="-14"/>
	  <point x="641" y="33"/>
	  <point x="670" y="33" type="curve"/>
	  <point x="670" y="207" type="line"/>
	  <point x="585" y="207" type="line"/>
	  <point x="545" y="109" type="line" smooth="yes"/>
	  <point x="531" y="76"/>
	  <point x="478" y="70"/>
	  <point x="428" y="70" type="curve" smooth="yes"/>
	  <point x="295" y="70"/>
	  <point x="226" y="235"/>
	  <point x="226" y="398" type="curve" smooth="yes"/>
	  <point x="226" y="549"/>
	  <point x="291" y="675"/>
	  <point x="417" y="675" type="curve" smooth="yes"/>
	  <point x="501" y="675"/>
	  <point x="516" y="654"/>
	  <point x="522" y="644" type="curve"/>
	  <point x="558" y="544" type="line"/>
	  <point x="660" y="544" type="line"/>
	  <point x="670" y="734" type="line"/>
	  <point x="648" y="738"/>
	  <point x="564" y="765"/>
	  <point x="463" y="765" type="curve" smooth="yes"/>
	</contour>
  </outline>
</glyph>
<glyph name="D" format="1">
  <advance width="789"/>
  <unicode hex="0044"/>
  <outline>
    <contour>
      <point x="44" y="0" type="line"/>
      <point x="69" y="0"/>
      <point x="181" y="0"/>
      <point x="209" y="0" type="curve" smooth="yes"/>
      <point x="263" y="0"/>
      <point x="312" y="-5"/>
      <point x="364" y="-5" type="curve" smooth="yes"/>
      <point x="603" y="-5"/>
      <point x="757" y="153"/>
      <point x="757" y="401" type="curve" smooth="yes"/>
      <point x="757" y="639"/>
      <point x="624" y="765"/>
      <point x="377" y="765" type="curve" smooth="yes"/>
      <point x="316" y="765"/>
      <point x="254" y="758"/>
      <point x="206" y="758" type="curve" smooth="yes"/>
      <point x="46" y="758" type="line"/>
      <point x="46" y="678" type="line"/>
      <point x="115" y="668" type="line"/>
      <point x="115" y="88" type="line"/>
      <point x="44" y="68" type="line"/>
    </contour>
    <contour>
      <point x="290" y="673" type="line"/>
      <point x="310" y="684"/>
      <point x="338" y="687"/>
      <point x="366" y="687" type="curve" smooth="yes"/>
      <point x="505" y="687"/>
      <point x="574" y="580"/>
      <point x="574" y="365" type="curve" smooth="yes"/>
      <point x="574" y="227"/>
      <point x="518" y="82"/>
      <point x="405" y="73" type="curve" smooth="yes"/>
      <point x="353" y="67"/>
      <point x="313" y="72"/>
      <point x="290" y="87" type="curve"/>
    </contour>
  </outline>
</glyph>
<glyph name="E" format="1">
  <advance width="696"/>
  <unicode hex="0045"/>
  <outline>
    <contour>
      <point x="49" y="0" type="line"/>
      <point x="646" y="0" type="line"/>
      <point x="672" y="170" type="line"/>
      <point x="571" y="188" type="line"/>
      <point x="509" y="92" type="line"/>
      <point x="294" y="78" type="line"/>
      <point x="294" y="346" type="line"/>
      <point x="419" y="343" type="line"/>
      <point x="446" y="266" type="line"/>
      <point x="534" y="266" type="line"/>
      <point x="534" y="504" type="line"/>
      <point x="446" y="504" type="line"/>
      <point x="419" y="431" type="line"/>
      <point x="294" y="426" type="line"/>
      <point x="294" y="680" type="line"/>
      <point x="475" y="669" type="line"/>
      <point x="521" y="591" type="line"/>
      <point x="621" y="591" type="line"/>
      <point x="606" y="758" type="line"/>
      <point x="52" y="758" type="line"/>
      <point x="52" y="678" type="line"/>
      <point x="121" y="667" type="line"/>
      <point x="121" y="87" type="line"/>
      <point x="49" y="68" type="line"/>
    </contour>
  </outline>
</glyph>
<glyph name="F" format="1">
  <advance width="646"/>
  <unicode hex="0046"/>
  <outline>
	<contour>
	  <point x="42" y="0" type="line"/>
	  <point x="445" y="0" type="line"/>
	  <point x="445" y="78" type="line"/>
	  <point x="289" y="91" type="line"/>
	  <point x="289" y="331" type="line"/>
	  <point x="431" y="329" type="line"/>
	  <point x="453" y="249" type="line"/>
	  <point x="534" y="249" type="line"/>
	  <point x="534" y="498" type="line"/>
	  <point x="461" y="498" type="line"/>
	  <point x="429" y="423" type="line"/>
	  <point x="288" y="417" type="line"/>
	  <point x="288" y="673" type="line"/>
	  <point x="493" y="662" type="line"/>
	  <point x="528" y="587" type="line"/>
	  <point x="614" y="588" type="line"/>
	  <point x="599" y="758" type="line"/>
	  <point x="39" y="758" type="line"/>
	  <point x="39" y="678" type="line"/>
	  <point x="115" y="668" type="line"/>
	  <point x="115" y="84" type="line"/>
	  <point x="42" y="68" type="line"/>
	</contour>
  </outline>
</glyph>
<glyph name="G" format="1">
  <advance width="774"/>
  <unicode hex="0047"/>
  <outline>
	<contour>
	  <point x="195" y="765"/>
	  <point x="32" y="612"/>
	  <point x="32" y="365" type="curve" smooth="yes"/>
	  <point x="32" y="149"/>
	  <point x="170" y="-14"/>
	  <point x="381" y="-14" type="curve" smooth="yes"/>
	  <point x="490" y="-14"/>
	  <point x="618" y="38"/>
	  <point x="691" y="26" type="curve"/>
	  <point x="691" y="253" type="line"/>
	  <point x="737" y="265" type="line"/>
	  <point x="737" y="346" type="line"/>
	  <point x="435" y="346" type="line"/>
	  <point x="435" y="265" type="line"/>
	  <point x="538" y="251" type="line"/>
	  <point x="538" y="126" type="line"/>
	  <point x="533" y="90"/>
	  <point x="465" y="64"/>
	  <point x="412" y="64" type="curve" smooth="yes"/>
	  <point x="268" y="64"/>
	  <point x="220" y="232"/>
	  <point x="220" y="404" type="curve" smooth="yes"/>
	  <point x="220" y="552"/>
	  <point x="286" y="688"/>
	  <point x="426" y="688" type="curve" smooth="yes"/>
	  <point x="495" y="688"/>
	  <point x="532" y="669"/>
	  <point x="541" y="659" type="curve"/>
	  <point x="586" y="571" type="line"/>
	  <point x="674" y="571" type="line"/>
	  <point x="685" y="738" type="line"/>
	  <point x="629" y="755"/>
	  <point x="513" y="765"/>
	  <point x="436" y="765" type="curve" smooth="yes"/>
	</contour>
  </outline>
</glyph>
<glyph name="H" format="1">
  <advance width="869"/>
  <unicode hex="0048"/>
  <outline>
	<contour>
	  <point x="32" y="0" type="line"/>
	  <point x="379" y="0" type="line"/>
	  <point x="379" y="68" type="line"/>
	  <point x="290" y="89" type="line"/>
	  <point x="290" y="337" type="line"/>
	  <point x="580" y="337" type="line"/>
	  <point x="580" y="88" type="line"/>
	  <point x="491" y="67" type="line"/>
	  <point x="491" y="0" type="line"/>
	  <point x="845" y="0" type="line"/>
	  <point x="845" y="67" type="line"/>
	  <point x="754" y="88" type="line"/>
	  <point x="754" y="668" type="line"/>
	  <point x="840" y="678" type="line"/>
	  <point x="840" y="758" type="line"/>
	  <point x="498" y="758" type="line"/>
	  <point x="498" y="678" type="line"/>
	  <point x="580" y="669" type="line"/>
	  <point x="580" y="431" type="line"/>
	  <point x="290" y="431" type="line"/>
	  <point x="290" y="667" type="line"/>
	  <point x="374" y="678" type="line"/>
	  <point x="374" y="758" type="line"/>
	  <point x="29" y="758" type="line"/>
	  <point x="29" y="678" type="line"/>
	  <point x="115" y="667" type="line"/>
	  <point x="115" y="89" type="line"/>
	  <point x="32" y="68" type="line"/>
	</contour>
  </outline>
</glyph>
<glyph name="I" format="1">
  <advance width="414"/>
  <unicode hex="0049"/>
  <outline>
	<contour>
	  <point x="27" y="0" type="line"/>
	  <point x="387" y="0" type="line"/>
	  <point x="387" y="68" type="line"/>
	  <point x="295" y="89" type="line"/>
	  <point x="295" y="666" type="line"/>
	  <point x="382" y="678" type="line"/>
	  <point x="382" y="758" type="line"/>
	  <point x="27" y="758" type="line"/>
	  <point x="27" y="678" type="line"/>
	  <point x="119" y="667" type="line"/>
	  <point x="119" y="88" type="line"/>
	  <point x="27" y="68" type="line"/>
	</contour>
  </outline>
</glyph>
<glyph name="J" format="1">
  <advance width="384"/>
  <unicode hex="004A"/>
  <outline>
    <contour>
      <point x="41" y="758" type="line"/>
      <point x="41" y="678" type="line"/>
      <point x="113" y="667" type="line"/>
      <point x="113" y="198" type="line" smooth="yes"/>
      <point x="113" y="114"/>
      <point x="112" y="43"/>
      <point x="89" y="-23" type="curve"/>
      <point x="62" y="-84"/>
      <point x="13" y="-119"/>
      <point x="-55" y="-144" type="curve"/>
      <point x="-21" y="-193" type="line"/>
      <point x="74" y="-193"/>
      <point x="216" y="-128"/>
      <point x="260" y="-20" type="curve" smooth="yes"/>
      <point x="282" y="35"/>
      <point x="290" y="150"/>
      <point x="290" y="261" type="curve" smooth="yes"/>
      <point x="290" y="667" type="line"/>
      <point x="359" y="678" type="line"/>
      <point x="359" y="758" type="line"/>
    </contour>
  </outline>
</glyph>
<glyph name="K" format="1">
  <advance width="750"/>
  <unicode hex="004B"/>
  <outline>
    <contour>
      <point x="22" y="0" type="line"/>
      <point x="386" y="0" type="line"/>
      <point x="386" y="68" type="line"/>
      <point x="288" y="89" type="line"/>
      <point x="288" y="272" type="line"/>
      <point x="343" y="334" type="line"/>
      <point x="428" y="256"/>
      <point x="490" y="2"/>
      <point x="548" y="0" type="curve"/>
      <point x="754" y="0" type="line"/>
      <point x="754" y="68" type="line"/>
      <point x="691" y="86" type="line"/>
      <point x="640" y="109"/>
      <point x="523" y="354"/>
      <point x="434" y="434" type="curve"/>
      <point x="644" y="666" type="line"/>
      <point x="735" y="678" type="line"/>
      <point x="735" y="758" type="line"/>
      <point x="433" y="758" type="line"/>
      <point x="435" y="678" type="line"/>
      <point x="512" y="667" type="line"/>
      <point x="288" y="389" type="line"/>
      <point x="288" y="666" type="line"/>
      <point x="375" y="678" type="line"/>
      <point x="375" y="758" type="line"/>
      <point x="21" y="758" type="line"/>
      <point x="21" y="678" type="line"/>
      <point x="115" y="666" type="line"/>
      <point x="115" y="89" type="line"/>
      <point x="22" y="68" type="line"/>
    </contour>
  </outline>
</glyph>
<glyph name="L" format="1">
  <advance width="631"/>
  <unicode hex="004C"/>
  <outline>
    <contour>
      <point x="45" y="0" type="line"/>
      <point x="588" y="0" type="line"/>
      <point x="622" y="187" type="line"/>
      <point x="547" y="214" type="line"/>
      <point x="466" y="99" type="line"/>
      <point x="290" y="80" type="line"/>
      <point x="290" y="657" type="line"/>
      <point x="379" y="668" type="line"/>
      <point x="379" y="758" type="line"/>
      <point x="48" y="758" type="line"/>
      <point x="48" y="668" type="line"/>
      <point x="115" y="658" type="line"/>
      <point x="115" y="87" type="line"/>
      <point x="45" y="68" type="line"/>
    </contour>
  </outline>
</glyph>
<glyph name="M" format="1">
  <advance width="1006"/>
  <unicode hex="004D"/>
  <outline>
	<contour>
	  <point x="30" y="0" type="line"/>
	  <point x="324" y="0" type="line"/>
	  <point x="324" y="68" type="line"/>
	  <point x="234" y="90" type="line"/>
	  <point x="249" y="522" type="line"/>
	  <point x="250" y="658" type="line"/>
	  <point x="270" y="597"/>
	  <point x="289" y="536"/>
	  <point x="309" y="475" type="curve"/>
	  <point x="470" y="-9" type="line"/>
	  <point x="534" y="-9" type="line"/>
	  <point x="707" y="594" type="line"/>
	  <point x="724" y="662" type="line"/>
	  <point x="726" y="463" type="line"/>
	  <point x="753" y="89" type="line"/>
	  <point x="672" y="67" type="line"/>
	  <point x="672" y="0" type="line"/>
	  <point x="996" y="0" type="line"/>
	  <point x="996" y="67" type="line"/>
	  <point x="919" y="88" type="line"/>
	  <point x="869" y="656" type="line"/>
	  <point x="960" y="667" type="line"/>
	  <point x="960" y="758" type="line"/>
	  <point x="654" y="758" type="line"/>
	  <point x="544" y="370" type="line"/>
	  <point x="523" y="271" type="line"/>
	  <point x="507" y="370" type="line"/>
	  <point x="390" y="758" type="line"/>
	  <point x="58" y="758" type="line"/>
	  <point x="58" y="667" type="line"/>
	  <point x="148" y="656" type="line"/>
	  <point x="114" y="89" type="line"/>
	  <point x="30" y="68" type="line"/>
	</contour>
  </outline>
</glyph>
<glyph name="N" format="1">
  <advance width="833"/>
  <unicode hex="004E"/>
  <outline>
    <contour>
      <point x="539" y="758" type="line"/>
      <point x="539" y="669" type="line"/>
      <point x="627" y="655" type="line"/>
      <point x="627" y="131" type="line"/>
      <point x="584" y="247" type="line"/>
      <point x="290" y="758" type="line"/>
      <point x="42" y="758" type="line"/>
      <point x="42" y="668" type="line"/>
      <point x="115" y="657" type="line"/>
      <point x="115" y="90" type="line"/>
      <point x="38" y="68" type="line"/>
      <point x="38" y="0" type="line"/>
      <point x="327" y="0" type="line"/>
      <point x="327" y="68" type="line"/>
      <point x="228" y="92" type="line"/>
      <point x="228" y="173"/>
      <point x="227" y="502"/>
      <point x="227" y="580" type="curve"/>
      <point x="280" y="448" type="line"/>
      <point x="546" y="0" type="line"/>
      <point x="738" y="0" type="line"/>
      <point x="738" y="658" type="line"/>
      <point x="805" y="669" type="line"/>
      <point x="805" y="758" type="line"/>
    </contour>
  </outline>
</glyph>
<glyph name="O" format="1">
  <advance width="781"/>
  <unicode hex="004F"/>
  <outline>
    <contour>
      <point x="320" y="765"/>
      <point x="249" y="739"/>
      <point x="191" y="695" type="curve" smooth="yes"/>
      <point x="96" y="624"/>
      <point x="38" y="505"/>
      <point x="34" y="368" type="curve" smooth="yes"/>
      <point x="30" y="147"/>
      <point x="174" y="-14"/>
      <point x="391" y="-14" type="curve" smooth="yes"/>
      <point x="607" y="-14"/>
      <point x="746" y="157"/>
      <point x="750" y="386" type="curve" smooth="yes"/>
      <point x="754" y="603"/>
      <point x="615" y="765"/>
      <point x="401" y="765" type="curve" smooth="yes"/>
    </contour>
    <contour>
      <point x="491" y="685"/>
      <point x="559" y="563"/>
      <point x="559" y="385" type="curve" smooth="yes"/>
      <point x="559" y="200"/>
      <point x="536" y="64"/>
      <point x="397" y="64" type="curve" smooth="yes"/>
      <point x="284" y="64"/>
      <point x="226" y="226"/>
      <point x="226" y="369" type="curve" smooth="yes"/>
      <point x="226" y="545"/>
      <point x="255" y="685"/>
      <point x="396" y="685" type="curve" smooth="yes"/>
    </contour>
  </outline>
</glyph>
<glyph name="P" format="1">
  <advance width="668"/>
  <unicode hex="0050"/>
  <outline>
	<contour>
	  <point x="29" y="0" type="line"/>
	  <point x="406" y="0" type="line"/>
	  <point x="406" y="68" type="line"/>
	  <point x="287" y="89" type="line"/>
	  <point x="287" y="295" type="line"/>
	  <point x="315" y="294"/>
	  <point x="336" y="294"/>
	  <point x="373" y="294" type="curve" smooth="yes"/>
	  <point x="541" y="294"/>
	  <point x="667" y="384"/>
	  <point x="667" y="543" type="curve" smooth="yes"/>
	  <point x="667" y="709"/>
	  <point x="554" y="765"/>
	  <point x="373" y="765" type="curve" smooth="yes"/>
	  <point x="306" y="765"/>
	  <point x="257" y="758"/>
	  <point x="206" y="758" type="curve" smooth="yes"/>
	  <point x="31" y="758" type="line"/>
	  <point x="31" y="674" type="line"/>
	  <point x="115" y="657" type="line"/>
	  <point x="115" y="89" type="line"/>
	  <point x="29" y="68" type="line"/>
	</contour>
	<contour>
	  <point x="287" y="679" type="line"/>
	  <point x="294" y="682"/>
	  <point x="324" y="686"/>
	  <point x="352" y="686" type="curve" smooth="yes"/>
	  <point x="435" y="686"/>
	  <point x="496" y="640"/>
	  <point x="496" y="552" type="curve" smooth="yes"/>
	  <point x="496" y="452"/>
	  <point x="460" y="377"/>
	  <point x="369" y="377" type="curve" smooth="yes"/>
	  <point x="348" y="377"/>
	  <point x="305" y="378"/>
	  <point x="287" y="382" type="curve"/>
	</contour>
  </outline>
</glyph>
<glyph name="Q" format="1">
  <advance width="781"/>
  <unicode hex="0051"/>
  <outline>
    <contour>
      <point x="339" y="765"/>
      <point x="278" y="749"/>
      <point x="225" y="717" type="curve" smooth="yes"/>
      <point x="103" y="647"/>
      <point x="34" y="513"/>
      <point x="34" y="359" type="curve" smooth="yes"/>
      <point x="34" y="143"/>
      <point x="177" y="-14"/>
      <point x="391" y="-14" type="curve"/>
      <point x="400" y="-14" type="line"/>
      <point x="422" y="-123"/>
      <point x="477" y="-191"/>
      <point x="582" y="-191" type="curve" smooth="yes"/>
      <point x="631" y="-191"/>
      <point x="693" y="-180"/>
      <point x="726" y="-147" type="curve"/>
      <point x="726" y="-40" type="line"/>
      <point x="690" y="-52"/>
      <point x="645" y="-64"/>
      <point x="597" y="-64" type="curve" smooth="yes"/>
      <point x="548" y="-64"/>
      <point x="504" y="-49"/>
      <point x="482" y="-2" type="curve"/>
      <point x="654" y="42"/>
      <point x="750" y="199"/>
      <point x="750" y="395" type="curve" smooth="yes"/>
      <point x="750" y="605"/>
      <point x="614" y="765"/>
      <point x="401" y="765" type="curve" smooth="yes"/>
    </contour>
    <contour>
      <point x="508" y="685"/>
      <point x="559" y="527"/>
      <point x="559" y="385" type="curve" smooth="yes"/>
      <point x="559" y="203"/>
      <point x="537" y="64"/>
      <point x="397" y="64" type="curve" smooth="yes"/>
      <point x="283" y="64"/>
      <point x="226" y="226"/>
      <point x="226" y="369" type="curve" smooth="yes"/>
      <point x="226" y="541"/>
      <point x="253" y="685"/>
      <point x="396" y="685" type="curve" smooth="yes"/>
    </contour>
  </outline>
</glyph>
<glyph name="R" format="1">
  <advance width="745"/>
  <unicode hex="0052"/>
  <outline>
	<contour>
	  <point x="315" y="765"/>
	  <point x="226" y="758"/>
	  <point x="149" y="758" type="curve" smooth="yes"/>
	  <point x="39" y="758" type="line"/>
	  <point x="39" y="674" type="line"/>
	  <point x="115" y="662" type="line"/>
	  <point x="115" y="89" type="line"/>
	  <point x="30" y="68" type="line"/>
	  <point x="30" y="0" type="line"/>
	  <point x="381" y="0" type="line"/>
	  <point x="381" y="68" type="line"/>
	  <point x="288" y="87" type="line"/>
	  <point x="288" y="314" type="line"/>
	  <point x="301" y="314"/>
	  <point x="314" y="314"/>
	  <point x="347" y="315" type="curve"/>
	  <point x="431" y="315"/>
	  <point x="479" y="0"/>
	  <point x="548" y="0" type="curve" smooth="yes"/>
	  <point x="754" y="0" type="line"/>
	  <point x="754" y="68" type="line"/>
	  <point x="691" y="86" type="line"/>
	  <point x="646" y="107"/>
	  <point x="595" y="253"/>
	  <point x="527" y="318" type="curve" smooth="yes"/>
	  <point x="519" y="326"/>
	  <point x="509" y="332"/>
	  <point x="501" y="337" type="curve"/>
	  <point x="614" y="376"/>
	  <point x="666" y="451"/>
	  <point x="666" y="567" type="curve" smooth="yes"/>
	  <point x="666" y="711"/>
	  <point x="536" y="765"/>
	  <point x="371" y="765" type="curve" smooth="yes"/>
	</contour>
	<contour>
	  <point x="439" y="685"/>
	  <point x="499" y="634"/>
	  <point x="499" y="549" type="curve" smooth="yes"/>
	  <point x="499" y="434"/>
	  <point x="449" y="391"/>
	  <point x="338" y="391" type="curve" smooth="yes"/>
	  <point x="320" y="391"/>
	  <point x="303" y="393"/>
	  <point x="288" y="395" type="curve"/>
	  <point x="288" y="679" type="line"/>
	  <point x="297" y="685"/>
	  <point x="320" y="685"/>
	  <point x="347" y="685" type="curve" smooth="yes"/>
	</contour>
  </outline>
</glyph>
<glyph name="S" format="1">
  <advance width="643"/>
  <unicode hex="0053"/>
  <outline>
    <contour>
      <point x="481" y="-14"/>
      <point x="613" y="63"/>
      <point x="613" y="206" type="curve" smooth="yes"/>
      <point x="613" y="307"/>
      <point x="532" y="370"/>
      <point x="428" y="424" type="curve" smooth="yes"/>
      <point x="305" y="489"/>
      <point x="229" y="532"/>
      <point x="229" y="614" type="curve" smooth="yes"/>
      <point x="229" y="669"/>
      <point x="282" y="694"/>
      <point x="343" y="694" type="curve" smooth="yes"/>
      <point x="368" y="694"/>
      <point x="420" y="685"/>
      <point x="437" y="671" type="curve"/>
      <point x="482" y="568" type="line"/>
      <point x="563" y="568" type="line"/>
      <point x="563" y="730" type="line"/>
      <point x="520" y="751"/>
      <point x="388" y="765"/>
      <point x="326" y="765" type="curve" smooth="yes"/>
      <point x="189" y="765"/>
      <point x="64" y="686"/>
      <point x="64" y="557" type="curve" smooth="yes"/>
      <point x="64" y="429"/>
      <point x="173" y="372"/>
      <point x="327" y="290" type="curve" smooth="yes"/>
      <point x="386" y="259"/>
      <point x="439" y="218"/>
      <point x="439" y="170" type="curve" smooth="yes"/>
      <point x="439" y="100"/>
      <point x="393" y="62"/>
      <point x="323" y="62" type="curve" smooth="yes"/>
      <point x="267" y="62"/>
      <point x="218" y="67"/>
      <point x="186" y="111" type="curve"/>
      <point x="140" y="229" type="line"/>
      <point x="67" y="229" type="line"/>
      <point x="67" y="31" type="line"/>
      <point x="121" y="3"/>
      <point x="247" y="-14"/>
      <point x="322" y="-14" type="curve" smooth="yes"/>
    </contour>
  </outline>
</glyph>
<glyph name="T" format="1">
  <advance width="711"/>
  <unicode hex="0054"/>
  <outline>
    <contour>
      <point x="167" y="0" type="line"/>
      <point x="562" y="0" type="line"/>
      <point x="562" y="68" type="line"/>
      <point x="452" y="88" type="line"/>
      <point x="452" y="676" type="line"/>
      <point x="581" y="663" type="line"/>
      <point x="619" y="551" type="line"/>
      <point x="688" y="560" type="line"/>
      <point x="688" y="758" type="line"/>
      <point x="35" y="758" type="line"/>
      <point x="23" y="554" type="line"/>
      <point x="111" y="558" type="line"/>
      <point x="145" y="663" type="line"/>
      <point x="279" y="676" type="line"/>
      <point x="279" y="87" type="line"/>
      <point x="167" y="68" type="line"/>
    </contour>
  </outline>
</glyph>
<glyph name="U" format="1">
  <advance width="787"/>
  <unicode hex="0055"/>
  <outline>
    <contour>
      <point x="510" y="758" type="line"/>
      <point x="510" y="678" type="line"/>
      <point x="592" y="666" type="line"/>
      <point x="594" y="325" type="line" smooth="yes"/>
      <point x="594" y="181"/>
      <point x="561" y="73"/>
      <point x="438" y="73" type="curve" smooth="yes"/>
      <point x="314" y="73"/>
      <point x="270" y="155"/>
      <point x="270" y="298" type="curve" smooth="yes"/>
      <point x="270" y="667" type="line"/>
      <point x="353" y="678" type="line"/>
      <point x="353" y="758" type="line"/>
      <point x="20" y="758" type="line"/>
      <point x="20" y="678" type="line"/>
      <point x="97" y="667" type="line"/>
      <point x="96" y="546"/>
      <point x="96" y="426"/>
      <point x="95" y="305" type="curve" smooth="yes"/>
      <point x="93" y="90"/>
      <point x="198" y="-14"/>
      <point x="417" y="-14" type="curve" smooth="yes"/>
      <point x="615" y="-14"/>
      <point x="703" y="113"/>
      <point x="703" y="326" type="curve" smooth="yes"/>
      <point x="703" y="666" type="line"/>
      <point x="773" y="678" type="line"/>
      <point x="773" y="758" type="line"/>
    </contour>
  </outline>
</glyph>
<glyph name="V" format="1">
  <advance width="729"/>
  <unicode hex="0056"/>
  <outline>
	<contour>
	  <point x="309" y="-7" type="line"/>
	  <point x="443" y="-7" type="line"/>
	  <point x="664" y="669" type="line"/>
	  <point x="723" y="678" type="line"/>
	  <point x="723" y="758" type="line"/>
	  <point x="443" y="758" type="line"/>
	  <point x="443" y="678" type="line"/>
	  <point x="519" y="667" type="line"/>
	  <point x="419" y="296" type="line"/>
	  <point x="389" y="168" type="line"/>
	  <point x="358" y="299" type="line"/>
	  <point x="252" y="667" type="line"/>
	  <point x="332" y="680" type="line"/>
	  <point x="332" y="758" type="line"/>
	  <point x="6" y="758" type="line"/>
	  <point x="6" y="678" type="line"/>
	  <point x="64" y="669" type="line"/>
	</contour>
  </outline>
</glyph>
<glyph name="W" format="1">
  <advance width="1114"/>
  <unicode hex="0057"/>
  <outline>
    <contour>
      <point x="287" y="-7" type="line"/>
      <point x="443" y="-7" type="line"/>
      <point x="551" y="386" type="line"/>
      <point x="663" y="-8" type="line"/>
      <point x="830" y="-8" type="line"/>
      <point x="1033" y="668" type="line"/>
      <point x="1106" y="678" type="line"/>
      <point x="1106" y="758" type="line"/>
      <point x="821" y="758" type="line"/>
      <point x="821" y="678" type="line"/>
      <point x="894" y="668" type="line"/>
      <point x="785" y="217" type="line"/>
      <point x="765" y="133" type="line"/>
      <point x="747" y="217" type="line"/>
      <point x="647" y="667" type="line"/>
      <point x="727" y="679" type="line"/>
      <point x="727" y="758" type="line"/>
      <point x="411" y="758" type="line"/>
      <point x="411" y="678" type="line"/>
      <point x="475" y="668" type="line"/>
      <point x="494" y="591" type="line"/>
      <point x="401" y="217" type="line"/>
      <point x="385" y="135" type="line"/>
      <point x="379" y="162"/>
      <point x="374" y="189"/>
      <point x="369" y="217" type="curve"/>
      <point x="254" y="668" type="line"/>
      <point x="313" y="679" type="line"/>
      <point x="313" y="758" type="line"/>
      <point x="7" y="758" type="line"/>
      <point x="7" y="678" type="line"/>
      <point x="68" y="668" type="line"/>
    </contour>
  </outline>
</glyph>
<glyph name="X" format="1">
  <advance width="758"/>
  <unicode hex="0058"/>
  <outline>
	<contour>
	  <point x="12" y="0" type="line"/>
	  <point x="338" y="0" type="line"/>
	  <point x="338" y="67" type="line"/>
	  <point x="247" y="89" type="line"/>
	  <point x="361" y="281" type="line"/>
	  <point x="474" y="86" type="line"/>
	  <point x="404" y="67" type="line"/>
	  <point x="404" y="0" type="line"/>
	  <point x="747" y="0" type="line"/>
	  <point x="747" y="67" type="line"/>
	  <point x="667" y="90" type="line"/>
	  <point x="447" y="400" type="line"/>
	  <point x="653" y="667" type="line"/>
	  <point x="747" y="678" type="line"/>
	  <point x="747" y="758" type="line"/>
	  <point x="442" y="758" type="line"/>
	  <point x="442" y="678" type="line"/>
	  <point x="509" y="668" type="line"/>
	  <point x="390" y="476" type="line"/>
	  <point x="286" y="668" type="line"/>
	  <point x="357" y="680" type="line"/>
	  <point x="357" y="758" type="line"/>
	  <point x="12" y="758" type="line"/>
	  <point x="12" y="678" type="line"/>
	  <point x="90" y="667" type="line"/>
	  <point x="298" y="365" type="line"/>
	  <point x="98" y="89" type="line"/>
	  <point x="12" y="67" type="line"/>
	</contour>
  </outline>
</glyph>
<glyph name="Y" format="1">
  <advance width="723"/>
  <unicode hex="0059"/>
  <outline>
    <contour>
      <point x="170" y="0" type="line"/>
      <point x="593" y="0" type="line"/>
      <point x="593" y="68" type="line"/>
      <point x="461" y="92" type="line"/>
      <point x="461" y="265" type="line"/>
      <point x="652" y="660" type="line"/>
      <point x="716" y="678" type="line"/>
      <point x="716" y="758" type="line"/>
      <point x="441" y="758" type="line"/>
      <point x="442" y="678" type="line"/>
      <point x="520" y="666" type="line"/>
      <point x="416" y="415" type="line"/>
      <point x="399" y="365" type="line"/>
      <point x="385" y="411" type="line"/>
      <point x="262" y="670" type="line"/>
      <point x="314" y="680" type="line"/>
      <point x="314" y="758" type="line"/>
      <point x="6" y="758" type="line"/>
      <point x="6" y="678" type="line"/>
      <point x="60" y="669" type="line"/>
      <point x="288" y="250" type="line"/>
      <point x="288" y="90" type="line"/>
      <point x="170" y="68" type="line"/>
    </contour>
  </outline>
</glyph>
<glyph name="Z" format="1">
  <advance width="678"/>
  <unicode hex="005A"/>
  <outline>
    <contour>
      <point x="71" y="758" type="line"/>
      <point x="50" y="552" type="line"/>
      <point x="125" y="538" type="line"/>
      <point x="187" y="657" type="line"/>
      <point x="467" y="680" type="line"/>
      <point x="386" y="591" type="line"/>
      <point x="25" y="68" type="line"/>
      <point x="45" y="0" type="line"/>
      <point x="617" y="0" type="line"/>
      <point x="671" y="213" type="line"/>
      <point x="598" y="233" type="line"/>
      <point x="501" y="103" type="line"/>
      <point x="229" y="80" type="line"/>
      <point x="300" y="161" type="line"/>
      <point x="655" y="684" type="line"/>
      <point x="632" y="758" type="line"/>
    </contour>
  </outline>
</glyph>
<glyph name="bracketleft" format="1">
  <advance width="546"/>
  <unicode hex="005B"/>
  <outline>
	<contour>
	  <point x="126" y="54" type="line" smooth="yes"/>
	  <point x="126" y="-71"/>
	  <point x="162" y="-112"/>
	  <point x="280" y="-112" type="curve" smooth="yes"/>
	  <point x="324" y="-112"/>
	  <point x="396" y="-97"/>
	  <point x="432" y="-77" type="curve"/>
	  <point x="430" y="-16" type="line"/>
	  <point x="280" y="-14" type="line"/>
	  <point x="280" y="783" type="line"/>
	  <point x="430" y="783" type="line"/>
	  <point x="431" y="843" type="line"/>
	  <point x="380" y="862"/>
	  <point x="326" y="881"/>
	  <point x="279" y="881" type="curve" smooth="yes"/>
	  <point x="174" y="881"/>
	  <point x="126" y="850"/>
	  <point x="126" y="738" type="curve" smooth="yes"/>
	</contour>
  </outline>
</glyph>
<glyph name="backslash" format="1">
  <advance width="404"/>
  <unicode hex="005C"/>
  <outline>
    <contour>
      <point x="15" y="781" type="line"/>
      <point x="266" y="-177" type="line"/>
      <point x="389" y="-177" type="line"/>
      <point x="138" y="781" type="line"/>
    </contour>
  </outline>
</glyph>
<glyph name="bracketright" format="1">
  <advance width="546"/>
  <unicode hex="005D"/>
  <outline>
    <contour>
      <point x="113" y="-16" type="line"/>
      <point x="111" y="-77" type="line"/>
      <point x="147" y="-97"/>
      <point x="219" y="-112"/>
      <point x="263" y="-112" type="curve" smooth="yes"/>
      <point x="381" y="-112"/>
      <point x="417" y="-71"/>
      <point x="417" y="54" type="curve" smooth="yes"/>
      <point x="417" y="738" type="line" smooth="yes"/>
      <point x="417" y="850"/>
      <point x="369" y="881"/>
      <point x="264" y="881" type="curve" smooth="yes"/>
      <point x="217" y="881"/>
      <point x="163" y="862"/>
      <point x="112" y="843" type="curve"/>
      <point x="113" y="783" type="line"/>
      <point x="263" y="783" type="line"/>
      <point x="263" y="-14" type="line"/>
    </contour>
  </outline>
</glyph>
<glyph name="asciicircum" format="1">
  <advance width="733"/>
  <unicode hex="005E"/>
  <outline>
    <contour>
      <point x="89" y="275" type="line"/>
      <point x="224" y="275" type="line"/>
      <point x="359" y="596" type="line"/>
      <point x="488" y="275" type="line"/>
      <point x="644" y="275" type="line"/>
      <point x="452" y="748" type="line"/>
      <point x="286" y="748" type="line"/>
    </contour>
  </outline>
</glyph>
<glyph name="underscore" format="1">
  <advance width="694"/>
  <unicode hex="005F"/>
  <outline>
	<contour>
	  <point x="-10" y="-94" type="line"/>
	  <point x="-10" y="-208" type="line"/>
	  <point x="701" y="-208" type="line"/>
	  <point x="701" y="-94" type="line"/>
	</contour>
  </outline>
</glyph>
<glyph name="grave" format="1">
  <advance width="432"/>
  <unicode hex="0060"/>
  <outline>
    <contour>
      <point x="392" y="696" type="line"/>
      <point x="238" y="904" type="line"/>
      <point x="114" y="809" type="line"/>
      <point x="161" y="741"/>
      <point x="272" y="649"/>
      <point x="349" y="653" type="curve"/>
    </contour>
  </outline>
</glyph>
<glyph name="a" format="1">
  <advance width="599"/>
  <unicode hex="0061"/>
  <outline>
    <contour>
      <point x="227" y="562"/>
      <point x="112" y="543"/>
      <point x="61" y="502" type="curve"/>
      <point x="94" y="427" type="line"/>
      <point x="129" y="452"/>
      <point x="200" y="469"/>
      <point x="255" y="469" type="curve" smooth="yes"/>
      <point x="333" y="469"/>
      <point x="358" y="435"/>
      <point x="359" y="349" type="curve"/>
      <point x="359" y="343" type="line"/>
      <point x="199" y="343"/>
      <point x="34" y="282"/>
      <point x="34" y="143" type="curve" smooth="yes"/>
      <point x="34" y="42"/>
      <point x="121" y="-14"/>
      <point x="240" y="-14" type="curve" smooth="yes"/>
      <point x="303" y="-14"/>
      <point x="348" y="10"/>
      <point x="382" y="42" type="curve"/>
      <point x="386" y="6"/>
      <point x="421" y="-14"/>
      <point x="470" y="-14" type="curve" smooth="yes"/>
      <point x="509" y="-14"/>
      <point x="567" y="-7"/>
      <point x="596" y="14" type="curve"/>
      <point x="596" y="66" type="line"/>
      <point x="532" y="66" type="line"/>
      <point x="532" y="361" type="line" smooth="yes"/>
      <point x="532" y="506"/>
      <point x="456" y="562"/>
      <point x="308" y="562" type="curve" smooth="yes"/>
    </contour>
    <contour>
      <point x="359" y="101" type="line"/>
      <point x="340" y="85"/>
      <point x="317" y="80"/>
      <point x="290" y="80" type="curve" smooth="yes"/>
      <point x="237" y="80"/>
      <point x="209" y="109"/>
      <point x="209" y="164" type="curve" smooth="yes"/>
      <point x="209" y="238"/>
      <point x="279" y="268"/>
      <point x="359" y="268" type="curve"/>
    </contour>
  </outline>
</glyph>
<glyph name="b" format="1">
  <advance width="648"/>
  <unicode hex="0062"/>
  <outline>
	<contour>
	  <point x="73" y="27" type="line"/>
	  <point x="109" y="5"/>
	  <point x="220" y="-14"/>
	  <point x="304" y="-14" type="curve" smooth="yes"/>
	  <point x="478" y="-14"/>
	  <point x="612" y="121"/>
	  <point x="612" y="295" type="curve" smooth="yes"/>
	  <point x="612" y="458"/>
	  <point x="527" y="562"/>
	  <point x="374" y="562" type="curve" smooth="yes"/>
	  <point x="321" y="562"/>
	  <point x="277" y="549"/>
	  <point x="246" y="531" type="curve"/>
	  <point x="246" y="787" type="line"/>
	  <point x="218" y="795" type="line"/>
	  <point x="12" y="772" type="line"/>
	  <point x="12" y="704" type="line"/>
	  <point x="73" y="676" type="line"/>
	</contour>
	<contour>
	  <point x="246" y="467" type="line"/>
	  <point x="261" y="473"/>
	  <point x="280" y="477"/>
	  <point x="307" y="477" type="curve" smooth="yes"/>
	  <point x="392" y="477"/>
	  <point x="441" y="382"/>
	  <point x="438" y="277" type="curve" smooth="yes"/>
	  <point x="435" y="166"/>
	  <point x="408" y="57"/>
	  <point x="322" y="57" type="curve" smooth="yes"/>
	  <point x="289" y="57"/>
	  <point x="259" y="72"/>
	  <point x="246" y="98" type="curve"/>
	</contour>
  </outline>
</glyph>
<glyph name="c" format="1">
  <advance width="554"/>
  <unicode hex="0063"/>
  <outline>
	<contour>
	  <point x="169" y="562"/>
	  <point x="37" y="443"/>
	  <point x="37" y="260" type="curve" smooth="yes"/>
	  <point x="37" y="96"/>
	  <point x="139" y="-14"/>
	  <point x="308" y="-14" type="curve" smooth="yes"/>
	  <point x="407" y="-14"/>
	  <point x="486" y="11"/>
	  <point x="538" y="56" type="curve"/>
	  <point x="512" y="117" type="line"/>
	  <point x="481" y="94"/>
	  <point x="420" y="83"/>
	  <point x="375" y="83" type="curve" smooth="yes"/>
	  <point x="270" y="83"/>
	  <point x="216" y="167"/>
	  <point x="216" y="288" type="curve" smooth="yes"/>
	  <point x="216" y="390"/>
	  <point x="247" y="486"/>
	  <point x="328" y="486" type="curve" smooth="yes"/>
	  <point x="349" y="486"/>
	  <point x="374" y="485"/>
	  <point x="392" y="474" type="curve"/>
	  <point x="431" y="382" type="line"/>
	  <point x="520" y="382" type="line"/>
	  <point x="520" y="537" type="line"/>
	  <point x="488" y="554"/>
	  <point x="406" y="562"/>
	  <point x="357" y="562" type="curve" smooth="yes"/>
	</contour>
  </outline>
</glyph>
<glyph name="d" format="1">
  <advance width="675"/>
  <unicode hex="0064"/>
  <outline>
	<contour>
	  <point x="304" y="772" type="line"/>
	  <point x="304" y="704" type="line"/>
	  <point x="412" y="676" type="line"/>
	  <point x="412" y="558" type="line"/>
	  <point x="387" y="562"/>
	  <point x="369" y="562"/>
	  <point x="354" y="562" type="curve" smooth="yes"/>
	  <point x="180" y="562"/>
	  <point x="36" y="441"/>
	  <point x="36" y="264" type="curve" smooth="yes"/>
	  <point x="36" y="110"/>
	  <point x="126" y="-14"/>
	  <point x="268" y="-14" type="curve" smooth="yes"/>
	  <point x="320" y="-14"/>
	  <point x="386" y="-6"/>
	  <point x="425" y="21" type="curve"/>
	  <point x="438" y="-1"/>
	  <point x="463" y="-14"/>
	  <point x="506" y="-14" type="curve" smooth="yes"/>
	  <point x="583" y="-14"/>
	  <point x="632" y="2"/>
	  <point x="654" y="14" type="curve"/>
	  <point x="654" y="66" type="line"/>
	  <point x="585" y="66" type="line"/>
	  <point x="585" y="783" type="line"/>
	  <point x="553" y="796" type="line"/>
	</contour>
	<contour>
	  <point x="361" y="496"/>
	  <point x="389" y="494"/>
	  <point x="412" y="479" type="curve"/>
	  <point x="412" y="75" type="line"/>
	  <point x="397" y="69"/>
	  <point x="375" y="65"/>
	  <point x="345" y="65" type="curve" smooth="yes"/>
	  <point x="252" y="65"/>
	  <point x="213" y="188"/>
	  <point x="216" y="301" type="curve" smooth="yes"/>
	  <point x="216" y="392"/>
	  <point x="255" y="496"/>
	  <point x="338" y="496" type="curve" smooth="yes"/>
	</contour>
  </outline>
</glyph>
<glyph name="e" format="1">
  <advance width="605"/>
  <unicode hex="0065"/>
  <outline>
	<contour>
	  <point x="158" y="562"/>
	  <point x="36" y="437"/>
	  <point x="36" y="259" type="curve" smooth="yes"/>
	  <point x="36" y="89"/>
	  <point x="135" y="-10"/>
	  <point x="313" y="-14" type="curve" smooth="yes"/>
	  <point x="389" y="-16"/>
	  <point x="495" y="8"/>
	  <point x="552" y="56" type="curve"/>
	  <point x="526" y="117" type="line"/>
	  <point x="474" y="94"/>
	  <point x="418" y="84"/>
	  <point x="371" y="84" type="curve" smooth="yes"/>
	  <point x="274" y="84"/>
	  <point x="225" y="144"/>
	  <point x="216" y="259" type="curve"/>
	  <point x="556" y="259" type="line"/>
	  <point x="560" y="286"/>
	  <point x="564" y="317"/>
	  <point x="563" y="358" type="curve" smooth="yes"/>
	  <point x="558" y="492"/>
	  <point x="478" y="562"/>
	  <point x="335" y="562" type="curve" smooth="yes"/>
	</contour>
	<contour>
	  <point x="369" y="494"/>
	  <point x="394" y="466"/>
	  <point x="398" y="417" type="curve" smooth="yes"/>
	  <point x="400" y="391"/>
	  <point x="397" y="361"/>
	  <point x="395" y="337" type="curve"/>
	  <point x="216" y="337" type="line"/>
	  <point x="223" y="422"/>
	  <point x="249" y="494"/>
	  <point x="320" y="494" type="curve" smooth="yes"/>
	</contour>
  </outline>
</glyph>
<glyph name="f" format="1">
  <advance width="462"/>
  <unicode hex="0066"/>
  <outline>
    <contour>
      <point x="35" y="0" type="line"/>
      <point x="404" y="0" type="line"/>
      <point x="404" y="66" type="line"/>
      <point x="287" y="81" type="line"/>
      <point x="287" y="446" type="line"/>
      <point x="434" y="446" type="line"/>
      <point x="434" y="546" type="line"/>
      <point x="287" y="546" type="line"/>
      <point x="287" y="639" type="line" smooth="yes"/>
      <point x="287" y="705"/>
      <point x="296" y="731"/>
      <point x="352" y="731" type="curve" smooth="yes"/>
      <point x="380" y="731"/>
      <point x="436" y="717"/>
      <point x="461" y="704" type="curve"/>
      <point x="461" y="831" type="line"/>
      <point x="439" y="841"/>
      <point x="387" y="847"/>
      <point x="356" y="847" type="curve" smooth="yes"/>
      <point x="225" y="847"/>
      <point x="114" y="716"/>
      <point x="114" y="587" type="curve" smooth="yes"/>
      <point x="114" y="536" type="line"/>
      <point x="25" y="497" type="line"/>
      <point x="25" y="446" type="line"/>
      <point x="114" y="446" type="line"/>
      <point x="114" y="81" type="line"/>
      <point x="35" y="66" type="line"/>
    </contour>
  </outline>
</glyph>
<glyph name="g" format="1">
  <advance width="623"/>
  <unicode hex="0067"/>
  <outline>
	<contour>
	  <point x="154" y="560"/>
	  <point x="33" y="497"/>
	  <point x="33" y="368" type="curve" smooth="yes"/>
	  <point x="33" y="296"/>
	  <point x="68" y="247"/>
	  <point x="128" y="218" type="curve"/>
	  <point x="97" y="192"/>
	  <point x="62" y="144"/>
	  <point x="62" y="109" type="curve" smooth="yes"/>
	  <point x="62" y="63"/>
	  <point x="70" y="35"/>
	  <point x="116" y="17" type="curve"/>
	  <point x="69" y="-10"/>
	  <point x="34" y="-57"/>
	  <point x="34" y="-115" type="curve" smooth="yes"/>
	  <point x="34" y="-224"/>
	  <point x="146" y="-259"/>
	  <point x="284" y="-259" type="curve" smooth="yes"/>
	  <point x="451" y="-259"/>
	  <point x="608" y="-195"/>
	  <point x="608" y="-54" type="curve" smooth="yes"/>
	  <point x="608" y="74"/>
	  <point x="527" y="105"/>
	  <point x="373" y="105" type="curve" smooth="yes"/>
	  <point x="335" y="105"/>
	  <point x="296" y="105"/>
	  <point x="258" y="105" type="curve" smooth="yes"/>
	  <point x="213" y="105"/>
	  <point x="188" y="121"/>
	  <point x="188" y="161" type="curve" smooth="yes"/>
	  <point x="188" y="172"/>
	  <point x="191" y="184"/>
	  <point x="196" y="196" type="curve"/>
	  <point x="222" y="191"/>
	  <point x="250" y="189"/>
	  <point x="282" y="189" type="curve" smooth="yes"/>
	  <point x="423" y="189"/>
	  <point x="534" y="248"/>
	  <point x="534" y="384" type="curve" smooth="yes"/>
	  <point x="534" y="406"/>
	  <point x="531" y="426"/>
	  <point x="525" y="444" type="curve"/>
	  <point x="626" y="444" type="line"/>
	  <point x="626" y="562" type="line"/>
	  <point x="583" y="562" type="line" smooth="yes"/>
	  <point x="535" y="562"/>
	  <point x="491" y="552"/>
	  <point x="474" y="516" type="curve"/>
	  <point x="431" y="549"/>
	  <point x="370" y="563"/>
	  <point x="295" y="562" type="curve" smooth="yes"/>
	</contour>
	<contour>
	  <point x="212" y="0"/>
	  <point x="231" y="0"/>
	  <point x="254" y="0" type="curve" smooth="yes"/>
	  <point x="340" y="0" type="line" smooth="yes"/>
	  <point x="421" y="0"/>
	  <point x="450" y="-20"/>
	  <point x="450" y="-93" type="curve" smooth="yes"/>
	  <point x="450" y="-168"/>
	  <point x="400" y="-182"/>
	  <point x="317" y="-182" type="curve" smooth="yes"/>
	  <point x="241" y="-182"/>
	  <point x="180" y="-146"/>
	  <point x="180" y="-67" type="curve" smooth="yes"/>
	  <point x="180" y="-35"/>
	  <point x="186" y="-14"/>
	  <point x="194" y="2" type="curve"/>
	</contour>
	<contour>
	  <point x="344" y="494"/>
	  <point x="375" y="452"/>
	  <point x="375" y="378" type="curve" smooth="yes"/>
	  <point x="375" y="320"/>
	  <point x="353" y="267"/>
	  <point x="294" y="267" type="curve" smooth="yes"/>
	  <point x="223" y="267"/>
	  <point x="202" y="326"/>
	  <point x="202" y="405" type="curve" smooth="yes"/>
	  <point x="202" y="458"/>
	  <point x="234" y="494"/>
	  <point x="285" y="494" type="curve" smooth="yes"/>
	</contour>
  </outline>
</glyph>
<glyph name="h" format="1">
  <advance width="696"/>
  <unicode hex="0068"/>
  <outline>
    <contour>
      <point x="29" y="0" type="line"/>
      <point x="320" y="0" type="line"/>
      <point x="320" y="66" type="line"/>
      <point x="272" y="79" type="line"/>
      <point x="272" y="433" type="line"/>
      <point x="292" y="449"/>
      <point x="315" y="455"/>
      <point x="342" y="455" type="curve" smooth="yes"/>
      <point x="427" y="455"/>
      <point x="433" y="387"/>
      <point x="433" y="282" type="curve" smooth="yes"/>
      <point x="433" y="80" type="line"/>
      <point x="362" y="66" type="line"/>
      <point x="362" y="1" type="line"/>
      <point x="672" y="0" type="line"/>
      <point x="672" y="66" type="line"/>
      <point x="605" y="80" type="line"/>
      <point x="605" y="306" type="line" smooth="yes"/>
      <point x="607" y="461"/>
      <point x="586" y="562"/>
      <point x="443" y="562" type="curve" smooth="yes"/>
      <point x="374" y="562"/>
      <point x="312" y="542"/>
      <point x="262" y="497" type="curve"/>
      <point x="272" y="547" type="line"/>
      <point x="272" y="787" type="line"/>
      <point x="244" y="796" type="line"/>
      <point x="33" y="772" type="line"/>
      <point x="33" y="704" type="line"/>
      <point x="99" y="676" type="line"/>
      <point x="99" y="80" type="line"/>
      <point x="29" y="66" type="line"/>
    </contour>
  </outline>
</glyph>
<glyph name="i" format="1">
  <advance width="365"/>
  <unicode hex="0069"/>
  <outline>
	<contour>
	  <point x="42" y="500" type="line"/>
	  <point x="42" y="454" type="line"/>
	  <point x="104" y="384" type="line"/>
	  <point x="104" y="80" type="line"/>
	  <point x="39" y="66" type="line"/>
	  <point x="39" y="0" type="line"/>
	  <point x="347" y="0" type="line"/>
	  <point x="347" y="66" type="line"/>
	  <point x="277" y="79" type="line"/>
	  <point x="277" y="550" type="line"/>
	  <point x="235" y="562" type="line"/>
	</contour>
	<contour>
	  <point x="137" y="848"/>
	  <point x="75" y="802"/>
	  <point x="75" y="739" type="curve" smooth="yes"/>
	  <point x="75" y="684"/>
	  <point x="121" y="647"/>
	  <point x="175" y="647" type="curve" smooth="yes"/>
	  <point x="236" y="647"/>
	  <point x="294" y="690"/>
	  <point x="294" y="756" type="curve" smooth="yes"/>
	  <point x="294" y="813"/>
	  <point x="259" y="848"/>
	  <point x="194" y="848" type="curve" smooth="yes"/>
	</contour>
  </outline>
</glyph>
<glyph name="j" format="1">
  <advance width="334"/>
  <unicode hex="006A"/>
  <outline>
	<contour>
	  <point x="40" y="499" type="line" smooth="yes"/>
	  <point x="40" y="456" type="line" smooth="yes"/>
	  <point x="94" y="384" type="line" smooth="yes"/>
	  <point x="94" y="-3" type="line"/>
	  <point x="94" y="-89"/>
	  <point x="94" y="-161"/>
	  <point x="40" y="-161" type="curve"/>
	  <point x="25" y="-161"/>
	  <point x="-13" y="-157"/>
	  <point x="-20" y="-155" type="curve" smooth="yes"/>
	  <point x="-20" y="-247" type="line" smooth="yes"/>
	  <point x="-5" y="-254"/>
	  <point x="48" y="-265"/>
	  <point x="82" y="-265" type="curve"/>
	  <point x="205" y="-265"/>
	  <point x="267" y="-163"/>
	  <point x="267" y="-23" type="curve"/>
	  <point x="267" y="549" type="line" smooth="yes"/>
	  <point x="227" y="562" type="line" smooth="yes"/>
	</contour>
	<contour>
	  <point x="118" y="848"/>
	  <point x="56" y="801"/>
	  <point x="56" y="739" type="curve"/>
	  <point x="56" y="684"/>
	  <point x="101" y="647"/>
	  <point x="156" y="647" type="curve"/>
	  <point x="220" y="647"/>
	  <point x="275" y="694"/>
	  <point x="275" y="756" type="curve"/>
	  <point x="275" y="812"/>
	  <point x="239" y="848"/>
	  <point x="175" y="848" type="curve"/>
	</contour>
  </outline>
</glyph>
<glyph name="k" format="1">
  <advance width="663"/>
  <unicode hex="006B"/>
  <outline>
	<contour>
	  <point x="34" y="0" type="line"/>
	  <point x="329" y="0" type="line"/>
	  <point x="329" y="66" type="line"/>
	  <point x="271" y="79" type="line"/>
	  <point x="271" y="137" type="line"/>
	  <point x="267" y="177" type="line"/>
	  <point x="317" y="234" type="line"/>
	  <point x="399" y="81" type="line"/>
	  <point x="358" y="67" type="line"/>
	  <point x="358" y="0" type="line"/>
	  <point x="647" y="0" type="line"/>
	  <point x="647" y="67" type="line"/>
	  <point x="597" y="77" type="line"/>
	  <point x="430" y="337" type="line"/>
	  <point x="548" y="450" type="line"/>
	  <point x="647" y="459" type="line"/>
	  <point x="647" y="546" type="line"/>
	  <point x="335" y="546" type="line"/>
	  <point x="335" y="459" type="line"/>
	  <point x="425" y="449" type="line"/>
	  <point x="266" y="278" type="line"/>
	  <point x="272" y="347" type="line"/>
	  <point x="272" y="783" type="line"/>
	  <point x="242" y="796" type="line"/>
	  <point x="21" y="764" type="line"/>
	  <point x="21" y="695" type="line"/>
	  <point x="99" y="660" type="line"/>
	  <point x="99" y="81" type="line"/>
	  <point x="34" y="66" type="line"/>
	</contour>
  </outline>
</glyph>
<glyph name="l" format="1">
  <advance width="359"/>
  <unicode hex="006C"/>
  <outline>
	<contour>
	  <point x="34" y="0" type="line"/>
	  <point x="350" y="0" type="line"/>
	  <point x="350" y="66" type="line"/>
	  <point x="265" y="81" type="line"/>
	  <point x="265" y="787" type="line"/>
	  <point x="236" y="796" type="line"/>
	  <point x="26" y="772" type="line"/>
	  <point x="26" y="704" type="line"/>
	  <point x="92" y="676" type="line"/>
	  <point x="92" y="79" type="line"/>
	  <point x="34" y="66" type="line"/>
	</contour>
  </outline>
</glyph>
<glyph name="m" format="1">
  <advance width="1059"/>
  <unicode hex="006D"/>
  <outline>
	<contour>
	  <point x="48" y="0" type="line"/>
	  <point x="345" y="0" type="line"/>
	  <point x="345" y="66" type="line"/>
	  <point x="281" y="80" type="line"/>
	  <point x="281" y="426" type="line"/>
	  <point x="296" y="441"/>
	  <point x="332" y="451"/>
	  <point x="366" y="451" type="curve" smooth="yes"/>
	  <point x="438" y="451"/>
	  <point x="455" y="403"/>
	  <point x="455" y="311" type="curve" smooth="yes"/>
	  <point x="455" y="81" type="line"/>
	  <point x="386" y="66" type="line"/>
	  <point x="386" y="0" type="line"/>
	  <point x="697" y="0" type="line"/>
	  <point x="697" y="66" type="line"/>
	  <point x="628" y="80" type="line"/>
	  <point x="628" y="344" type="line" smooth="yes"/>
	  <point x="628" y="389"/>
	  <point x="626" y="410"/>
	  <point x="623" y="426" type="curve"/>
	  <point x="643" y="439"/>
	  <point x="671" y="451"/>
	  <point x="694" y="451" type="curve" smooth="yes"/>
	  <point x="780" y="451"/>
	  <point x="795" y="412"/>
	  <point x="795" y="307" type="curve" smooth="yes"/>
	  <point x="795" y="80" type="line"/>
	  <point x="738" y="66" type="line"/>
	  <point x="738" y="0" type="line"/>
	  <point x="1036" y="0" type="line"/>
	  <point x="1036" y="66" type="line"/>
	  <point x="968" y="80" type="line"/>
	  <point x="968" y="329" type="line" smooth="yes"/>
	  <point x="968" y="472"/>
	  <point x="918" y="562"/>
	  <point x="785" y="562" type="curve" smooth="yes"/>
	  <point x="717" y="562"/>
	  <point x="654" y="534"/>
	  <point x="604" y="486" type="curve"/>
	  <point x="577" y="548"/>
	  <point x="513" y="567"/>
	  <point x="438" y="563" type="curve" smooth="yes"/>
	  <point x="377" y="561"/>
	  <point x="302" y="526"/>
	  <point x="260" y="480" type="curve"/>
	  <point x="260" y="553" type="line"/>
	  <point x="224" y="562" type="line"/>
	  <point x="42" y="508" type="line"/>
	  <point x="42" y="447" type="line"/>
	  <point x="108" y="400" type="line"/>
	  <point x="108" y="79" type="line"/>
	  <point x="48" y="66" type="line"/>
	</contour>
  </outline>
</glyph>
<glyph name="n" format="1">
  <advance width="716"/>
  <unicode hex="006E"/>
  <outline>
	<contour>
	  <point x="47" y="0" type="line"/>
	  <point x="341" y="0" type="line"/>
	  <point x="341" y="66" type="line"/>
	  <point x="281" y="80" type="line"/>
	  <point x="281" y="427" type="line"/>
	  <point x="294" y="437"/>
	  <point x="338" y="449"/>
	  <point x="355" y="449" type="curve" smooth="yes"/>
	  <point x="439" y="449"/>
	  <point x="452" y="421"/>
	  <point x="452" y="320" type="curve" smooth="yes"/>
	  <point x="452" y="80" type="line"/>
	  <point x="382" y="66" type="line"/>
	  <point x="382" y="0" type="line"/>
	  <point x="693" y="0" type="line"/>
	  <point x="693" y="66" type="line"/>
	  <point x="625" y="79" type="line"/>
	  <point x="625" y="342" type="line" smooth="yes"/>
	  <point x="625" y="480"/>
	  <point x="589" y="562"/>
	  <point x="464" y="562" type="curve" smooth="yes"/>
	  <point x="395" y="562"/>
	  <point x="312" y="532"/>
	  <point x="260" y="480" type="curve"/>
	  <point x="260" y="553" type="line"/>
	  <point x="223" y="562" type="line"/>
	  <point x="42" y="508" type="line"/>
	  <point x="42" y="447" type="line"/>
	  <point x="108" y="400" type="line"/>
	  <point x="108" y="79" type="line"/>
	  <point x="47" y="66" type="line"/>
	</contour>
  </outline>
</glyph>
<glyph name="o" format="1">
  <advance width="652"/>
  <unicode hex="006F"/>
  <outline>
    <contour>
      <point x="158" y="558"/>
      <point x="41" y="456"/>
      <point x="37" y="274" type="curve" smooth="yes"/>
      <point x="35" y="95"/>
      <point x="136" y="-12"/>
      <point x="322" y="-12" type="curve" smooth="yes"/>
      <point x="498" y="-12"/>
      <point x="617" y="104"/>
      <point x="617" y="289" type="curve" smooth="yes"/>
      <point x="617" y="464"/>
      <point x="519" y="563"/>
      <point x="336" y="563" type="curve" smooth="yes"/>
    </contour>
    <contour>
      <point x="414" y="491"/>
      <point x="434" y="385"/>
      <point x="434" y="280" type="curve" smooth="yes"/>
      <point x="434" y="172"/>
      <point x="417" y="60"/>
      <point x="328" y="60" type="curve" smooth="yes"/>
      <point x="245" y="60"/>
      <point x="221" y="186"/>
      <point x="221" y="288" type="curve" smooth="yes"/>
      <point x="221" y="397"/>
      <point x="246" y="491"/>
      <point x="332" y="491" type="curve" smooth="yes"/>
    </contour>
  </outline>
</glyph>
<glyph name="p" format="1">
  <advance width="659"/>
  <unicode hex="0070"/>
  <outline>
    <contour>
      <point x="345" y="562"/>
      <point x="264" y="531"/>
      <point x="243" y="490" type="curve"/>
      <point x="243" y="553" type="line"/>
      <point x="209" y="562" type="line"/>
      <point x="28" y="508" type="line"/>
      <point x="28" y="447" type="line"/>
      <point x="94" y="400" type="line"/>
      <point x="94" y="-168" type="line"/>
      <point x="30" y="-182" type="line"/>
      <point x="30" y="-250" type="line"/>
      <point x="370" y="-250" type="line"/>
      <point x="370" y="-182" type="line"/>
      <point x="266" y="-168" type="line"/>
      <point x="266" y="-86" type="line"/>
      <point x="260" y="-6" type="line"/>
      <point x="262" y="-6"/>
      <point x="301" y="-12"/>
      <point x="317" y="-12" type="curve" smooth="yes"/>
      <point x="488" y="-12"/>
      <point x="623" y="122"/>
      <point x="623" y="291" type="curve" smooth="yes"/>
      <point x="623" y="454"/>
      <point x="553" y="562"/>
      <point x="401" y="562" type="curve" smooth="yes"/>
    </contour>
    <contour>
      <point x="417" y="473"/>
      <point x="453" y="375"/>
      <point x="453" y="263" type="curve" smooth="yes"/>
      <point x="453" y="170"/>
      <point x="422" y="74"/>
      <point x="349" y="74" type="curve" smooth="yes"/>
      <point x="323" y="74"/>
      <point x="277" y="83"/>
      <point x="266" y="108" type="curve"/>
      <point x="266" y="439" type="line"/>
      <point x="276" y="454"/>
      <point x="306" y="473"/>
      <point x="331" y="473" type="curve" smooth="yes"/>
    </contour>
  </outline>
</glyph>
<glyph name="q" format="1">
  <advance width="652"/>
  <unicode hex="0071"/>
  <outline>
    <contour>
      <point x="179" y="562"/>
      <point x="36" y="442"/>
      <point x="36" y="270" type="curve"/>
      <point x="36" y="95"/>
      <point x="117" y="-12"/>
      <point x="284" y="-12" type="curve"/>
      <point x="331" y="-12"/>
      <point x="382" y="1"/>
      <point x="418" y="37" type="curve" smooth="yes"/>
      <point x="412" y="-23" type="line" smooth="yes"/>
      <point x="412" y="-174" type="line" smooth="yes"/>
      <point x="319" y="-185" type="line" smooth="yes"/>
      <point x="319" y="-250" type="line" smooth="yes"/>
      <point x="649" y="-250" type="line" smooth="yes"/>
      <point x="649" y="-185" type="line" smooth="yes"/>
      <point x="585" y="-173" type="line" smooth="yes"/>
      <point x="585" y="551" type="line" smooth="yes"/>
      <point x="560" y="562" type="line" smooth="yes"/>
      <point x="492" y="531" type="line" smooth="yes"/>
      <point x="460" y="553"/>
      <point x="404" y="562"/>
      <point x="359" y="562" type="curve"/>
    </contour>
    <contour>
      <point x="373" y="488"/>
      <point x="401" y="480"/>
      <point x="412" y="461" type="curve" smooth="yes"/>
      <point x="412" y="106" type="line" smooth="yes"/>
      <point x="396" y="93"/>
      <point x="371" y="86"/>
      <point x="340" y="86" type="curve"/>
      <point x="245" y="86"/>
      <point x="212" y="183"/>
      <point x="216" y="294" type="curve"/>
      <point x="218" y="413"/>
      <point x="249" y="488"/>
      <point x="355" y="488" type="curve"/>
    </contour>
  </outline>
</glyph>
<glyph name="r" format="1">
  <advance width="472"/>
  <unicode hex="0072"/>
  <outline>
    <contour>
      <point x="48" y="0" type="line"/>
      <point x="395" y="0" type="line"/>
      <point x="395" y="66" type="line"/>
      <point x="281" y="83" type="line"/>
      <point x="281" y="407" type="line"/>
      <point x="293" y="415"/>
      <point x="327" y="425"/>
      <point x="368" y="425" type="curve" smooth="yes"/>
      <point x="387" y="425"/>
      <point x="435" y="418"/>
      <point x="451" y="402" type="curve"/>
      <point x="451" y="556" type="line"/>
      <point x="443" y="560"/>
      <point x="421" y="562"/>
      <point x="398" y="562" type="curve" smooth="yes"/>
      <point x="347" y="562"/>
      <point x="272" y="515"/>
      <point x="258" y="458" type="curve"/>
      <point x="258" y="553" type="line"/>
      <point x="223" y="562" type="line"/>
      <point x="42" y="508" type="line"/>
      <point x="42" y="447" type="line"/>
      <point x="108" y="400" type="line"/>
      <point x="108" y="79" type="line"/>
      <point x="48" y="66" type="line"/>
    </contour>
  </outline>
</glyph>
<glyph name="s" format="1">
  <advance width="535"/>
  <unicode hex="0073"/>
  <outline>
    <contour>
      <point x="49" y="32" type="line"/>
      <point x="98" y="4"/>
      <point x="182" y="-12"/>
      <point x="245" y="-12" type="curve" smooth="yes"/>
      <point x="384" y="-12"/>
      <point x="506" y="35"/>
      <point x="506" y="164" type="curve" smooth="yes"/>
      <point x="506" y="254"/>
      <point x="438" y="295"/>
      <point x="348" y="336" type="curve" smooth="yes"/>
      <point x="261" y="376"/>
      <point x="211" y="401"/>
      <point x="211" y="455" type="curve" smooth="yes"/>
      <point x="211" y="483"/>
      <point x="243" y="500"/>
      <point x="283" y="500" type="curve" smooth="yes"/>
      <point x="312" y="500"/>
      <point x="338" y="481"/>
      <point x="355" y="461" type="curve"/>
      <point x="382" y="400" type="line"/>
      <point x="468" y="400" type="line"/>
      <point x="468" y="534" type="line"/>
      <point x="426" y="551"/>
      <point x="334" y="564"/>
      <point x="274" y="562" type="curve" smooth="yes"/>
      <point x="166" y="562"/>
      <point x="43" y="512"/>
      <point x="40" y="405" type="curve" smooth="yes"/>
      <point x="40" y="309"/>
      <point x="111" y="256"/>
      <point x="214" y="208" type="curve" smooth="yes"/>
      <point x="276" y="180"/>
      <point x="339" y="152"/>
      <point x="341" y="115" type="curve" smooth="yes"/>
      <point x="341" y="76"/>
      <point x="311" y="51"/>
      <point x="252" y="54" type="curve" smooth="yes"/>
      <point x="211" y="57"/>
      <point x="190" y="77"/>
      <point x="160" y="107" type="curve"/>
      <point x="129" y="161" type="line"/>
      <point x="49" y="161" type="line"/>
    </contour>
  </outline>
</glyph>
<glyph name="t" format="1">
  <advance width="451"/>
  <unicode hex="0074"/>
  <outline>
    <contour>
      <point x="167" y="677" type="line"/>
      <point x="148" y="618"/>
      <point x="133" y="580"/>
      <point x="108" y="554" type="curve" smooth="yes"/>
      <point x="87" y="533"/>
      <point x="58" y="521"/>
      <point x="14" y="514" type="curve"/>
      <point x="14" y="459" type="line"/>
      <point x="88" y="459" type="line"/>
      <point x="88" y="362"/>
      <point x="88" y="265"/>
      <point x="88" y="168" type="curve" smooth="yes"/>
      <point x="88" y="46"/>
      <point x="117" y="-12"/>
      <point x="229" y="-12" type="curve" smooth="yes"/>
      <point x="298" y="-12"/>
      <point x="385" y="7"/>
      <point x="427" y="49" type="curve"/>
      <point x="401" y="104" type="line"/>
      <point x="384" y="95"/>
      <point x="339" y="87"/>
      <point x="316" y="87" type="curve" smooth="yes"/>
      <point x="256" y="87"/>
      <point x="256" y="168"/>
      <point x="256" y="271" type="curve" smooth="yes"/>
      <point x="256" y="459" type="line"/>
      <point x="416" y="459" type="line"/>
      <point x="416" y="546" type="line"/>
      <point x="249" y="546" type="line"/>
      <point x="249" y="677" type="line"/>
    </contour>
  </outline>
</glyph>
<glyph name="v" format="1">
  <advance width="627"/>
  <unicode hex="0076"/>
  <outline>
	<contour>
	  <point x="246" y="-2" type="line"/>
	  <point x="387" y="-2" type="line"/>
	  <point x="568" y="442" type="line"/>
	  <point x="625" y="459" type="line"/>
	  <point x="625" y="546" type="line"/>
	  <point x="379" y="546" type="line"/>
	  <point x="379" y="459" type="line"/>
	  <point x="438" y="446" type="line"/>
	  <point x="367" y="216" type="line"/>
	  <point x="346" y="122" type="line"/>
	  <point x="320" y="214" type="line"/>
	  <point x="240" y="445" type="line"/>
	  <point x="284" y="459" type="line"/>
	  <point x="284" y="546" type="line"/>
	  <point x="2" y="546" type="line"/>
	  <point x="2" y="460" type="line"/>
	  <point x="52" y="447" type="line"/>
	</contour>
  </outline>
</glyph>
<glyph name="w" format="1">
  <advance width="899"/>
  <unicode hex="0077"/>
  <outline>
    <contour>
      <point x="197" y="-2" type="line"/>
      <point x="354" y="-2" type="line"/>
      <point x="421" y="248" type="line"/>
      <point x="439" y="353" type="line"/>
      <point x="466" y="248" type="line"/>
      <point x="541" y="-2" type="line"/>
      <point x="704" y="-2" type="line"/>
      <point x="830" y="443" type="line"/>
      <point x="898" y="459" type="line"/>
      <point x="898" y="546" type="line"/>
      <point x="654" y="546" type="line"/>
      <point x="654" y="459" type="line"/>
      <point x="719" y="444" type="line"/>
      <point x="666" y="205" type="line"/>
      <point x="652" y="136" type="line"/>
      <point x="637" y="205" type="line"/>
      <point x="549" y="546" type="line"/>
      <point x="407" y="546" type="line"/>
      <point x="314" y="205" type="line"/>
      <point x="303" y="142" type="line"/>
      <point x="287" y="219" type="line"/>
      <point x="231" y="446" type="line"/>
      <point x="279" y="459" type="line"/>
      <point x="279" y="546" type="line"/>
      <point x="1" y="546" type="line"/>
      <point x="1" y="459" type="line"/>
      <point x="58" y="446" type="line"/>
    </contour>
  </outline>
</glyph>
<glyph name="x" format="1">
  <advance width="634"/>
  <unicode hex="0078"/>
  <outline>
    <contour>
      <point x="0" y="0" type="line"/>
      <point x="284" y="0" type="line"/>
      <point x="284" y="66" type="line"/>
      <point x="213" y="84" type="line"/>
      <point x="278" y="180" type="line"/>
      <point x="285" y="197" type="line"/>
      <point x="344" y="120" type="line"/>
      <point x="373" y="81" type="line"/>
      <point x="332" y="66" type="line"/>
      <point x="332" y="0" type="line"/>
      <point x="634" y="0" type="line"/>
      <point x="634" y="66" type="line"/>
      <point x="571" y="82" type="line"/>
      <point x="400" y="289" type="line"/>
      <point x="543" y="444" type="line"/>
      <point x="633" y="459" type="line"/>
      <point x="633" y="546" type="line"/>
      <point x="362" y="546" type="line"/>
      <point x="362" y="459" type="line"/>
      <point x="424" y="450" type="line"/>
      <point x="355" y="361" type="line"/>
      <point x="343" y="341" type="line"/>
      <point x="283" y="420" type="line"/>
      <point x="265" y="447" type="line"/>
      <point x="311" y="459" type="line"/>
      <point x="311" y="546" type="line"/>
      <point x="4" y="546" type="line"/>
      <point x="4" y="459" type="line"/>
      <point x="67" y="447" type="line"/>
      <point x="231" y="261" type="line"/>
      <point x="80" y="83" type="line"/>
      <point x="0" y="66" type="line"/>
    </contour>
  </outline>
</glyph>
<glyph name="y" format="1">
  <advance width="602"/>
  <unicode hex="0079"/>
  <outline>
    <contour>
      <point x="71" y="-257" type="line"/>
      <point x="80" y="-263"/>
      <point x="123" y="-265"/>
      <point x="149" y="-265" type="curve" smooth="yes"/>
      <point x="204" y="-265"/>
      <point x="245" y="-244"/>
      <point x="280" y="-203" type="curve" smooth="yes"/>
      <point x="315" y="-163"/>
      <point x="343" y="-104"/>
      <point x="372" y="-27" type="curve" smooth="yes"/>
      <point x="373" y="-27"/>
      <point x="563" y="448"/>
      <point x="563" y="449" type="curve"/>
      <point x="611" y="459" type="line"/>
      <point x="611" y="546" type="line"/>
      <point x="363" y="546" type="line"/>
      <point x="363" y="459" type="line"/>
      <point x="430" y="448" type="line"/>
      <point x="351" y="186" type="line"/>
      <point x="336" y="136" type="line"/>
      <point x="329" y="186" type="line"/>
      <point x="232" y="447" type="line"/>
      <point x="288" y="459" type="line"/>
      <point x="288" y="546" type="line"/>
      <point x="2" y="546" type="line"/>
      <point x="2" y="459" type="line"/>
      <point x="45" y="446" type="line"/>
      <point x="237" y="0" type="line"/>
      <point x="265" y="0" type="line"/>
      <point x="247" y="-74"/>
      <point x="208" y="-135"/>
      <point x="144" y="-135" type="curve" smooth="yes"/>
      <point x="111" y="-137"/>
      <point x="89" y="-131"/>
      <point x="72" y="-127" type="curve"/>
    </contour>
  </outline>
</glyph>
<glyph name="z" format="1">
  <advance width="562"/>
  <unicode hex="007A"/>
  <outline>
	<contour>
	  <point x="47" y="546" type="line"/>
	  <point x="47" y="364" type="line"/>
	  <point x="136" y="364" type="line"/>
	  <point x="168" y="463" type="line"/>
	  <point x="336" y="473" type="line"/>
	  <point x="295" y="429" type="line"/>
	  <point x="82" y="139" type="line"/>
	  <point x="25" y="49" type="line"/>
	  <point x="48" y="0" type="line"/>
	  <point x="536" y="0" type="line"/>
	  <point x="543" y="175" type="line"/>
	  <point x="453" y="175" type="line"/>
	  <point x="424" y="91" type="line"/>
	  <point x="247" y="74" type="line"/>
	  <point x="307" y="148" type="line"/>
	  <point x="539" y="486" type="line"/>
	  <point x="514" y="546" type="line"/>
	</contour>
  </outline>
</glyph>
<glyph name="braceleft" format="1">
  <advance width="553"/>
  <unicode hex="007B"/>
  <outline>
	<contour>
	  <point x="126" y="5" type="line" smooth="yes"/>
	  <point x="126" y="-91"/>
	  <point x="176" y="-126"/>
	  <point x="271" y="-126" type="curve" smooth="yes"/>
	  <point x="318" y="-126"/>
	  <point x="354" y="-114"/>
	  <point x="430" y="-91" type="curve"/>
	  <point x="430" y="-29" type="line"/>
	  <point x="280" y="-29" type="line"/>
	  <point x="280" y="281" type="line" smooth="yes"/>
	  <point x="280" y="334"/>
	  <point x="237" y="354"/>
	  <point x="175" y="379" type="curve"/>
	  <point x="235" y="405"/>
	  <point x="280" y="417"/>
	  <point x="280" y="474" type="curve" smooth="yes"/>
	  <point x="280" y="785" type="line"/>
	  <point x="430" y="785" type="line"/>
	  <point x="430" y="846" type="line"/>
	  <point x="353" y="866"/>
	  <point x="317" y="882"/>
	  <point x="261" y="882" type="curve" smooth="yes"/>
	  <point x="176" y="882"/>
	  <point x="126" y="849"/>
	  <point x="126" y="761" type="curve" smooth="yes"/>
	  <point x="126" y="488" type="line" smooth="yes"/>
	  <point x="126" y="453"/>
	  <point x="91" y="441"/>
	  <point x="40" y="437" type="curve"/>
	  <point x="40" y="329" type="line"/>
	  <point x="82" y="325"/>
	  <point x="126" y="309"/>
	  <point x="126" y="273" type="curve" smooth="yes"/>
	</contour>
  </outline>
</glyph>
<glyph name="bar" format="1">
  <advance width="531"/>
  <unicode hex="007C"/>
  <outline>
    <contour>
      <point x="179" y="-91" type="line"/>
      <point x="352" y="-91" type="line"/>
      <point x="352" y="869" type="line"/>
      <point x="179" y="869" type="line"/>
    </contour>
  </outline>
</glyph>
<glyph name="braceright" format="1">
  <advance width="553"/>
  <unicode hex="007D"/>
  <outline>
	<contour>
	  <point x="121" y="-29" type="line"/>
	  <point x="120" y="-91" type="line"/>
	  <point x="189" y="-112"/>
	  <point x="238" y="-126"/>
	  <point x="280" y="-126" type="curve" smooth="yes"/>
	  <point x="372" y="-126"/>
	  <point x="424" y="-93"/>
	  <point x="424" y="5" type="curve" smooth="yes"/>
	  <point x="424" y="273" type="line" smooth="yes"/>
	  <point x="424" y="305"/>
	  <point x="464" y="325"/>
	  <point x="510" y="329" type="curve"/>
	  <point x="510" y="437" type="line"/>
	  <point x="463" y="441"/>
	  <point x="424" y="452"/>
	  <point x="424" y="488" type="curve" smooth="yes"/>
	  <point x="424" y="761" type="line" smooth="yes"/>
	  <point x="424" y="848"/>
	  <point x="378" y="882"/>
	  <point x="289" y="882" type="curve" smooth="yes"/>
	  <point x="250" y="882"/>
	  <point x="184" y="865"/>
	  <point x="120" y="846" type="curve"/>
	  <point x="121" y="785" type="line"/>
	  <point x="271" y="785" type="line"/>
	  <point x="271" y="474" type="line" smooth="yes"/>
	  <point x="271" y="420"/>
	  <point x="309" y="405"/>
	  <point x="375" y="379" type="curve"/>
	  <point x="311" y="354"/>
	  <point x="271" y="334"/>
	  <point x="271" y="281" type="curve" smooth="yes"/>
	  <point x="271" y="-29" type="line"/>
	</contour>
  </outline>
</glyph>
<glyph name="asciitilde" format="1">
  <advance width="643"/>
  <unicode hex="007E"/>
  <outline>
    <contour>
      <point x="119" y="355" type="line"/>
      <point x="152" y="382"/>
      <point x="180" y="403"/>
      <point x="225" y="403" type="curve" smooth="yes"/>
      <point x="307" y="403"/>
      <point x="319" y="334"/>
      <point x="405" y="334" type="curve" smooth="yes"/>
      <point x="472" y="334"/>
      <point x="561" y="396"/>
      <point x="572" y="455" type="curve"/>
      <point x="524" y="516" type="line"/>
      <point x="489" y="488"/>
      <point x="455" y="467"/>
      <point x="417" y="467" type="curve" smooth="yes"/>
      <point x="352" y="467"/>
      <point x="320" y="536"/>
      <point x="240" y="536" type="curve" smooth="yes"/>
      <point x="178" y="536"/>
      <point x="79" y="469"/>
      <point x="71" y="416" type="curve"/>
    </contour>
  </outline>
</glyph>
<glyph name="exclamdown" format="1">
  <advance width="397"/>
  <unicode hex="00A1"/>
  <outline>
	<contour>
	  <point x="156" y="403" type="line"/>
	  <point x="82" y="-217" type="line"/>
	  <point x="315" y="-217" type="line"/>
	  <point x="245" y="403" type="line"/>
	</contour>
	<contour>
	  <point x="159" y="703"/>
	  <point x="98" y="653"/>
	  <point x="98" y="592" type="curve" smooth="yes"/>
	  <point x="98" y="539"/>
	  <point x="143" y="501"/>
	  <point x="197" y="501" type="curve" smooth="yes"/>
	  <point x="256" y="501"/>
	  <point x="315" y="544"/>
	  <point x="315" y="608" type="curve" smooth="yes"/>
	  <point x="315" y="666"/>
	  <point x="279" y="703"/>
	  <point x="214" y="703" type="curve" smooth="yes"/>
	</contour>
  </outline>
</glyph>
<glyph name="cent" format="1">
  <advance width="593"/>
  <unicode hex="00A2"/>
  <outline>
	<contour>
	  <point x="245" y="-106" type="line"/>
	  <point x="340" y="-106" type="line"/>
	  <point x="345" y="-13" type="line"/>
	  <point x="431" y="-8"/>
	  <point x="501" y="16"/>
	  <point x="548" y="56" type="curve"/>
	  <point x="522" y="117" type="line"/>
	  <point x="491" y="94"/>
	  <point x="430" y="83"/>
	  <point x="385" y="83" type="curve" smooth="yes"/>
	  <point x="274" y="83"/>
	  <point x="221" y="177"/>
	  <point x="226" y="305" type="curve" smooth="yes"/>
	  <point x="229" y="399"/>
	  <point x="260" y="486"/>
	  <point x="337" y="486" type="curve" smooth="yes"/>
	  <point x="358" y="486"/>
	  <point x="384" y="485"/>
	  <point x="402" y="474" type="curve"/>
	  <point x="440" y="382" type="line"/>
	  <point x="530" y="382" type="line"/>
	  <point x="530" y="537" type="line"/>
	  <point x="500" y="551"/>
	  <point x="447" y="558"/>
	  <point x="406" y="561" type="curve"/>
	  <point x="412" y="665" type="line"/>
	  <point x="317" y="665" type="line"/>
	  <point x="311" y="559" type="line"/>
	  <point x="152" y="538"/>
	  <point x="46" y="423"/>
	  <point x="46" y="256" type="curve"/>
	  <point x="46" y="119"/>
	  <point x="121" y="17"/>
	  <point x="251" y="-7" type="curve"/>
	</contour>
  </outline>
</glyph>
<glyph name="sterling" format="1">
  <advance width="756"/>
  <unicode hex="00A3"/>
  <outline>
	<contour>
	  <point x="287" y="766"/>
	  <point x="173" y="626"/>
	  <point x="173" y="458" type="curve" smooth="yes"/>
	  <point x="173" y="435" type="line"/>
	  <point x="96" y="435" type="line"/>
	  <point x="96" y="337" type="line"/>
	  <point x="173" y="337" type="line"/>
	  <point x="173" y="220" type="line" smooth="yes"/>
	  <point x="173" y="182"/>
	  <point x="172" y="142"/>
	  <point x="159" y="116" type="curve"/>
	  <point x="86" y="116"/>
	  <point x="1" y="90"/>
	  <point x="1" y="35" type="curve" smooth="yes"/>
	  <point x="1" y="0"/>
	  <point x="44" y="-16"/>
	  <point x="86" y="-14" type="curve" smooth="yes"/>
	  <point x="145" y="-13"/>
	  <point x="189" y="8"/>
	  <point x="217" y="38" type="curve"/>
	  <point x="273" y="38"/>
	  <point x="331" y="-19"/>
	  <point x="454" y="-19" type="curve" smooth="yes"/>
	  <point x="584" y="-19"/>
	  <point x="688" y="56"/>
	  <point x="688" y="178" type="curve" smooth="yes"/>
	  <point x="688" y="254"/>
	  <point x="631" y="329"/>
	  <point x="560" y="342" type="curve"/>
	  <point x="493" y="211" type="line"/>
	  <point x="513" y="203"/>
	  <point x="540" y="174"/>
	  <point x="540" y="146" type="curve" smooth="yes"/>
	  <point x="540" y="106"/>
	  <point x="486" y="74"/>
	  <point x="433" y="74" type="curve" smooth="yes"/>
	  <point x="373" y="74"/>
	  <point x="325" y="98"/>
	  <point x="287" y="100" type="curve"/>
	  <point x="336" y="153"/>
	  <point x="347" y="224"/>
	  <point x="347" y="310" type="curve" smooth="yes"/>
	  <point x="347" y="337" type="line"/>
	  <point x="469" y="337" type="line"/>
	  <point x="469" y="435" type="line"/>
	  <point x="347" y="435" type="line"/>
	  <point x="347" y="484" type="line" smooth="yes"/>
	  <point x="347" y="591"/>
	  <point x="344" y="685"/>
	  <point x="401" y="685" type="curve" smooth="yes"/>
	  <point x="456" y="685"/>
	  <point x="505" y="636"/>
	  <point x="536" y="575" type="curve"/>
	  <point x="612" y="713" type="line"/>
	  <point x="567" y="751"/>
	  <point x="509" y="766"/>
	  <point x="454" y="766" type="curve" smooth="yes"/>
	</contour>
  </outline>
</glyph>
<glyph name="currency" format="1">
  <advance width="728"/>
  <unicode hex="00A4"/>
  <outline>
    <contour>
      <point x="76" y="550" type="line"/>
      <point x="179" y="445" type="line"/>
      <point x="160" y="413"/>
      <point x="149" y="376"/>
      <point x="149" y="336" type="curve" smooth="yes"/>
      <point x="149" y="296"/>
      <point x="159" y="260"/>
      <point x="178" y="229" type="curve"/>
      <point x="73" y="124" type="line"/>
      <point x="151" y="47" type="line"/>
      <point x="257" y="153" type="line"/>
      <point x="288" y="136"/>
      <point x="322" y="127"/>
      <point x="359" y="127" type="curve" smooth="yes"/>
      <point x="397" y="127"/>
      <point x="433" y="137"/>
      <point x="464" y="155" type="curve"/>
      <point x="570" y="48" type="line"/>
      <point x="647" y="125" type="line"/>
      <point x="542" y="232" type="line"/>
      <point x="560" y="263"/>
      <point x="569" y="297"/>
      <point x="569" y="336" type="curve" smooth="yes"/>
      <point x="569" y="375"/>
      <point x="559" y="411"/>
      <point x="540" y="442" type="curve"/>
      <point x="655" y="555" type="line"/>
      <point x="578" y="633" type="line"/>
      <point x="460" y="519" type="line"/>
      <point x="430" y="535"/>
      <point x="396" y="545"/>
      <point x="359" y="545" type="curve" smooth="yes"/>
      <point x="323" y="545"/>
      <point x="290" y="537"/>
      <point x="259" y="520" type="curve"/>
      <point x="152" y="628" type="line"/>
    </contour>
    <contour>
      <point x="408" y="428"/>
      <point x="448" y="384"/>
      <point x="448" y="336" type="curve" smooth="yes"/>
      <point x="448" y="288"/>
      <point x="407" y="243"/>
      <point x="360" y="243" type="curve" smooth="yes"/>
      <point x="312" y="243"/>
      <point x="270" y="288"/>
      <point x="270" y="336" type="curve" smooth="yes"/>
      <point x="270" y="384"/>
      <point x="311" y="428"/>
      <point x="360" y="428" type="curve" smooth="yes"/>
    </contour>
  </outline>
</glyph>
<glyph name="yen" format="1">
  <advance width="745"/>
  <unicode hex="00A5"/>
  <outline>
	<contour>
	  <point x="159" y="0" type="line"/>
	  <point x="576" y="0" type="line"/>
	  <point x="576" y="68" type="line"/>
	  <point x="450" y="91" type="line"/>
	  <point x="450" y="171" type="line"/>
	  <point x="633" y="171" type="line"/>
	  <point x="633" y="252" type="line"/>
	  <point x="450" y="252" type="line"/>
	  <point x="450" y="342" type="line"/>
	  <point x="453" y="347" type="line"/>
	  <point x="633" y="347" type="line"/>
	  <point x="633" y="429" type="line"/>
	  <point x="497" y="429" type="line"/>
	  <point x="621" y="659" type="line"/>
	  <point x="689" y="678" type="line"/>
	  <point x="689" y="758" type="line"/>
	  <point x="415" y="758" type="line"/>
	  <point x="415" y="678" type="line"/>
	  <point x="491" y="667" type="line"/>
	  <point x="475" y="628"/>
	  <point x="427" y="519"/>
	  <point x="417" y="499" type="curve" smooth="yes"/>
	  <point x="386" y="429" type="line"/>
	  <point x="379" y="429" type="line"/>
	  <point x="351" y="495" type="line"/>
	  <point x="270" y="670" type="line"/>
	  <point x="321" y="680" type="line"/>
	  <point x="321" y="758" type="line"/>
	  <point x="14" y="758" type="line"/>
	  <point x="14" y="678" type="line"/>
	  <point x="70" y="668" type="line"/>
	  <point x="211" y="429" type="line"/>
	  <point x="100" y="429" type="line"/>
	  <point x="100" y="347" type="line"/>
	  <point x="259" y="347" type="line"/>
	  <point x="276" y="319" type="line"/>
	  <point x="276" y="252" type="line"/>
	  <point x="100" y="252" type="line"/>
	  <point x="100" y="171" type="line"/>
	  <point x="276" y="171" type="line"/>
	  <point x="276" y="90" type="line"/>
	  <point x="159" y="68" type="line"/>
	</contour>
  </outline>
</glyph>
<glyph name="brokenbar" format="1">
  <advance width="531"/>
  <unicode hex="00A6"/>
  <outline>
    <contour>
      <point x="179" y="443" type="line"/>
      <point x="352" y="443" type="line"/>
      <point x="352" y="869" type="line"/>
      <point x="179" y="869" type="line"/>
    </contour>
    <contour>
      <point x="179" y="-90" type="line"/>
      <point x="352" y="-90" type="line"/>
      <point x="352" y="336" type="line"/>
      <point x="179" y="336" type="line"/>
    </contour>
  </outline>
</glyph>
<glyph name="section" format="1">
  <advance width="661"/>
  <unicode hex="00A7"/>
  <outline>
	<contour>
	  <point x="210" y="865"/>
	  <point x="77" y="787"/>
	  <point x="77" y="659" type="curve" smooth="yes"/>
	  <point x="77" y="603"/>
	  <point x="106" y="562"/>
	  <point x="149" y="529" type="curve"/>
	  <point x="107" y="497"/>
	  <point x="64" y="426"/>
	  <point x="64" y="369" type="curve" smooth="yes"/>
	  <point x="64" y="159"/>
	  <point x="428" y="166"/>
	  <point x="428" y="25" type="curve" smooth="yes"/>
	  <point x="428" y="-26"/>
	  <point x="377" y="-47"/>
	  <point x="318" y="-47" type="curve" smooth="yes"/>
	  <point x="275" y="-47"/>
	  <point x="227" y="-36"/>
	  <point x="208" y="3" type="curve" smooth="yes"/>
	  <point x="160" y="104" type="line"/>
	  <point x="90" y="104" type="line"/>
	  <point x="90" y="-92" type="line"/>
	  <point x="134" y="-115"/>
	  <point x="253" y="-129"/>
	  <point x="327" y="-129" type="curve" smooth="yes"/>
	  <point x="487" y="-129"/>
	  <point x="596" y="-74"/>
	  <point x="596" y="74" type="curve" smooth="yes"/>
	  <point x="596" y="127"/>
	  <point x="565" y="170"/>
	  <point x="517" y="203" type="curve"/>
	  <point x="557" y="241"/>
	  <point x="582" y="303"/>
	  <point x="582" y="360" type="curve" smooth="yes"/>
	  <point x="582" y="589"/>
	  <point x="242" y="560"/>
	  <point x="242" y="693" type="curve" smooth="yes"/>
	  <point x="242" y="747"/>
	  <point x="284" y="790"/>
	  <point x="334" y="790" type="curve" smooth="yes"/>
	  <point x="377" y="790"/>
	  <point x="397" y="777"/>
	  <point x="407" y="765" type="curve"/>
	  <point x="466" y="682" type="line"/>
	  <point x="536" y="682" type="line"/>
	  <point x="536" y="832" type="line"/>
	  <point x="488" y="856"/>
	  <point x="410" y="865"/>
	  <point x="348" y="865" type="curve" smooth="yes"/>
	</contour>
	<contour>
	  <point x="367" y="410"/>
	  <point x="445" y="380"/>
	  <point x="445" y="310" type="curve" smooth="yes"/>
	  <point x="445" y="292"/>
	  <point x="438" y="269"/>
	  <point x="428" y="251" type="curve"/>
	  <point x="341" y="293"/>
	  <point x="208" y="330"/>
	  <point x="208" y="404" type="curve" smooth="yes"/>
	  <point x="208" y="433"/>
	  <point x="218" y="460"/>
	  <point x="229" y="479" type="curve"/>
	</contour>
  </outline>
</glyph>
<glyph name="dieresis" format="1">
  <advance width="519"/>
  <unicode hex="00A8"/>
  <outline>
	<contour>
	  <point x="91" y="806"/>
	  <point x="37" y="775"/>
	  <point x="37" y="726" type="curve"/>
	  <point x="37" y="683"/>
	  <point x="77" y="658"/>
	  <point x="124" y="658" type="curve"/>
	  <point x="172" y="658"/>
	  <point x="227" y="686"/>
	  <point x="227" y="737" type="curve"/>
	  <point x="227" y="785"/>
	  <point x="188" y="806"/>
	  <point x="137" y="806" type="curve"/>
	</contour>
	<contour>
	  <point x="349" y="806"/>
	  <point x="293" y="776"/>
	  <point x="293" y="727" type="curve"/>
	  <point x="293" y="686"/>
	  <point x="330" y="659"/>
	  <point x="381" y="659" type="curve"/>
	  <point x="430" y="659"/>
	  <point x="481" y="686"/>
	  <point x="481" y="738" type="curve"/>
	  <point x="481" y="783"/>
	  <point x="449" y="806"/>
	  <point x="394" y="806" type="curve"/>
	</contour>
  </outline>
</glyph>
<glyph name="copyright" format="1">
  <advance width="1031"/>
  <unicode hex="00A9"/>
  <outline>
    <contour>
      <point x="277" y="938"/>
      <point x="89" y="759"/>
      <point x="89" y="522" type="curve" smooth="yes"/>
      <point x="89" y="282"/>
      <point x="268" y="107"/>
      <point x="516" y="107" type="curve" smooth="yes"/>
      <point x="749" y="107"/>
      <point x="942" y="292"/>
      <point x="942" y="522" type="curve" smooth="yes"/>
      <point x="942" y="762"/>
      <point x="754" y="938"/>
      <point x="516" y="938" type="curve" smooth="yes"/>
    </contour>
    <contour>
      <point x="398" y="776"/>
      <point x="283" y="667"/>
      <point x="283" y="518" type="curve" smooth="yes"/>
      <point x="283" y="375"/>
      <point x="372" y="286"/>
      <point x="516" y="286" type="curve" smooth="yes"/>
      <point x="575" y="286"/>
      <point x="659" y="314"/>
      <point x="691" y="357" type="curve"/>
      <point x="670" y="419" type="line"/>
      <point x="636" y="402"/>
      <point x="606" y="399"/>
      <point x="563" y="399" type="curve" smooth="yes"/>
      <point x="493" y="399"/>
      <point x="447" y="465"/>
      <point x="447" y="550" type="curve" smooth="yes"/>
      <point x="446" y="640"/>
      <point x="468" y="687"/>
      <point x="517" y="686" type="curve" smooth="yes"/>
      <point x="530" y="686"/>
      <point x="548" y="684"/>
      <point x="555" y="677" type="curve"/>
      <point x="588" y="602" type="line"/>
      <point x="681" y="602" type="line"/>
      <point x="681" y="751" type="line"/>
      <point x="644" y="772"/>
      <point x="610" y="776"/>
      <point x="552" y="776" type="curve" smooth="yes"/>
    </contour>
    <contour>
      <point x="701" y="862"/>
      <point x="851" y="714"/>
      <point x="851" y="522" type="curve" smooth="yes"/>
      <point x="851" y="332"/>
      <point x="702" y="183"/>
      <point x="515" y="183" type="curve" smooth="yes"/>
      <point x="332" y="183"/>
      <point x="180" y="332"/>
      <point x="180" y="522" type="curve" smooth="yes"/>
      <point x="180" y="712"/>
      <point x="326" y="862"/>
      <point x="515" y="862" type="curve" smooth="yes"/>
    </contour>
  </outline>
</glyph>
<glyph name="ordfeminine" format="1">
  <advance width="571"/>
  <unicode hex="00AA"/>
  <outline>
    <contour>
      <point x="244" y="777"/>
      <point x="143" y="762"/>
      <point x="110" y="740" type="curve"/>
      <point x="135" y="667" type="line"/>
      <point x="160" y="683"/>
      <point x="213" y="693"/>
      <point x="248" y="693" type="curve" smooth="yes"/>
      <point x="298" y="693"/>
      <point x="334" y="686"/>
      <point x="334" y="634" type="curve" smooth="yes"/>
      <point x="334" y="625" type="line"/>
      <point x="223" y="625"/>
      <point x="81" y="583"/>
      <point x="81" y="481" type="curve" smooth="yes"/>
      <point x="81" y="407"/>
      <point x="139" y="358"/>
      <point x="212" y="358" type="curve" smooth="yes"/>
      <point x="275" y="358"/>
      <point x="317" y="375"/>
      <point x="342" y="396" type="curve"/>
      <point x="349" y="367"/>
      <point x="368" y="358"/>
      <point x="400" y="358" type="curve" smooth="yes"/>
      <point x="427" y="358"/>
      <point x="488" y="371"/>
      <point x="524" y="381" type="curve"/>
      <point x="524" y="433" type="line"/>
      <point x="484" y="433" type="line"/>
      <point x="485" y="633" type="line" smooth="yes"/>
      <point x="485" y="745"/>
      <point x="417" y="777"/>
      <point x="300" y="777" type="curve" smooth="yes"/>
    </contour>
    <contour>
      <point x="333" y="446" type="line"/>
      <point x="314" y="441"/>
      <point x="299" y="438"/>
      <point x="286" y="438" type="curve" smooth="yes"/>
      <point x="251" y="438"/>
      <point x="224" y="461"/>
      <point x="224" y="495" type="curve" smooth="yes"/>
      <point x="224" y="541"/>
      <point x="281" y="563"/>
      <point x="333" y="568" type="curve"/>
    </contour>
  </outline>
</glyph>
<glyph name="guillemetleft" format="1">
  <advance width="1052"/>
  <unicode hex="00AB"/>
  <outline>
    <contour>
      <point x="538" y="221" type="line"/>
      <point x="898" y="44" type="line"/>
      <point x="940" y="116" type="line"/>
      <point x="718" y="300" type="line"/>
      <point x="940" y="492" type="line"/>
      <point x="898" y="559" type="line"/>
      <point x="538" y="370" type="line"/>
    </contour>
    <contour>
      <point x="112" y="221" type="line"/>
      <point x="473" y="44" type="line"/>
      <point x="515" y="116" type="line"/>
      <point x="292" y="300" type="line"/>
      <point x="515" y="492" type="line"/>
      <point x="473" y="559" type="line"/>
      <point x="112" y="370" type="line"/>
    </contour>
  </outline>
</glyph>
<glyph name="logicalnot" format="1">
  <advance width="680"/>
  <unicode hex="00AC"/>
  <outline>
	<contour>
	  <point x="89" y="364" type="line"/>
	  <point x="437" y="364" type="line"/>
	  <point x="437" y="179" type="line"/>
	  <point x="590" y="179" type="line"/>
	  <point x="590" y="468" type="line"/>
	  <point x="89" y="468" type="line"/>
	</contour>
  </outline>
</glyph>
<glyph name="registered" format="1">
  <advance width="1031"/>
  <unicode hex="00AE"/>
  <outline>
    <contour>
      <point x="277" y="938"/>
      <point x="89" y="759"/>
      <point x="89" y="522" type="curve" smooth="yes"/>
      <point x="89" y="282"/>
      <point x="268" y="107"/>
      <point x="516" y="107" type="curve" smooth="yes"/>
      <point x="748" y="107"/>
      <point x="942" y="291"/>
      <point x="942" y="522" type="curve" smooth="yes"/>
      <point x="942" y="762"/>
      <point x="754" y="938"/>
      <point x="516" y="938" type="curve" smooth="yes"/>
    </contour>
    <contour>
      <point x="701" y="862"/>
      <point x="851" y="715"/>
      <point x="851" y="522" type="curve" smooth="yes"/>
      <point x="851" y="333"/>
      <point x="703" y="183"/>
      <point x="515" y="183" type="curve" smooth="yes"/>
      <point x="332" y="183"/>
      <point x="180" y="332"/>
      <point x="180" y="522" type="curve" smooth="yes"/>
      <point x="180" y="712"/>
      <point x="326" y="862"/>
      <point x="515" y="862" type="curve" smooth="yes"/>
    </contour>
    <contour>
      <point x="518" y="771"/>
      <point x="418" y="769"/>
      <point x="401" y="769" type="curve" smooth="yes"/>
      <point x="292" y="769" type="line"/>
      <point x="292" y="703" type="line"/>
      <point x="331" y="690" type="line"/>
      <point x="331" y="377" type="line"/>
      <point x="292" y="358" type="line"/>
      <point x="292" y="299" type="line"/>
      <point x="522" y="299" type="line"/>
      <point x="522" y="358" type="line"/>
      <point x="487" y="369" type="line"/>
      <point x="487" y="480" type="line"/>
      <point x="527" y="469"/>
      <point x="551" y="427"/>
      <point x="565" y="381" type="curve" smooth="yes"/>
      <point x="582" y="333"/>
      <point x="591" y="301"/>
      <point x="613" y="301" type="curve" smooth="yes"/>
      <point x="759" y="301" type="line"/>
      <point x="759" y="364" type="line"/>
      <point x="693" y="368"/>
      <point x="710" y="500"/>
      <point x="608" y="506" type="curve"/>
      <point x="686" y="506"/>
      <point x="734" y="566"/>
      <point x="734" y="646" type="curve" smooth="yes"/>
      <point x="732" y="735"/>
      <point x="665" y="771"/>
      <point x="538" y="771" type="curve" smooth="yes"/>
    </contour>
    <contour>
      <point x="555" y="693"/>
      <point x="577" y="680"/>
      <point x="577" y="625" type="curve" smooth="yes"/>
      <point x="577" y="588"/>
      <point x="562" y="553"/>
      <point x="522" y="553" type="curve" smooth="yes"/>
      <point x="505" y="553"/>
      <point x="499" y="553"/>
      <point x="487" y="556" type="curve"/>
      <point x="487" y="689" type="line"/>
      <point x="487" y="692"/>
      <point x="491" y="693"/>
      <point x="495" y="693" type="curve" smooth="yes"/>
    </contour>
  </outline>
</glyph>
<glyph name="macron" format="1">
  <advance width="528"/>
  <unicode hex="00AF"/>
  <outline>
    <contour>
      <point x="126" y="656" type="line"/>
      <point x="402" y="656" type="line"/>
      <point x="402" y="773" type="line"/>
      <point x="126" y="773" type="line"/>
    </contour>
  </outline>
</glyph>
<glyph name="degree" format="1">
  <advance width="445"/>
  <unicode hex="00B0"/>
  <outline>
	<contour>
	  <point x="130" y="778"/>
	  <point x="48" y="705"/>
	  <point x="48" y="607" type="curve" smooth="yes"/>
	  <point x="48" y="513"/>
	  <point x="129" y="436"/>
	  <point x="222" y="436" type="curve" smooth="yes"/>
	  <point x="318" y="436"/>
	  <point x="397" y="514"/>
	  <point x="397" y="607" type="curve" smooth="yes"/>
	  <point x="397" y="698"/>
	  <point x="321" y="778"/>
	  <point x="222" y="778" type="curve" smooth="yes"/>
	</contour>
	<contour>
	  <point x="268" y="691"/>
	  <point x="300" y="654"/>
	  <point x="300" y="607" type="curve" smooth="yes"/>
	  <point x="300" y="560"/>
	  <point x="267" y="525"/>
	  <point x="222" y="525" type="curve" smooth="yes"/>
	  <point x="175" y="525"/>
	  <point x="143" y="560"/>
	  <point x="143" y="607" type="curve" smooth="yes"/>
	  <point x="143" y="652"/>
	  <point x="172" y="691"/>
	  <point x="222" y="691" type="curve"/>
	</contour>
  </outline>
</glyph>
<glyph name="plusminus" format="1">
  <advance width="648"/>
  <unicode hex="00B1"/>
  <outline>
    <contour>
      <point x="262" y="167" type="line"/>
      <point x="390" y="167" type="line"/>
      <point x="390" y="261" type="line"/>
      <point x="385" y="353" type="line"/>
      <point x="461" y="348" type="line"/>
      <point x="564" y="348" type="line"/>
      <point x="564" y="473" type="line"/>
      <point x="461" y="473" type="line"/>
      <point x="385" y="468" type="line"/>
      <point x="390" y="560" type="line"/>
      <point x="390" y="663" type="line"/>
      <point x="262" y="663" type="line"/>
      <point x="262" y="560" type="line"/>
      <point x="267" y="468" type="line"/>
      <point x="191" y="473" type="line"/>
      <point x="88" y="473" type="line"/>
      <point x="88" y="348" type="line"/>
      <point x="191" y="348" type="line"/>
      <point x="267" y="353" type="line"/>
      <point x="262" y="261" type="line"/>
    </contour>
    <contour>
      <point x="89" y="0" type="line"/>
      <point x="555" y="0" type="line"/>
      <point x="555" y="115" type="line"/>
      <point x="89" y="115" type="line"/>
    </contour>
  </outline>
</glyph>
<glyph name="twosuperior" format="1">
  <advance width="604"/>
  <unicode hex="00B2"/>
  <outline>
	<contour>
	  <point x="99" y="352" type="line"/>
	  <point x="543" y="352" type="line"/>
	  <point x="576" y="516" type="line"/>
	  <point x="496" y="538" type="line"/>
	  <point x="448" y="465" type="line"/>
	  <point x="214" y="423" type="line"/>
	  <point x="367" y="513"/>
	  <point x="512" y="588"/>
	  <point x="512" y="702" type="curve" smooth="yes"/>
	  <point x="512" y="794"/>
	  <point x="440" y="845"/>
	  <point x="303" y="845" type="curve" smooth="yes"/>
	  <point x="219" y="845"/>
	  <point x="121" y="788"/>
	  <point x="78" y="719" type="curve"/>
	  <point x="119" y="662" type="line"/>
	  <point x="164" y="704"/>
	  <point x="212" y="743"/>
	  <point x="269" y="743" type="curve" smooth="yes"/>
	  <point x="319" y="743"/>
	  <point x="355" y="717"/>
	  <point x="355" y="674" type="curve" smooth="yes"/>
	  <point x="355" y="603"/>
	  <point x="215" y="512"/>
	  <point x="69" y="428" type="curve"/>
	</contour>
  </outline>
</glyph>
<glyph name="threesuperior" format="1">
  <advance width="555"/>
  <unicode hex="00B3"/>
  <outline>
	<contour>
	  <point x="97" y="320" type="line"/>
	  <point x="129" y="312"/>
	  <point x="186" y="301"/>
	  <point x="256" y="301" type="curve" smooth="yes"/>
	  <point x="388" y="301"/>
	  <point x="502" y="362"/>
	  <point x="502" y="477" type="curve" smooth="yes"/>
	  <point x="502" y="537"/>
	  <point x="449" y="590"/>
	  <point x="378" y="600" type="curve"/>
	  <point x="440" y="627"/>
	  <point x="474" y="662"/>
	  <point x="474" y="724" type="curve" smooth="yes"/>
	  <point x="474" y="799"/>
	  <point x="382" y="841"/>
	  <point x="287" y="841" type="curve" smooth="yes"/>
	  <point x="220" y="841"/>
	  <point x="122" y="815"/>
	  <point x="77" y="774" type="curve"/>
	  <point x="112" y="715" type="line"/>
	  <point x="151" y="739"/>
	  <point x="206" y="758"/>
	  <point x="248" y="758" type="curve" smooth="yes"/>
	  <point x="281" y="758"/>
	  <point x="326" y="748"/>
	  <point x="326" y="712" type="curve" smooth="yes"/>
	  <point x="326" y="652"/>
	  <point x="265" y="627"/>
	  <point x="169" y="602" type="curve"/>
	  <point x="167" y="522" type="line"/>
	  <point x="247" y="541" type="line"/>
	  <point x="258" y="544"/>
	  <point x="269" y="546"/>
	  <point x="280" y="549" type="curve"/>
	  <point x="320" y="538"/>
	  <point x="345" y="511"/>
	  <point x="345" y="472" type="curve" smooth="yes"/>
	  <point x="345" y="403"/>
	  <point x="264" y="380"/>
	  <point x="190" y="380" type="curve" smooth="yes"/>
	  <point x="174" y="380"/>
	  <point x="117" y="386"/>
	  <point x="97" y="392" type="curve"/>
	</contour>
  </outline>
</glyph>
<glyph name="acute" format="1">
  <advance width="433"/>
  <unicode hex="00B4"/>
  <outline>
    <contour>
      <point x="222" y="652" type="line"/>
      <point x="309" y="682"/>
      <point x="413" y="737"/>
      <point x="457" y="809" type="curve"/>
      <point x="333" y="904" type="line"/>
      <point x="179" y="696" type="line"/>
    </contour>
  </outline>
</glyph>
<glyph name="paragraph" format="1">
  <advance width="787"/>
  <unicode hex="00B6"/>
  <outline>
    <contour>
      <point x="184" y="768"/>
      <point x="80" y="702"/>
      <point x="80" y="541" type="curve" smooth="yes"/>
      <point x="80" y="401"/>
      <point x="179" y="320"/>
      <point x="320" y="320" type="curve"/>
      <point x="320" y="94" type="line"/>
      <point x="217" y="70" type="line"/>
      <point x="217" y="0" type="line"/>
      <point x="457" y="0" type="line"/>
      <point x="457" y="665" type="line"/>
      <point x="543" y="665" type="line"/>
      <point x="544" y="0" type="line"/>
      <point x="772" y="0" type="line"/>
      <point x="772" y="70" type="line"/>
      <point x="672" y="94" type="line"/>
      <point x="672" y="647" type="line"/>
      <point x="770" y="676" type="line"/>
      <point x="770" y="758" type="line"/>
      <point x="666" y="758" type="line"/>
      <point x="621" y="758"/>
      <point x="426" y="768"/>
      <point x="354" y="768" type="curve" smooth="yes"/>
    </contour>
  </outline>
</glyph>
<glyph name="periodcentered" format="1">
  <advance width="377"/>
  <unicode hex="00B7"/>
  <outline>
    <contour>
      <point x="142" y="515"/>
      <point x="80" y="464"/>
      <point x="80" y="404" type="curve" smooth="yes"/>
      <point x="80" y="351"/>
      <point x="125" y="313"/>
      <point x="179" y="313" type="curve" smooth="yes"/>
      <point x="239" y="313"/>
      <point x="297" y="355"/>
      <point x="297" y="420" type="curve" smooth="yes"/>
      <point x="297" y="481"/>
      <point x="258" y="515"/>
      <point x="196" y="515" type="curve" smooth="yes"/>
    </contour>
  </outline>
</glyph>
<glyph name="cedilla" format="1">
  <advance width="329"/>
  <unicode hex="00B8"/>
  <outline>
    <contour>
      <point x="95" y="5" type="line"/>
      <point x="83" y="-11"/>
      <point x="66" y="-98"/>
      <point x="66" y="-125" type="curve"/>
      <point x="73" y="-125"/>
      <point x="84" y="-124"/>
      <point x="95" y="-124" type="curve" smooth="yes"/>
      <point x="111" y="-124"/>
      <point x="125" y="-132"/>
      <point x="125" y="-151" type="curve" smooth="yes"/>
      <point x="125" y="-168"/>
      <point x="112" y="-179"/>
      <point x="91" y="-179" type="curve" smooth="yes"/>
      <point x="79" y="-179"/>
      <point x="37" y="-174"/>
      <point x="30" y="-172" type="curve"/>
      <point x="30" y="-245" type="line"/>
      <point x="69" y="-253"/>
      <point x="100" y="-260"/>
      <point x="135" y="-260" type="curve" smooth="yes"/>
      <point x="219" y="-260"/>
      <point x="286" y="-233"/>
      <point x="286" y="-158" type="curve" smooth="yes"/>
      <point x="286" y="-109"/>
      <point x="243" y="-69"/>
      <point x="182" y="-64" type="curve"/>
      <point x="180" y="-53"/>
      <point x="178" y="-13"/>
      <point x="181" y="5" type="curve"/>
    </contour>
  </outline>
</glyph>
<glyph name="onesuperior" format="1">
  <advance width="549"/>
  <unicode hex="00B9"/>
  <outline>
	<contour>
	  <point x="97" y="351" type="line"/>
	  <point x="500" y="351" type="line"/>
	  <point x="500" y="417" type="line"/>
	  <point x="385" y="437" type="line"/>
	  <point x="385" y="833" type="line"/>
	  <point x="345" y="841" type="line"/>
	  <point x="319" y="819"/>
	  <point x="148" y="759"/>
	  <point x="93" y="749" type="curve"/>
	  <point x="111" y="673" type="line"/>
	  <point x="123" y="676"/>
	  <point x="204" y="689"/>
	  <point x="224" y="690" type="curve"/>
	  <point x="224" y="437" type="line"/>
	  <point x="97" y="417" type="line"/>
	</contour>
  </outline>
</glyph>
<glyph name="ordmasculine" format="1">
  <advance width="571"/>
  <unicode hex="00BA"/>
  <outline>
	<contour>
	  <point x="162" y="778"/>
	  <point x="61" y="702"/>
	  <point x="61" y="564" type="curve" smooth="yes"/>
	  <point x="61" y="431"/>
	  <point x="142" y="357"/>
	  <point x="277" y="357" type="curve" smooth="yes"/>
	  <point x="406" y="357"/>
	  <point x="509" y="430"/>
	  <point x="512" y="564" type="curve" smooth="yes"/>
	  <point x="512" y="699"/>
	  <point x="430" y="778"/>
	  <point x="296" y="778" type="curve" smooth="yes"/>
	</contour>
	<contour>
	  <point x="338" y="714"/>
	  <point x="359" y="635"/>
	  <point x="359" y="562" type="curve" smooth="yes"/>
	  <point x="359" y="478"/>
	  <point x="351" y="423"/>
	  <point x="289" y="423" type="curve" smooth="yes"/>
	  <point x="236" y="423"/>
	  <point x="214" y="498"/>
	  <point x="214" y="571" type="curve" smooth="yes"/>
	  <point x="214" y="643"/>
	  <point x="232" y="714"/>
	  <point x="289" y="714" type="curve" smooth="yes"/>
	</contour>
  </outline>
</glyph>
<glyph name="guillemetright" format="1">
  <advance width="1052"/>
  <unicode hex="00BB"/>
  <outline>
	<contour>
	  <point x="535" y="110" type="line"/>
	  <point x="577" y="44" type="line"/>
	  <point x="938" y="233" type="line"/>
	  <point x="938" y="382" type="line"/>
	  <point x="577" y="559" type="line"/>
	  <point x="535" y="486" type="line"/>
	  <point x="757" y="302" type="line"/>
	</contour>
	<contour>
	  <point x="151" y="44" type="line"/>
	  <point x="512" y="233" type="line"/>
	  <point x="512" y="382" type="line"/>
	  <point x="151" y="559" type="line"/>
	  <point x="109" y="486" type="line"/>
	  <point x="331" y="302" type="line"/>
	  <point x="109" y="110" type="line"/>
	</contour>
  </outline>
</glyph>
<glyph name="onequarter" format="1">
  <advance width="1334"/>
  <unicode hex="00BC"/>
  <outline>
	<contour>
	  <point x="411" y="-131" type="line"/>
	  <point x="514" y="-167" type="line"/>
	  <point x="904" y="888" type="line"/>
	  <point x="800" y="918" type="line"/>
	</contour>
	<contour>
	  <point x="144" y="351" type="line"/>
	  <point x="547" y="351" type="line"/>
	  <point x="547" y="417" type="line"/>
	  <point x="432" y="437" type="line"/>
	  <point x="432" y="833" type="line"/>
	  <point x="392" y="841" type="line"/>
	  <point x="366" y="819"/>
	  <point x="195" y="759"/>
	  <point x="140" y="749" type="curve"/>
	  <point x="158" y="673" type="line"/>
	  <point x="170" y="676"/>
	  <point x="251" y="689"/>
	  <point x="271" y="690" type="curve"/>
	  <point x="271" y="437" type="line"/>
	  <point x="144" y="417" type="line"/>
	</contour>
	<contour>
	  <point x="718" y="125" type="line"/>
	  <point x="743" y="52" type="line"/>
	  <point x="986" y="52" type="line"/>
	  <point x="979" y="-86" type="line"/>
	  <point x="1120" y="-86" type="line"/>
	  <point x="1120" y="52" type="line"/>
	  <point x="1217" y="52" type="line"/>
	  <point x="1217" y="178" type="line"/>
	  <point x="1120" y="167" type="line"/>
	  <point x="1120" y="264" type="line"/>
	  <point x="998" y="250" type="line"/>
	  <point x="992" y="153" type="line"/>
	  <point x="835" y="136" type="line"/>
	  <point x="875" y="182" type="line"/>
	  <point x="1098" y="439" type="line"/>
	  <point x="1032" y="516" type="line"/>
	  <point x="971" y="516" type="line"/>
	</contour>
  </outline>
</glyph>
<glyph name="onehalf" format="1">
  <advance width="1334"/>
  <unicode hex="00BD"/>
  <outline>
	<contour>
	  <point x="411" y="-131" type="line"/>
	  <point x="514" y="-167" type="line"/>
	  <point x="904" y="888" type="line"/>
	  <point x="800" y="918" type="line"/>
	</contour>
	<contour>
	  <point x="144" y="351" type="line"/>
	  <point x="547" y="351" type="line"/>
	  <point x="547" y="417" type="line"/>
	  <point x="432" y="437" type="line"/>
	  <point x="432" y="833" type="line"/>
	  <point x="392" y="841" type="line"/>
	  <point x="366" y="819"/>
	  <point x="195" y="759"/>
	  <point x="140" y="749" type="curve"/>
	  <point x="158" y="673" type="line"/>
	  <point x="170" y="676"/>
	  <point x="251" y="689"/>
	  <point x="271" y="690" type="curve"/>
	  <point x="271" y="437" type="line"/>
	  <point x="144" y="417" type="line"/>
	</contour>
	<contour>
	  <point x="794" y="-1" type="line"/>
	  <point x="1238" y="-1" type="line"/>
	  <point x="1271" y="163" type="line"/>
	  <point x="1191" y="185" type="line"/>
	  <point x="1143" y="112" type="line"/>
	  <point x="909" y="70" type="line"/>
	  <point x="1062" y="160"/>
	  <point x="1207" y="235"/>
	  <point x="1207" y="349" type="curve" smooth="yes"/>
	  <point x="1207" y="441"/>
	  <point x="1135" y="492"/>
	  <point x="998" y="492" type="curve" smooth="yes"/>
	  <point x="914" y="492"/>
	  <point x="816" y="435"/>
	  <point x="773" y="366" type="curve"/>
	  <point x="814" y="309" type="line"/>
	  <point x="859" y="351"/>
	  <point x="907" y="390"/>
	  <point x="964" y="390" type="curve" smooth="yes"/>
	  <point x="1014" y="390"/>
	  <point x="1050" y="364"/>
	  <point x="1050" y="321" type="curve" smooth="yes"/>
	  <point x="1050" y="250"/>
	  <point x="910" y="159"/>
	  <point x="764" y="75" type="curve"/>
	</contour>
  </outline>
</glyph>
<glyph name="threequarters" format="1">
  <advance width="1417"/>
  <unicode hex="00BE"/>
  <outline>
	<contour>
	  <point x="411" y="-131" type="line"/>
	  <point x="514" y="-167" type="line"/>
	  <point x="904" y="888" type="line"/>
	  <point x="800" y="918" type="line"/>
	</contour>
	<contour>
	  <point x="166" y="320" type="line"/>
	  <point x="198" y="312"/>
	  <point x="255" y="301"/>
	  <point x="325" y="301" type="curve" smooth="yes"/>
	  <point x="457" y="301"/>
	  <point x="571" y="362"/>
	  <point x="571" y="477" type="curve" smooth="yes"/>
	  <point x="571" y="537"/>
	  <point x="518" y="590"/>
	  <point x="447" y="600" type="curve"/>
	  <point x="509" y="627"/>
	  <point x="543" y="662"/>
	  <point x="543" y="724" type="curve" smooth="yes"/>
	  <point x="543" y="799"/>
	  <point x="451" y="841"/>
	  <point x="356" y="841" type="curve" smooth="yes"/>
	  <point x="289" y="841"/>
	  <point x="191" y="815"/>
	  <point x="146" y="774" type="curve"/>
	  <point x="181" y="715" type="line"/>
	  <point x="220" y="739"/>
	  <point x="275" y="758"/>
	  <point x="317" y="758" type="curve" smooth="yes"/>
	  <point x="350" y="758"/>
	  <point x="395" y="748"/>
	  <point x="395" y="712" type="curve" smooth="yes"/>
	  <point x="395" y="652"/>
	  <point x="334" y="627"/>
	  <point x="238" y="602" type="curve"/>
	  <point x="236" y="522" type="line"/>
	  <point x="316" y="541" type="line"/>
	  <point x="327" y="544"/>
	  <point x="338" y="546"/>
	  <point x="349" y="549" type="curve"/>
	  <point x="389" y="538"/>
	  <point x="414" y="511"/>
	  <point x="414" y="472" type="curve" smooth="yes"/>
	  <point x="414" y="403"/>
	  <point x="333" y="380"/>
	  <point x="259" y="380" type="curve" smooth="yes"/>
	  <point x="243" y="380"/>
	  <point x="186" y="386"/>
	  <point x="166" y="392" type="curve"/>
	</contour>
	<contour>
	  <point x="718" y="125" type="line"/>
	  <point x="743" y="52" type="line"/>
	  <point x="986" y="52" type="line"/>
	  <point x="979" y="-86" type="line"/>
	  <point x="1120" y="-86" type="line"/>
	  <point x="1120" y="52" type="line"/>
	  <point x="1217" y="52" type="line"/>
	  <point x="1217" y="178" type="line"/>
	  <point x="1120" y="167" type="line"/>
	  <point x="1120" y="264" type="line"/>
	  <point x="998" y="250" type="line"/>
	  <point x="992" y="153" type="line"/>
	  <point x="835" y="136" type="line"/>
	  <point x="875" y="182" type="line"/>
	  <point x="1098" y="439" type="line"/>
	  <point x="1032" y="516" type="line"/>
	  <point x="971" y="516" type="line"/>
	</contour>
  </outline>
</glyph>
<glyph name="questiondown" format="1">
  <advance width="519"/>
  <unicode hex="00BF"/>
  <outline>
	<contour>
	  <point x="247" y="392"/>
	  <point x="273" y="336"/>
	  <point x="273" y="295" type="curve" smooth="yes"/>
	  <point x="273" y="260"/>
	  <point x="216" y="241"/>
	  <point x="124" y="198" type="curve" smooth="yes"/>
	  <point x="74" y="175"/>
	  <point x="59" y="148"/>
	  <point x="59" y="74" type="curve" smooth="yes"/>
	  <point x="59" y="-94"/>
	  <point x="185" y="-199"/>
	  <point x="369" y="-208" type="curve" smooth="yes"/>
	  <point x="406" y="-208"/>
	  <point x="477" y="-200"/>
	  <point x="491" y="-183" type="curve"/>
	  <point x="483" y="-50" type="line"/>
	  <point x="469" y="-61"/>
	  <point x="445" y="-67"/>
	  <point x="403" y="-67" type="curve" smooth="yes"/>
	  <point x="230" y="-66"/>
	  <point x="157" y="41"/>
	  <point x="157" y="125" type="curve" smooth="yes"/>
	  <point x="157" y="135"/>
	  <point x="172" y="143"/>
	  <point x="194" y="152" type="curve" smooth="yes"/>
	  <point x="269" y="179"/>
	  <point x="428" y="205"/>
	  <point x="428" y="284" type="curve" smooth="yes"/>
	  <point x="428" y="334"/>
	  <point x="389" y="396"/>
	  <point x="347" y="436" type="curve"/>
	  <point x="225" y="436" type="line"/>
	</contour>
	<contour>
	  <point x="207" y="711"/>
	  <point x="146" y="661"/>
	  <point x="146" y="600" type="curve" smooth="yes"/>
	  <point x="146" y="545"/>
	  <point x="192" y="509"/>
	  <point x="245" y="509" type="curve" smooth="yes"/>
	  <point x="304" y="509"/>
	  <point x="363" y="552"/>
	  <point x="363" y="616" type="curve" smooth="yes"/>
	  <point x="363" y="673"/>
	  <point x="326" y="711"/>
	  <point x="262" y="711" type="curve" smooth="yes"/>
	</contour>
  </outline>
</glyph>
<glyph name="Atilde" format="1">
  <advance width="781"/>
  <unicode hex="00C3"/>
  <outline>
    <contour>
      <point x="224" y="798" type="line"/>
      <point x="247" y="817"/>
      <point x="277" y="833"/>
      <point x="306" y="833" type="curve" smooth="yes"/>
      <point x="350" y="833"/>
      <point x="388" y="783"/>
      <point x="453" y="783" type="curve" smooth="yes"/>
      <point x="505" y="783"/>
      <point x="578" y="823"/>
      <point x="600" y="876" type="curve"/>
      <point x="556" y="923" type="line"/>
      <point x="535" y="904"/>
      <point x="510" y="889"/>
      <point x="475" y="889" type="curve" smooth="yes"/>
      <point x="435" y="889"/>
      <point x="394" y="938"/>
      <point x="332" y="938" type="curve" smooth="yes"/>
      <point x="283" y="938"/>
      <point x="200" y="888"/>
      <point x="182" y="836" type="curve"/>
    </contour>
    <contour>
      <point x="2" y="0" type="line"/>
      <point x="276" y="0" type="line"/>
      <point x="276" y="68" type="line"/>
      <point x="203" y="91" type="line"/>
      <point x="225" y="164" type="line"/>
      <point x="489" y="164" type="line"/>
      <point x="510" y="89" type="line"/>
      <point x="445" y="67" type="line"/>
      <point x="445" y="0" type="line"/>
      <point x="779" y="0" type="line"/>
      <point x="779" y="67" type="line"/>
      <point x="705" y="87" type="line"/>
      <point x="471" y="758" type="line"/>
      <point x="308" y="758" type="line"/>
      <point x="67" y="88" type="line"/>
      <point x="2" y="68" type="line"/>
    </contour>
    <contour>
      <point x="253" y="254" type="line"/>
      <point x="362" y="612" type="line"/>
      <point x="398" y="478" type="line"/>
      <point x="463" y="254" type="line"/>
    </contour>
  </outline>
</glyph>
<glyph name="Adieresis" format="1">
  <advance width="781"/>
  <unicode hex="00C4"/>
  <outline>
    <contour>
      <point x="308" y="758" type="line"/>
      <point x="67" y="88" type="line"/>
      <point x="2" y="68" type="line"/>
      <point x="2" y="0" type="line"/>
      <point x="276" y="0" type="line"/>
      <point x="276" y="68" type="line"/>
      <point x="203" y="91" type="line"/>
      <point x="225" y="164" type="line"/>
      <point x="489" y="164" type="line"/>
      <point x="510" y="89" type="line"/>
      <point x="445" y="67" type="line"/>
      <point x="445" y="0" type="line"/>
      <point x="779" y="0" type="line"/>
      <point x="779" y="67" type="line"/>
      <point x="705" y="87" type="line"/>
      <point x="471" y="758" type="line"/>
    </contour>
    <contour>
      <point x="398" y="478" type="line"/>
      <point x="463" y="254" type="line"/>
      <point x="253" y="254" type="line"/>
      <point x="362" y="612" type="line"/>
    </contour>
    <contour>
      <point x="215" y="938"/>
      <point x="164" y="905"/>
      <point x="164" y="857" type="curve" smooth="yes"/>
      <point x="164" y="811"/>
      <point x="207" y="790"/>
      <point x="250" y="790" type="curve" smooth="yes"/>
      <point x="302" y="790"/>
      <point x="354" y="821"/>
      <point x="354" y="869" type="curve" smooth="yes"/>
      <point x="354" y="919"/>
      <point x="312" y="938"/>
      <point x="264" y="938" type="curve" smooth="yes"/>
    </contour>
    <contour>
      <point x="482" y="938"/>
      <point x="429" y="906"/>
      <point x="429" y="859" type="curve" smooth="yes"/>
      <point x="429" y="816"/>
      <point x="470" y="791"/>
      <point x="518" y="791" type="curve" smooth="yes"/>
      <point x="574" y="791"/>
      <point x="617" y="824"/>
      <point x="617" y="870" type="curve" smooth="yes"/>
      <point x="617" y="918"/>
      <point x="581" y="938"/>
      <point x="530" y="938" type="curve" smooth="yes"/>
    </contour>
  </outline>
</glyph>
<glyph name="Aring" format="1">
  <advance width="781"/>
  <unicode hex="00C5"/>
  <outline>
    <contour>
      <point x="309" y="938"/>
      <point x="246" y="895"/>
      <point x="246" y="817" type="curve" smooth="yes"/>
      <point x="246" y="775"/>
      <point x="265" y="744"/>
      <point x="296" y="724" type="curve"/>
      <point x="67" y="88" type="line"/>
      <point x="2" y="68" type="line"/>
      <point x="2" y="0" type="line"/>
      <point x="276" y="0" type="line"/>
      <point x="276" y="68" type="line"/>
      <point x="203" y="91" type="line"/>
      <point x="225" y="164" type="line"/>
      <point x="489" y="164" type="line"/>
      <point x="510" y="89" type="line"/>
      <point x="445" y="67" type="line"/>
      <point x="445" y="0" type="line"/>
      <point x="779" y="0" type="line"/>
      <point x="779" y="67" type="line"/>
      <point x="705" y="87" type="line"/>
      <point x="483" y="722" type="line"/>
      <point x="515" y="742"/>
      <point x="537" y="774"/>
      <point x="537" y="817" type="curve" smooth="yes"/>
      <point x="537" y="892"/>
      <point x="471" y="938"/>
      <point x="391" y="938" type="curve" smooth="yes"/>
    </contour>
    <contour>
      <point x="398" y="478" type="line"/>
      <point x="463" y="254" type="line"/>
      <point x="253" y="254" type="line"/>
      <point x="362" y="612" type="line"/>
    </contour>
    <contour>
      <point x="428" y="876"/>
      <point x="452" y="846"/>
      <point x="452" y="817" type="curve" smooth="yes"/>
      <point x="452" y="781"/>
      <point x="421" y="759"/>
      <point x="391" y="759" type="curve" smooth="yes"/>
      <point x="354" y="759"/>
      <point x="329" y="784"/>
      <point x="329" y="817" type="curve" smooth="yes"/>
      <point x="329" y="851"/>
      <point x="354" y="876"/>
      <point x="391" y="876" type="curve" smooth="yes"/>
    </contour>
  </outline>
</glyph>
<glyph name="AE" format="1">
  <advance width="946"/>
  <unicode hex="00C6"/>
  <outline>
    <contour>
      <point x="2" y="0" type="line"/>
      <point x="271" y="0" type="line"/>
      <point x="271" y="69" type="line"/>
      <point x="185" y="89" type="line"/>
      <point x="213" y="164" type="line"/>
      <point x="512" y="164" type="line"/>
      <point x="535" y="88" type="line"/>
      <point x="458" y="68" type="line"/>
      <point x="458" y="0" type="line"/>
      <point x="916" y="0" type="line"/>
      <point x="941" y="162" type="line"/>
      <point x="856" y="179" type="line"/>
      <point x="802" y="87" type="line"/>
      <point x="720" y="73" type="line"/>
      <point x="634" y="351" type="line"/>
      <point x="728" y="344" type="line"/>
      <point x="747" y="273" type="line"/>
      <point x="825" y="273" type="line"/>
      <point x="825" y="515" type="line"/>
      <point x="748" y="515" type="line"/>
      <point x="729" y="442" type="line"/>
      <point x="606" y="439" type="line"/>
      <point x="533" y="675" type="line"/>
      <point x="743" y="664" type="line"/>
      <point x="774" y="591" type="line"/>
      <point x="869" y="591" type="line"/>
      <point x="851" y="758" type="line"/>
      <point x="332" y="758" type="line"/>
      <point x="62" y="85" type="line"/>
      <point x="2" y="69" type="line"/>
    </contour>
    <contour>
      <point x="250" y="259" type="line"/>
      <point x="385" y="616" type="line"/>
      <point x="401" y="543" type="line"/>
      <point x="484" y="259" type="line"/>
    </contour>
  </outline>
</glyph>
<glyph name="Ccedilla" format="1">
  <advance width="715"/>
  <unicode hex="00C7"/>
  <outline>
	<contour>
	  <point x="226" y="765"/>
	  <point x="32" y="595"/>
	  <point x="32" y="354" type="curve" smooth="yes"/>
	  <point x="32" y="147"/>
	  <point x="164" y="1"/>
	  <point x="377" y="-12" type="curve"/>
	  <point x="369" y="-37"/>
	  <point x="357" y="-96"/>
	  <point x="357" y="-125" type="curve"/>
	  <point x="364" y="-125"/>
	  <point x="375" y="-124"/>
	  <point x="386" y="-124" type="curve"/>
	  <point x="402" y="-124"/>
	  <point x="416" y="-132"/>
	  <point x="416" y="-151" type="curve" smooth="yes"/>
	  <point x="416" y="-168"/>
	  <point x="403" y="-179"/>
	  <point x="382" y="-179" type="curve" smooth="yes"/>
	  <point x="370" y="-179"/>
	  <point x="328" y="-174"/>
	  <point x="321" y="-172" type="curve"/>
	  <point x="321" y="-245" type="line"/>
	  <point x="360" y="-253"/>
	  <point x="391" y="-260"/>
	  <point x="426" y="-260" type="curve" smooth="yes"/>
	  <point x="509" y="-260"/>
	  <point x="577" y="-233"/>
	  <point x="577" y="-158" type="curve" smooth="yes"/>
	  <point x="577" y="-109"/>
	  <point x="534" y="-69"/>
	  <point x="473" y="-64" type="curve"/>
	  <point x="472" y="-49"/>
	  <point x="470" y="-28"/>
	  <point x="470" y="-11" type="curve"/>
	  <point x="545" y="-8"/>
	  <point x="646" y="33"/>
	  <point x="669" y="33" type="curve"/>
	  <point x="669" y="207" type="line"/>
	  <point x="584" y="207" type="line"/>
	  <point x="544" y="109" type="line" smooth="yes"/>
	  <point x="533" y="83"/>
	  <point x="497" y="70"/>
	  <point x="426" y="70" type="curve" smooth="yes"/>
	  <point x="295" y="70"/>
	  <point x="225" y="232"/>
	  <point x="225" y="398" type="curve" smooth="yes"/>
	  <point x="225" y="545"/>
	  <point x="288" y="675"/>
	  <point x="415" y="675" type="curve" smooth="yes"/>
	  <point x="500" y="675"/>
	  <point x="515" y="654"/>
	  <point x="521" y="644" type="curve"/>
	  <point x="556" y="544" type="line"/>
	  <point x="659" y="544" type="line"/>
	  <point x="669" y="734" type="line"/>
	  <point x="647" y="738"/>
	  <point x="563" y="765"/>
	  <point x="461" y="765" type="curve" smooth="yes"/>
	</contour>
  </outline>
</glyph>
<glyph name="Ecircumflex" format="1">
  <advance width="696"/>
  <unicode hex="00CA"/>
  <outline>
    <contour>
      <point x="226" y="780" type="line"/>
      <point x="364" y="843" type="line"/>
      <point x="497" y="780" type="line"/>
      <point x="551" y="815" type="line"/>
      <point x="419" y="938" type="line"/>
      <point x="306" y="938" type="line"/>
      <point x="172" y="815" type="line"/>
    </contour>
    <contour>
      <point x="49" y="0" type="line"/>
      <point x="646" y="0" type="line"/>
      <point x="672" y="170" type="line"/>
      <point x="571" y="188" type="line"/>
      <point x="509" y="92" type="line"/>
      <point x="294" y="78" type="line"/>
      <point x="294" y="346" type="line"/>
      <point x="419" y="343" type="line"/>
      <point x="446" y="266" type="line"/>
      <point x="534" y="266" type="line"/>
      <point x="534" y="504" type="line"/>
      <point x="446" y="504" type="line"/>
      <point x="419" y="431" type="line"/>
      <point x="294" y="426" type="line"/>
      <point x="294" y="680" type="line"/>
      <point x="475" y="669" type="line"/>
      <point x="521" y="591" type="line"/>
      <point x="621" y="591" type="line"/>
      <point x="606" y="758" type="line"/>
      <point x="52" y="758" type="line"/>
      <point x="52" y="678" type="line"/>
      <point x="121" y="667" type="line"/>
      <point x="121" y="87" type="line"/>
      <point x="49" y="68" type="line"/>
    </contour>
  </outline>
</glyph>
<glyph name="Edieresis" format="1">
  <advance width="696"/>
  <unicode hex="00CB"/>
  <outline>
	<contour>
	  <point x="52" y="758" type="line"/>
	  <point x="52" y="678" type="line"/>
	  <point x="121" y="667" type="line"/>
	  <point x="121" y="87" type="line"/>
	  <point x="49" y="68" type="line"/>
	  <point x="49" y="0" type="line"/>
	  <point x="646" y="0" type="line"/>
	  <point x="672" y="170" type="line"/>
	  <point x="571" y="188" type="line"/>
	  <point x="509" y="92" type="line"/>
	  <point x="294" y="78" type="line"/>
	  <point x="294" y="346" type="line"/>
	  <point x="419" y="343" type="line"/>
	  <point x="446" y="266" type="line"/>
	  <point x="534" y="266" type="line"/>
	  <point x="534" y="504" type="line"/>
	  <point x="446" y="504" type="line"/>
	  <point x="419" y="431" type="line"/>
	  <point x="294" y="426" type="line"/>
	  <point x="294" y="680" type="line"/>
	  <point x="475" y="669" type="line"/>
	  <point x="521" y="591" type="line"/>
	  <point x="621" y="591" type="line"/>
	  <point x="606" y="758" type="line"/>
	</contour>
	<contour>
	  <point x="187" y="938"/>
	  <point x="136" y="905"/>
	  <point x="136" y="857" type="curve" smooth="yes"/>
	  <point x="136" y="811"/>
	  <point x="179" y="790"/>
	  <point x="222" y="790" type="curve" smooth="yes"/>
	  <point x="274" y="790"/>
	  <point x="326" y="821"/>
	  <point x="326" y="869" type="curve" smooth="yes"/>
	  <point x="326" y="919"/>
	  <point x="284" y="938"/>
	  <point x="236" y="938" type="curve" smooth="yes"/>
	</contour>
	<contour>
	  <point x="454" y="938"/>
	  <point x="401" y="906"/>
	  <point x="401" y="859" type="curve" smooth="yes"/>
	  <point x="401" y="816"/>
	  <point x="442" y="791"/>
	  <point x="490" y="791" type="curve" smooth="yes"/>
	  <point x="546" y="791"/>
	  <point x="589" y="824"/>
	  <point x="589" y="870" type="curve" smooth="yes"/>
	  <point x="589" y="918"/>
	  <point x="553" y="938"/>
	  <point x="502" y="938" type="curve" smooth="yes"/>
	</contour>
  </outline>
</glyph>
<glyph name="Igrave" format="1">
  <advance width="414"/>
  <unicode hex="00CC"/>
  <outline>
	<contour>
	  <point x="274" y="830" type="line"/>
	  <point x="92" y="938" type="line"/>
	  <point x="-2" y="844" type="line"/>
	  <point x="41" y="809"/>
	  <point x="190" y="776"/>
	  <point x="225" y="778" type="curve"/>
	</contour>
	<contour>
	  <point x="27" y="0" type="line"/>
	  <point x="387" y="0" type="line"/>
	  <point x="387" y="68" type="line"/>
	  <point x="295" y="89" type="line"/>
	  <point x="295" y="666" type="line"/>
	  <point x="382" y="678" type="line"/>
	  <point x="382" y="758" type="line"/>
	  <point x="27" y="758" type="line"/>
	  <point x="27" y="678" type="line"/>
	  <point x="119" y="667" type="line"/>
	  <point x="119" y="88" type="line"/>
	  <point x="27" y="68" type="line"/>
	</contour>
  </outline>
</glyph>
<glyph name="Iacute" format="1">
  <advance width="414"/>
  <unicode hex="00CD"/>
  <outline>
	<contour>
	  <point x="178" y="778" type="line"/>
	  <point x="242" y="782"/>
	  <point x="371" y="810"/>
	  <point x="415" y="844" type="curve"/>
	  <point x="321" y="938" type="line"/>
	  <point x="129" y="830" type="line"/>
	</contour>
	<contour>
	  <point x="27" y="0" type="line"/>
	  <point x="387" y="0" type="line"/>
	  <point x="387" y="68" type="line"/>
	  <point x="295" y="89" type="line"/>
	  <point x="295" y="666" type="line"/>
	  <point x="382" y="678" type="line"/>
	  <point x="382" y="758" type="line"/>
	  <point x="27" y="758" type="line"/>
	  <point x="27" y="678" type="line"/>
	  <point x="119" y="667" type="line"/>
	  <point x="119" y="88" type="line"/>
	  <point x="27" y="68" type="line"/>
	</contour>
  </outline>
</glyph>
<glyph name="Icircumflex" format="1">
  <advance width="414"/>
  <unicode hex="00CE"/>
  <outline>
	<contour>
	  <point x="68" y="780" type="line"/>
	  <point x="206" y="843" type="line"/>
	  <point x="338" y="780" type="line"/>
	  <point x="393" y="815" type="line"/>
	  <point x="261" y="938" type="line"/>
	  <point x="148" y="938" type="line"/>
	  <point x="14" y="815" type="line"/>
	</contour>
	<contour>
	  <point x="27" y="0" type="line"/>
	  <point x="387" y="0" type="line"/>
	  <point x="387" y="68" type="line"/>
	  <point x="295" y="89" type="line"/>
	  <point x="295" y="666" type="line"/>
	  <point x="382" y="678" type="line"/>
	  <point x="382" y="758" type="line"/>
	  <point x="27" y="758" type="line"/>
	  <point x="27" y="678" type="line"/>
	  <point x="119" y="667" type="line"/>
	  <point x="119" y="88" type="line"/>
	  <point x="27" y="68" type="line"/>
	</contour>
  </outline>
</glyph>
<glyph name="Idieresis" format="1">
  <advance width="414"/>
  <unicode hex="00CF"/>
  <outline>
    <contour>
      <point x="27" y="758" type="line"/>
      <point x="27" y="678" type="line"/>
      <point x="119" y="667" type="line"/>
      <point x="119" y="88" type="line"/>
      <point x="27" y="68" type="line"/>
      <point x="27" y="0" type="line"/>
      <point x="387" y="0" type="line"/>
      <point x="387" y="68" type="line"/>
      <point x="295" y="89" type="line"/>
      <point x="295" y="666" type="line"/>
      <point x="382" y="678" type="line"/>
      <point x="382" y="758" type="line"/>
    </contour>
    <contour>
      <point x="28" y="938"/>
      <point x="-23" y="905"/>
      <point x="-23" y="857" type="curve" smooth="yes"/>
      <point x="-23" y="811"/>
      <point x="20" y="790"/>
      <point x="63" y="790" type="curve" smooth="yes"/>
      <point x="115" y="790"/>
      <point x="167" y="821"/>
      <point x="167" y="869" type="curve" smooth="yes"/>
      <point x="167" y="919"/>
      <point x="125" y="938"/>
      <point x="77" y="938" type="curve" smooth="yes"/>
    </contour>
    <contour>
      <point x="295" y="938"/>
      <point x="242" y="906"/>
      <point x="242" y="859" type="curve" smooth="yes"/>
      <point x="242" y="816"/>
      <point x="283" y="791"/>
      <point x="331" y="791" type="curve" smooth="yes"/>
      <point x="387" y="791"/>
      <point x="430" y="824"/>
      <point x="430" y="870" type="curve" smooth="yes"/>
      <point x="430" y="918"/>
      <point x="394" y="938"/>
      <point x="343" y="938" type="curve" smooth="yes"/>
    </contour>
  </outline>
</glyph>
<glyph name="Oacute" format="1">
  <advance width="781"/>
  <unicode hex="00D3"/>
  <outline>
    <contour>
      <point x="193" y="765"/>
      <point x="41" y="591"/>
      <point x="34" y="368" type="curve" smooth="yes"/>
      <point x="30" y="147"/>
      <point x="174" y="-14"/>
      <point x="391" y="-14" type="curve" smooth="yes"/>
      <point x="607" y="-14"/>
      <point x="746" y="157"/>
      <point x="750" y="386" type="curve" smooth="yes"/>
      <point x="754" y="603"/>
      <point x="615" y="765"/>
      <point x="401" y="765" type="curve" smooth="yes"/>
    </contour>
    <contour>
      <point x="491" y="685"/>
      <point x="559" y="563"/>
      <point x="559" y="385" type="curve" smooth="yes"/>
      <point x="559" y="200"/>
      <point x="536" y="64"/>
      <point x="397" y="64" type="curve" smooth="yes"/>
      <point x="284" y="64"/>
      <point x="226" y="226"/>
      <point x="226" y="369" type="curve" smooth="yes"/>
      <point x="226" y="545"/>
      <point x="255" y="685"/>
      <point x="396" y="685" type="curve" smooth="yes"/>
    </contour>
    <contour>
      <point x="325" y="830" type="line"/>
      <point x="374" y="778" type="line"/>
      <point x="438" y="782"/>
      <point x="567" y="810"/>
      <point x="611" y="844" type="curve"/>
      <point x="517" y="938" type="line"/>
    </contour>
  </outline>
</glyph>
<glyph name="multiply" format="1">
  <advance width="694"/>
  <unicode hex="00D7"/>
  <outline>
	<contour>
	  <point x="177" y="147" type="line"/>
	  <point x="347" y="326" type="line"/>
	  <point x="517" y="147" type="line"/>
	  <point x="603" y="236" type="line"/>
	  <point x="426" y="405" type="line"/>
	  <point x="603" y="575" type="line"/>
	  <point x="517" y="663" type="line"/>
	  <point x="347" y="485" type="line"/>
	  <point x="177" y="663" type="line"/>
	  <point x="91" y="575" type="line"/>
	  <point x="268" y="405" type="line"/>
	  <point x="91" y="236" type="line"/>
	</contour>
  </outline>
</glyph>
<glyph name="Oslash" format="1">
  <advance width="781"/>
  <unicode hex="00D8"/>
  <outline>
    <contour>
      <point x="186" y="-83" type="line"/>
      <point x="246" y="-104" type="line"/>
      <point x="290" y="-1" type="line"/>
      <point x="321" y="-9"/>
      <point x="355" y="-14"/>
      <point x="391" y="-14" type="curve" smooth="yes"/>
      <point x="605" y="-14"/>
      <point x="746" y="155"/>
      <point x="750" y="386" type="curve" smooth="yes"/>
      <point x="754" y="531"/>
      <point x="688" y="666"/>
      <point x="564" y="728" type="curve"/>
      <point x="592" y="805" type="line"/>
      <point x="529" y="826" type="line"/>
      <point x="503" y="751" type="line"/>
      <point x="472" y="761"/>
      <point x="438" y="765"/>
      <point x="401" y="765" type="curve" smooth="yes"/>
      <point x="193" y="765"/>
      <point x="40" y="591"/>
      <point x="34" y="368" type="curve" smooth="yes"/>
      <point x="30" y="217"/>
      <point x="98" y="85"/>
      <point x="229" y="21" type="curve"/>
    </contour>
    <contour>
      <point x="281" y="141" type="line"/>
      <point x="245" y="201"/>
      <point x="226" y="294"/>
      <point x="226" y="369" type="curve" smooth="yes"/>
      <point x="226" y="541"/>
      <point x="253" y="685"/>
      <point x="396" y="685" type="curve" smooth="yes"/>
      <point x="422" y="685"/>
      <point x="443" y="677"/>
      <point x="462" y="663" type="curve"/>
    </contour>
    <contour>
      <point x="512" y="604" type="line"/>
      <point x="543" y="544"/>
      <point x="559" y="464"/>
      <point x="559" y="385" type="curve" smooth="yes"/>
      <point x="559" y="203"/>
      <point x="537" y="64"/>
      <point x="397" y="64" type="curve" smooth="yes"/>
      <point x="372" y="64"/>
      <point x="350" y="72"/>
      <point x="331" y="85" type="curve"/>
    </contour>
  </outline>
</glyph>
<glyph name="Ucircumflex" format="1">
  <advance width="782"/>
  <unicode hex="00DB"/>
  <outline>
	<contour>
	  <point x="510" y="758" type="line"/>
	  <point x="510" y="678" type="line"/>
	  <point x="592" y="666" type="line"/>
	  <point x="594" y="325" type="line" smooth="yes"/>
	  <point x="594" y="181"/>
	  <point x="561" y="73"/>
	  <point x="438" y="73" type="curve" smooth="yes"/>
	  <point x="314" y="73"/>
	  <point x="270" y="155"/>
	  <point x="270" y="298" type="curve" smooth="yes"/>
	  <point x="270" y="667" type="line"/>
	  <point x="353" y="678" type="line"/>
	  <point x="353" y="758" type="line"/>
	  <point x="20" y="758" type="line"/>
	  <point x="20" y="678" type="line"/>
	  <point x="97" y="667" type="line"/>
	  <point x="96" y="546"/>
	  <point x="96" y="426"/>
	  <point x="95" y="305" type="curve" smooth="yes"/>
	  <point x="93" y="90"/>
	  <point x="198" y="-14"/>
	  <point x="417" y="-14" type="curve" smooth="yes"/>
	  <point x="615" y="-14"/>
	  <point x="703" y="113"/>
	  <point x="703" y="326" type="curve" smooth="yes"/>
	  <point x="703" y="666" type="line"/>
	  <point x="773" y="678" type="line"/>
	  <point x="773" y="758" type="line"/>
	</contour>
	<contour>
	  <point x="367" y="938" type="line"/>
	  <point x="232" y="815" type="line"/>
	  <point x="287" y="780" type="line"/>
	  <point x="424" y="843" type="line"/>
	  <point x="557" y="780" type="line"/>
	  <point x="612" y="815" type="line"/>
	  <point x="480" y="938" type="line"/>
	</contour>
  </outline>
</glyph>
<glyph name="Thorn" format="1">
  <advance width="673"/>
  <unicode hex="00DE"/>
  <outline>
    <contour>
      <point x="35" y="0" type="line"/>
      <point x="412" y="0" type="line"/>
      <point x="412" y="68" type="line"/>
      <point x="288" y="89" type="line"/>
      <point x="288" y="156" type="line"/>
      <point x="307" y="154"/>
      <point x="344" y="152"/>
      <point x="381" y="152" type="curve" smooth="yes"/>
      <point x="551" y="152"/>
      <point x="671" y="231"/>
      <point x="671" y="400" type="curve" smooth="yes"/>
      <point x="671" y="547"/>
      <point x="564" y="600"/>
      <point x="396" y="600" type="curve" smooth="yes"/>
      <point x="361" y="600"/>
      <point x="323" y="595"/>
      <point x="288" y="591" type="curve"/>
      <point x="288" y="666" type="line"/>
      <point x="385" y="678" type="line"/>
      <point x="385" y="758" type="line"/>
      <point x="11" y="758" type="line"/>
      <point x="11" y="678" type="line"/>
      <point x="115" y="666" type="line"/>
      <point x="115" y="89" type="line"/>
      <point x="35" y="68" type="line"/>
    </contour>
    <contour>
      <point x="288" y="513" type="line"/>
      <point x="292" y="514"/>
      <point x="327" y="516"/>
      <point x="342" y="516" type="curve" smooth="yes"/>
      <point x="433" y="516"/>
      <point x="491" y="476"/>
      <point x="491" y="389" type="curve" smooth="yes"/>
      <point x="491" y="299"/>
      <point x="443" y="232"/>
      <point x="359" y="232" type="curve" smooth="yes"/>
      <point x="339" y="232"/>
      <point x="298" y="233"/>
      <point x="288" y="236" type="curve"/>
    </contour>
  </outline>
</glyph>
<glyph name="germandbls" format="1">
  <advance width="722"/>
  <unicode hex="00DF"/>
  <outline>
	<contour>
	  <point x="22" y="0" type="line"/>
	  <point x="270" y="0" type="line"/>
	  <point x="270" y="478" type="line" smooth="yes"/>
	  <point x="270" y="591"/>
	  <point x="288" y="680"/>
	  <point x="378" y="680" type="curve" smooth="yes"/>
	  <point x="423" y="680"/>
	  <point x="448" y="650"/>
	  <point x="448" y="597" type="curve" smooth="yes"/>
	  <point x="448" y="483"/>
	  <point x="328" y="471"/>
	  <point x="328" y="365" type="curve" smooth="yes"/>
	  <point x="328" y="186"/>
	  <point x="542" y="257"/>
	  <point x="542" y="145" type="curve" smooth="yes"/>
	  <point x="542" y="95"/>
	  <point x="506" y="64"/>
	  <point x="456" y="64" type="curve" smooth="yes"/>
	  <point x="413" y="64"/>
	  <point x="364" y="80"/>
	  <point x="330" y="105" type="curve"/>
	  <point x="330" y="9" type="line"/>
	  <point x="343" y="-4"/>
	  <point x="430" y="-11"/>
	  <point x="480" y="-11" type="curve" smooth="yes"/>
	  <point x="619" y="-11"/>
	  <point x="707" y="54"/>
	  <point x="707" y="188" type="curve" smooth="yes"/>
	  <point x="707" y="356"/>
	  <point x="470" y="308"/>
	  <point x="470" y="423" type="curve" smooth="yes"/>
	  <point x="470" y="501"/>
	  <point x="605" y="509"/>
	  <point x="605" y="623" type="curve" smooth="yes"/>
	  <point x="605" y="713"/>
	  <point x="514" y="758"/>
	  <point x="416" y="758" type="curve" smooth="yes"/>
	  <point x="211" y="758"/>
	  <point x="97" y="636"/>
	  <point x="97" y="422" type="curve" smooth="yes"/>
	  <point x="97" y="95" type="line"/>
	  <point x="22" y="70" type="line" smooth="yes"/>
	</contour>
  </outline>
</glyph>
<glyph name="ae" format="1">
  <advance width="924"/>
  <unicode hex="00E6"/>
  <outline>
    <contour>
      <point x="589" y="562"/>
      <point x="529" y="543"/>
      <point x="482" y="510" type="curve"/>
      <point x="441" y="549"/>
      <point x="380" y="562"/>
      <point x="308" y="562" type="curve" smooth="yes"/>
      <point x="227" y="562"/>
      <point x="112" y="543"/>
      <point x="61" y="502" type="curve"/>
      <point x="94" y="424" type="line"/>
      <point x="121" y="447"/>
      <point x="203" y="466"/>
      <point x="255" y="466" type="curve" smooth="yes"/>
      <point x="334" y="466"/>
      <point x="358" y="434"/>
      <point x="359" y="349" type="curve"/>
      <point x="359" y="343" type="line"/>
      <point x="199" y="343"/>
      <point x="34" y="282"/>
      <point x="34" y="143" type="curve" smooth="yes"/>
      <point x="34" y="42"/>
      <point x="121" y="-14"/>
      <point x="240" y="-14" type="curve" smooth="yes"/>
      <point x="312" y="-14"/>
      <point x="384" y="4"/>
      <point x="437" y="54" type="curve"/>
      <point x="486" y="10"/>
      <point x="555" y="-14"/>
      <point x="646" y="-14" type="curve" smooth="yes"/>
      <point x="721" y="-14"/>
      <point x="827" y="9"/>
      <point x="882" y="56" type="curve"/>
      <point x="856" y="119" type="line"/>
      <point x="804" y="96"/>
      <point x="743" y="84"/>
      <point x="696" y="84" type="curve" smooth="yes"/>
      <point x="597" y="84"/>
      <point x="545" y="144"/>
      <point x="536" y="259" type="curve"/>
      <point x="881" y="259" type="line"/>
      <point x="884" y="282"/>
      <point x="888" y="307"/>
      <point x="888" y="339" type="curve" smooth="yes"/>
      <point x="888" y="489"/>
      <point x="810" y="562"/>
      <point x="661" y="562" type="curve" smooth="yes"/>
    </contour>
    <contour>
      <point x="359" y="96" type="line"/>
      <point x="343" y="86"/>
      <point x="311" y="80"/>
      <point x="290" y="80" type="curve" smooth="yes"/>
      <point x="237" y="80"/>
      <point x="209" y="109"/>
      <point x="209" y="164" type="curve" smooth="yes"/>
      <point x="209" y="238"/>
      <point x="279" y="268"/>
      <point x="359" y="268" type="curve"/>
    </contour>
    <contour>
      <point x="705" y="494"/>
      <point x="724" y="454"/>
      <point x="724" y="393" type="curve" smooth="yes"/>
      <point x="724" y="387"/>
      <point x="722" y="357"/>
      <point x="720" y="337" type="curve"/>
      <point x="536" y="337" type="line"/>
      <point x="541" y="418"/>
      <point x="576" y="494"/>
      <point x="645" y="494" type="curve" smooth="yes"/>
    </contour>
  </outline>
</glyph>
<glyph name="igrave" format="1">
  <advance width="365"/>
  <unicode hex="00EC"/>
  <outline>
	<contour>
	  <point x="292" y="696" type="line"/>
	  <point x="138" y="904" type="line"/>
	  <point x="14" y="809" type="line"/>
	  <point x="63" y="738"/>
	  <point x="174" y="649"/>
	  <point x="249" y="653" type="curve"/>
	</contour>
	<contour>
	  <point x="39" y="0" type="line"/>
	  <point x="346" y="0" type="line"/>
	  <point x="346" y="66" type="line"/>
	  <point x="277" y="79" type="line"/>
	  <point x="277" y="553" type="line"/>
	  <point x="235" y="565" type="line"/>
	  <point x="42" y="500" type="line"/>
	  <point x="42" y="454" type="line"/>
	  <point x="104" y="384" type="line"/>
	  <point x="104" y="80" type="line"/>
	  <point x="39" y="66" type="line"/>
	</contour>
  </outline>
</glyph>
<glyph name="icircumflex" format="1">
  <advance width="365"/>
  <unicode hex="00EE"/>
  <outline>
	<contour>
	  <point x="61" y="652" type="line"/>
	  <point x="190" y="753" type="line"/>
	  <point x="317" y="652" type="line"/>
	  <point x="388" y="688" type="line"/>
	  <point x="252" y="867" type="line"/>
	  <point x="129" y="867" type="line"/>
	  <point x="-3" y="688" type="line"/>
	</contour>
	<contour>
	  <point x="39" y="0" type="line"/>
	  <point x="346" y="0" type="line"/>
	  <point x="346" y="66" type="line"/>
	  <point x="277" y="79" type="line"/>
	  <point x="277" y="553" type="line"/>
	  <point x="235" y="565" type="line"/>
	  <point x="42" y="500" type="line"/>
	  <point x="42" y="454" type="line"/>
	  <point x="104" y="384" type="line"/>
	  <point x="104" y="80" type="line"/>
	  <point x="39" y="66" type="line"/>
	</contour>
  </outline>
</glyph>
<glyph name="eth" format="1">
  <advance width="646"/>
  <unicode hex="00F0"/>
  <outline>
	<contour>
	  <point x="404" y="815" type="line"/>
	  <point x="350" y="766" type="line"/>
	  <point x="287" y="801"/>
	  <point x="222" y="820"/>
	  <point x="162" y="826" type="curve"/>
	  <point x="149" y="753" type="line"/>
	  <point x="198" y="743"/>
	  <point x="243" y="726"/>
	  <point x="284" y="702" type="curve"/>
	  <point x="208" y="632" type="line"/>
	  <point x="259" y="590" type="line"/>
	  <point x="339" y="663" type="line"/>
	  <point x="400" y="612"/>
	  <point x="441" y="545"/>
	  <point x="455" y="470" type="curve"/>
	  <point x="425" y="499"/>
	  <point x="375" y="522"/>
	  <point x="310" y="522" type="curve" smooth="yes"/>
	  <point x="149" y="522"/>
	  <point x="31" y="414"/>
	  <point x="31" y="245" type="curve" smooth="yes"/>
	  <point x="31" y="95"/>
	  <point x="145" y="-13"/>
	  <point x="306" y="-13" type="curve" smooth="yes"/>
	  <point x="514" y="-13"/>
	  <point x="605" y="104"/>
	  <point x="605" y="318" type="curve" smooth="yes"/>
	  <point x="605" y="484"/>
	  <point x="539" y="631"/>
	  <point x="409" y="728" type="curve"/>
	  <point x="485" y="794" type="line"/>
	  <point x="431" y="841" type="line"/>
	</contour>
	<contour>
	  <point x="376" y="444"/>
	  <point x="424" y="386"/>
	  <point x="436" y="331" type="curve" smooth="yes"/>
	  <point x="440" y="313"/>
	  <point x="440" y="297"/>
	  <point x="440" y="279" type="curve" smooth="yes"/>
	  <point x="440" y="166"/>
	  <point x="413" y="63"/>
	  <point x="322" y="63" type="curve" smooth="yes"/>
	  <point x="255" y="63"/>
	  <point x="207" y="165"/>
	  <point x="207" y="253" type="curve" smooth="yes"/>
	  <point x="207" y="364"/>
	  <point x="226" y="444"/>
	  <point x="318" y="444" type="curve" smooth="yes"/>
	</contour>
  </outline>
</glyph>
<glyph name="divide" format="1">
  <advance width="684"/>
  <unicode hex="00F7"/>
  <outline>
	<contour>
	  <point x="89" y="468" type="line"/>
	  <point x="89" y="353" type="line"/>
	  <point x="594" y="353" type="line"/>
	  <point x="594" y="468" type="line"/>
	</contour>
	<contour>
	  <point x="309" y="261"/>
	  <point x="251" y="214"/>
	  <point x="251" y="153" type="curve" smooth="yes"/>
	  <point x="251" y="100"/>
	  <point x="294" y="62"/>
	  <point x="348" y="62" type="curve" smooth="yes"/>
	  <point x="407" y="62"/>
	  <point x="463" y="105"/>
	  <point x="463" y="169" type="curve" smooth="yes"/>
	  <point x="463" y="229"/>
	  <point x="426" y="261"/>
	  <point x="365" y="261" type="curve" smooth="yes"/>
	</contour>
	<contour>
	  <point x="307" y="758"/>
	  <point x="251" y="707"/>
	  <point x="251" y="650" type="curve" smooth="yes"/>
	  <point x="251" y="597"/>
	  <point x="294" y="559"/>
	  <point x="348" y="559" type="curve" smooth="yes"/>
	  <point x="408" y="559"/>
	  <point x="463" y="602"/>
	  <point x="463" y="666" type="curve" smooth="yes"/>
	  <point x="463" y="724"/>
	  <point x="430" y="758"/>
	  <point x="365" y="758" type="curve" smooth="yes"/>
	</contour>
  </outline>
</glyph>
<glyph name="oslash" format="1">
  <advance width="652"/>
  <unicode hex="00F8"/>
  <outline>
    <contour>
      <point x="182" y="-87" type="line"/>
      <point x="237" y="-100" type="line"/>
      <point x="265" y="-8" type="line"/>
      <point x="283" y="-10"/>
      <point x="302" y="-12"/>
      <point x="322" y="-12" type="curve" smooth="yes"/>
      <point x="497" y="-12"/>
      <point x="617" y="105"/>
      <point x="617" y="289" type="curve" smooth="yes"/>
      <point x="617" y="419"/>
      <point x="560" y="517"/>
      <point x="442" y="549" type="curve"/>
      <point x="466" y="627" type="line"/>
      <point x="412" y="640" type="line"/>
      <point x="388" y="560" type="line"/>
      <point x="371" y="562"/>
      <point x="354" y="563"/>
      <point x="335" y="563" type="curve" smooth="yes"/>
      <point x="157" y="558"/>
      <point x="39" y="455"/>
      <point x="37" y="274" type="curve" smooth="yes"/>
      <point x="35" y="145"/>
      <point x="87" y="42"/>
      <point x="210" y="3" type="curve"/>
    </contour>
    <contour>
      <point x="250" y="120" type="line"/>
      <point x="230" y="161"/>
      <point x="220" y="234"/>
      <point x="220" y="288" type="curve" smooth="yes"/>
      <point x="220" y="391"/>
      <point x="245" y="491"/>
      <point x="331" y="491" type="curve" smooth="yes"/>
      <point x="343" y="491"/>
      <point x="353" y="489"/>
      <point x="362" y="485" type="curve"/>
    </contour>
    <contour>
      <point x="406" y="440" type="line"/>
      <point x="428" y="399"/>
      <point x="433" y="338"/>
      <point x="433" y="280" type="curve" smooth="yes"/>
      <point x="433" y="165"/>
      <point x="414" y="60"/>
      <point x="327" y="60" type="curve" smooth="yes"/>
      <point x="315" y="60"/>
      <point x="303" y="63"/>
      <point x="293" y="68" type="curve"/>
    </contour>
  </outline>
</glyph>
<glyph name="uacute" format="1">
  <advance width="650"/>
  <unicode hex="00FA"/>
  <outline>
	<contour>
	  <point x="290" y="652" type="line"/>
	  <point x="376" y="681"/>
	  <point x="482" y="737"/>
	  <point x="525" y="809" type="curve"/>
	  <point x="401" y="904" type="line"/>
	  <point x="247" y="696" type="line"/>
	</contour>
	<contour>
	  <point x="72" y="191" type="line" smooth="yes"/>
	  <point x="72" y="53"/>
	  <point x="115" y="-14"/>
	  <point x="256" y="-14" type="curve" smooth="yes"/>
	  <point x="308" y="-14"/>
	  <point x="385" y="20"/>
	  <point x="417" y="59" type="curve"/>
	  <point x="417" y="40" type="line" smooth="yes"/>
	  <point x="417" y="3"/>
	  <point x="448" y="-14"/>
	  <point x="487" y="-14" type="curve" smooth="yes"/>
	  <point x="523" y="-14"/>
	  <point x="601" y="-3"/>
	  <point x="625" y="14" type="curve"/>
	  <point x="625" y="66" type="line"/>
	  <point x="569" y="66" type="line"/>
	  <point x="569" y="554" type="line"/>
	  <point x="542" y="562" type="line"/>
	  <point x="338" y="518" type="line"/>
	  <point x="338" y="450" type="line"/>
	  <point x="400" y="416" type="line"/>
	  <point x="400" y="107" type="line"/>
	  <point x="381" y="90"/>
	  <point x="342" y="82"/>
	  <point x="313" y="82" type="curve" smooth="yes"/>
	  <point x="251" y="82"/>
	  <point x="238" y="130"/>
	  <point x="238" y="214" type="curve" smooth="yes"/>
	  <point x="238" y="554" type="line"/>
	  <point x="212" y="562" type="line"/>
	  <point x="26" y="518" type="line"/>
	  <point x="26" y="458" type="line"/>
	  <point x="72" y="424" type="line"/>
	</contour>
  </outline>
</glyph>
<glyph name="ucircumflex" format="1">
  <advance width="650"/>
  <unicode hex="00FB"/>
  <outline>
	<contour>
	  <point x="184" y="652" type="line"/>
	  <point x="314" y="753" type="line"/>
	  <point x="440" y="652" type="line"/>
	  <point x="511" y="688" type="line"/>
	  <point x="376" y="867" type="line"/>
	  <point x="252" y="867" type="line"/>
	  <point x="120" y="688" type="line"/>
	</contour>
	<contour>
	  <point x="72" y="191" type="line" smooth="yes"/>
	  <point x="72" y="53"/>
	  <point x="115" y="-14"/>
	  <point x="256" y="-14" type="curve" smooth="yes"/>
	  <point x="308" y="-14"/>
	  <point x="385" y="20"/>
	  <point x="417" y="59" type="curve"/>
	  <point x="417" y="40" type="line" smooth="yes"/>
	  <point x="417" y="3"/>
	  <point x="448" y="-14"/>
	  <point x="487" y="-14" type="curve" smooth="yes"/>
	  <point x="523" y="-14"/>
	  <point x="601" y="-3"/>
	  <point x="625" y="14" type="curve"/>
	  <point x="625" y="66" type="line"/>
	  <point x="569" y="66" type="line"/>
	  <point x="569" y="554" type="line"/>
	  <point x="542" y="562" type="line"/>
	  <point x="338" y="518" type="line"/>
	  <point x="338" y="450" type="line"/>
	  <point x="400" y="416" type="line"/>
	  <point x="400" y="107" type="line"/>
	  <point x="381" y="90"/>
	  <point x="342" y="82"/>
	  <point x="313" y="82" type="curve" smooth="yes"/>
	  <point x="251" y="82"/>
	  <point x="238" y="130"/>
	  <point x="238" y="214" type="curve" smooth="yes"/>
	  <point x="238" y="554" type="line"/>
	  <point x="212" y="562" type="line"/>
	  <point x="26" y="518" type="line"/>
	  <point x="26" y="458" type="line"/>
	  <point x="72" y="424" type="line"/>
	</contour>
  </outline>
</glyph>
<glyph name="thorn" format="1">
  <advance width="658"/>
  <unicode hex="00FE"/>
  <outline>
	<contour>
	  <point x="22" y="772" type="line"/>
	  <point x="22" y="704" type="line"/>
	  <point x="83" y="676" type="line"/>
	  <point x="83" y="-167" type="line"/>
	  <point x="7" y="-181" type="line"/>
	  <point x="7" y="-250" type="line"/>
	  <point x="360" y="-250" type="line"/>
	  <point x="360" y="-181" type="line"/>
	  <point x="256" y="-167" type="line"/>
	  <point x="256" y="-50" type="line"/>
	  <point x="249" y="-10" type="line"/>
	  <point x="271" y="-12"/>
	  <point x="292" y="-14"/>
	  <point x="314" y="-14" type="curve" smooth="yes"/>
	  <point x="489" y="-14"/>
	  <point x="623" y="123"/>
	  <point x="623" y="295" type="curve" smooth="yes"/>
	  <point x="623" y="457"/>
	  <point x="537" y="562"/>
	  <point x="384" y="562" type="curve" smooth="yes"/>
	  <point x="331" y="562"/>
	  <point x="288" y="549"/>
	  <point x="256" y="531" type="curve"/>
	  <point x="256" y="787" type="line"/>
	  <point x="228" y="795" type="line"/>
	</contour>
	<contour>
	  <point x="403" y="477"/>
	  <point x="451" y="383"/>
	  <point x="448" y="277" type="curve" smooth="yes"/>
	  <point x="445" y="166"/>
	  <point x="419" y="57"/>
	  <point x="332" y="57" type="curve" smooth="yes"/>
	  <point x="299" y="57"/>
	  <point x="269" y="73"/>
	  <point x="256" y="98" type="curve"/>
	  <point x="256" y="467" type="line"/>
	  <point x="271" y="473"/>
	  <point x="291" y="477"/>
	  <point x="317" y="477" type="curve" smooth="yes"/>
	</contour>
  </outline>
</glyph>
<glyph name="Aogonek" format="1">
  <advance width="781"/>
  <unicode hex="0104"/>
  <outline>
	<contour>
	  <point x="2" y="0" type="line"/>
	  <point x="276" y="0" type="line"/>
	  <point x="276" y="68" type="line"/>
	  <point x="203" y="91" type="line"/>
	  <point x="225" y="164" type="line"/>
	  <point x="489" y="164" type="line"/>
	  <point x="510" y="89" type="line"/>
	  <point x="445" y="67" type="line"/>
	  <point x="445" y="0" type="line"/>
	  <point x="543" y="0" type="line"/>
	  <point x="462" y="-27"/>
	  <point x="362" y="-104"/>
	  <point x="362" y="-171" type="curve" smooth="yes"/>
	  <point x="362" y="-218"/>
	  <point x="405" y="-251"/>
	  <point x="466" y="-251" type="curve" smooth="yes"/>
	  <point x="551" y="-251"/>
	  <point x="623" y="-231"/>
	  <point x="688" y="-185" type="curve"/>
	  <point x="670" y="-119" type="line"/>
	  <point x="628" y="-134"/>
	  <point x="597" y="-146"/>
	  <point x="554" y="-146" type="curve" smooth="yes"/>
	  <point x="532" y="-146"/>
	  <point x="517" y="-138"/>
	  <point x="517" y="-118" type="curve" smooth="yes"/>
	  <point x="517" y="-68"/>
	  <point x="604" y="-20"/>
	  <point x="663" y="0" type="curve"/>
	  <point x="779" y="0" type="line"/>
	  <point x="779" y="67" type="line"/>
	  <point x="705" y="87" type="line"/>
	  <point x="471" y="758" type="line"/>
	  <point x="308" y="758" type="line"/>
	  <point x="67" y="88" type="line"/>
	  <point x="2" y="68" type="line"/>
	</contour>
	<contour>
	  <point x="253" y="254" type="line"/>
	  <point x="362" y="612" type="line"/>
	  <point x="398" y="478" type="line"/>
	  <point x="463" y="254" type="line"/>
	</contour>
  </outline>
</glyph>
<glyph name="aogonek" format="1">
  <advance width="599"/>
  <unicode hex="0105"/>
  <outline>
	<contour>
	  <point x="227" y="562"/>
	  <point x="112" y="543"/>
	  <point x="61" y="502" type="curve"/>
	  <point x="94" y="427" type="line"/>
	  <point x="129" y="452"/>
	  <point x="200" y="469"/>
	  <point x="255" y="469" type="curve" smooth="yes"/>
	  <point x="333" y="469"/>
	  <point x="359" y="435"/>
	  <point x="359" y="347" type="curve"/>
	  <point x="359" y="343" type="line"/>
	  <point x="204" y="343"/>
	  <point x="34" y="285"/>
	  <point x="34" y="143" type="curve" smooth="yes"/>
	  <point x="34" y="42"/>
	  <point x="121" y="-14"/>
	  <point x="240" y="-14" type="curve" smooth="yes"/>
	  <point x="303" y="-14"/>
	  <point x="348" y="10"/>
	  <point x="382" y="42" type="curve"/>
	  <point x="382" y="12"/>
	  <point x="412" y="-6"/>
	  <point x="445" y="-11" type="curve"/>
	  <point x="389" y="-47"/>
	  <point x="343" y="-94"/>
	  <point x="343" y="-158" type="curve" smooth="yes"/>
	  <point x="343" y="-224"/>
	  <point x="405" y="-253"/>
	  <point x="477" y="-253" type="curve" smooth="yes"/>
	  <point x="521" y="-253"/>
	  <point x="563" y="-241"/>
	  <point x="593" y="-220" type="curve"/>
	  <point x="593" y="-148" type="line"/>
	  <point x="573" y="-152"/>
	  <point x="554" y="-155"/>
	  <point x="537" y="-155" type="curve" smooth="yes"/>
	  <point x="507" y="-155"/>
	  <point x="479" y="-146"/>
	  <point x="479" y="-113" type="curve" smooth="yes"/>
	  <point x="479" y="-66"/>
	  <point x="530" y="-26"/>
	  <point x="596" y="14" type="curve"/>
	  <point x="596" y="66" type="line"/>
	  <point x="532" y="66" type="line"/>
	  <point x="532" y="361" type="line" smooth="yes"/>
	  <point x="532" y="506"/>
	  <point x="456" y="562"/>
	  <point x="308" y="562" type="curve" smooth="yes"/>
	</contour>
	<contour>
	  <point x="359" y="101" type="line"/>
	  <point x="340" y="85"/>
	  <point x="317" y="80"/>
	  <point x="290" y="80" type="curve" smooth="yes"/>
	  <point x="237" y="80"/>
	  <point x="209" y="109"/>
	  <point x="209" y="164" type="curve" smooth="yes"/>
	  <point x="209" y="234"/>
	  <point x="274" y="268"/>
	  <point x="359" y="268" type="curve"/>
	</contour>
  </outline>
</glyph>
<glyph name="eogonek" format="1">
  <advance width="605"/>
  <unicode hex="0119"/>
  <outline>
	<contour>
	  <point x="158" y="562"/>
	  <point x="36" y="437"/>
	  <point x="36" y="259" type="curve" smooth="yes"/>
	  <point x="36" y="89"/>
	  <point x="135" y="-10"/>
	  <point x="313" y="-14" type="curve" smooth="yes"/>
	  <point x="346" y="-14"/>
	  <point x="380" y="-11"/>
	  <point x="412" y="-4" type="curve"/>
	  <point x="349" y="-47"/>
	  <point x="305" y="-92"/>
	  <point x="305" y="-166" type="curve" smooth="yes"/>
	  <point x="305" y="-228"/>
	  <point x="363" y="-251"/>
	  <point x="433" y="-251" type="curve" smooth="yes"/>
	  <point x="473" y="-251"/>
	  <point x="542" y="-238"/>
	  <point x="573" y="-215" type="curve"/>
	  <point x="573" y="-148" type="line"/>
	  <point x="557" y="-152"/>
	  <point x="539" y="-154"/>
	  <point x="522" y="-154" type="curve" smooth="yes"/>
	  <point x="475" y="-154"/>
	  <point x="430" y="-141"/>
	  <point x="430" y="-106" type="curve" smooth="yes"/>
	  <point x="430" y="-68"/>
	  <point x="471" y="-14"/>
	  <point x="552" y="56" type="curve"/>
	  <point x="526" y="117" type="line"/>
	  <point x="474" y="94"/>
	  <point x="418" y="84"/>
	  <point x="371" y="84" type="curve" smooth="yes"/>
	  <point x="274" y="84"/>
	  <point x="225" y="144"/>
	  <point x="216" y="259" type="curve"/>
	  <point x="556" y="259" type="line"/>
	  <point x="560" y="283"/>
	  <point x="563" y="310"/>
	  <point x="563" y="345" type="curve" smooth="yes"/>
	  <point x="563" y="487"/>
	  <point x="483" y="562"/>
	  <point x="335" y="562" type="curve" smooth="yes"/>
	</contour>
	<contour>
	  <point x="375" y="494"/>
	  <point x="399" y="459"/>
	  <point x="399" y="398" type="curve" smooth="yes"/>
	  <point x="399" y="377"/>
	  <point x="397" y="355"/>
	  <point x="395" y="337" type="curve"/>
	  <point x="216" y="337" type="line"/>
	  <point x="223" y="422"/>
	  <point x="249" y="494"/>
	  <point x="320" y="494" type="curve" smooth="yes"/>
	</contour>
  </outline>
</glyph>
<glyph name="Itilde" format="1">
  <advance width="414"/>
  <unicode hex="0128"/>
  <outline>
    <contour>
      <point x="37" y="798" type="line"/>
      <point x="60" y="817"/>
      <point x="90" y="833"/>
      <point x="119" y="833" type="curve" smooth="yes"/>
      <point x="163" y="833"/>
      <point x="201" y="783"/>
      <point x="266" y="783" type="curve" smooth="yes"/>
      <point x="318" y="783"/>
      <point x="391" y="823"/>
      <point x="413" y="876" type="curve"/>
      <point x="369" y="923" type="line"/>
      <point x="348" y="904"/>
      <point x="323" y="889"/>
      <point x="288" y="889" type="curve" smooth="yes"/>
      <point x="248" y="889"/>
      <point x="207" y="938"/>
      <point x="145" y="938" type="curve" smooth="yes"/>
      <point x="96" y="938"/>
      <point x="13" y="888"/>
      <point x="-5" y="836" type="curve"/>
    </contour>
    <contour>
      <point x="27" y="0" type="line" smooth="yes"/>
      <point x="387" y="0" type="line" smooth="yes"/>
      <point x="387" y="68" type="line" smooth="yes"/>
      <point x="295" y="89" type="line" smooth="yes"/>
      <point x="295" y="666" type="line" smooth="yes"/>
      <point x="382" y="678" type="line" smooth="yes"/>
      <point x="382" y="758" type="line" smooth="yes"/>
      <point x="27" y="758" type="line" smooth="yes"/>
      <point x="27" y="678" type="line" smooth="yes"/>
      <point x="119" y="667" type="line" smooth="yes"/>
      <point x="119" y="88" type="line" smooth="yes"/>
      <point x="27" y="68" type="line" smooth="yes"/>
    </contour>
  </outline>
</glyph>
<glyph name="iogonek" format="1">
  <advance width="365"/>
  <unicode hex="012F"/>
  <outline>
    <contour>
      <point x="137" y="848"/>
      <point x="75" y="802"/>
      <point x="75" y="739" type="curve" smooth="yes"/>
      <point x="75" y="684"/>
      <point x="121" y="647"/>
      <point x="175" y="647" type="curve" smooth="yes"/>
      <point x="236" y="647"/>
      <point x="294" y="690"/>
      <point x="294" y="756" type="curve" smooth="yes"/>
      <point x="294" y="813"/>
      <point x="259" y="848"/>
      <point x="194" y="848" type="curve" smooth="yes"/>
    </contour>
    <component base="idotless"/>
    <component base="ogonek" xOffset="130"/>
  </outline>
</glyph>
<glyph name="idotless" format="1">
  <advance width="365"/>
  <unicode hex="0131"/>
  <outline>
    <contour>
      <point x="39" y="0" type="line"/>
      <point x="347" y="0" type="line"/>
      <point x="347" y="66" type="line"/>
      <point x="277" y="79" type="line"/>
      <point x="277" y="550" type="line"/>
      <point x="235" y="562" type="line"/>
      <point x="42" y="500" type="line"/>
      <point x="42" y="454" type="line"/>
      <point x="104" y="384" type="line"/>
      <point x="104" y="80" type="line"/>
      <point x="39" y="66" type="line"/>
    </contour>
  </outline>
</glyph>
<glyph name="IJ" format="1">
  <advance width="798"/>
  <unicode hex="0132"/>
  <outline>
	<contour>
	  <point x="393" y="-193" type="line"/>
	  <point x="488" y="-193"/>
	  <point x="630" y="-128"/>
	  <point x="674" y="-20" type="curve" smooth="yes"/>
	  <point x="696" y="35"/>
	  <point x="704" y="150"/>
	  <point x="704" y="261" type="curve" smooth="yes"/>
	  <point x="704" y="667" type="line"/>
	  <point x="773" y="678" type="line"/>
	  <point x="773" y="758" type="line"/>
	  <point x="455" y="758" type="line"/>
	  <point x="455" y="678" type="line"/>
	  <point x="527" y="667" type="line"/>
	  <point x="527" y="198" type="line" smooth="yes"/>
	  <point x="527" y="114"/>
	  <point x="526" y="43"/>
	  <point x="503" y="-23" type="curve"/>
	  <point x="476" y="-84"/>
	  <point x="427" y="-119"/>
	  <point x="359" y="-144" type="curve"/>
	</contour>
	<contour>
	  <point x="27" y="0" type="line"/>
	  <point x="387" y="0" type="line"/>
	  <point x="387" y="68" type="line"/>
	  <point x="295" y="89" type="line"/>
	  <point x="295" y="666" type="line"/>
	  <point x="382" y="678" type="line"/>
	  <point x="382" y="758" type="line"/>
	  <point x="27" y="758" type="line"/>
	  <point x="27" y="678" type="line"/>
	  <point x="119" y="667" type="line"/>
	  <point x="119" y="88" type="line"/>
	  <point x="27" y="68" type="line"/>
	</contour>
  </outline>
</glyph>
<glyph name="Jcircumflex" format="1">
  <advance width="383"/>
  <unicode hex="0134"/>
  <outline>
    <contour>
      <point x="41" y="758" type="line"/>
      <point x="41" y="678" type="line"/>
      <point x="113" y="667" type="line"/>
      <point x="113" y="198" type="line" smooth="yes"/>
      <point x="113" y="114"/>
      <point x="112" y="43"/>
      <point x="89" y="-23" type="curve"/>
      <point x="62" y="-84"/>
      <point x="13" y="-119"/>
      <point x="-55" y="-144" type="curve"/>
      <point x="-21" y="-193" type="line"/>
      <point x="74" y="-193"/>
      <point x="216" y="-128"/>
      <point x="260" y="-20" type="curve" smooth="yes"/>
      <point x="282" y="35"/>
      <point x="290" y="150"/>
      <point x="290" y="261" type="curve" smooth="yes"/>
      <point x="290" y="667" type="line"/>
      <point x="359" y="678" type="line"/>
      <point x="359" y="758" type="line"/>
    </contour>
    <contour>
      <point x="143" y="938" type="line"/>
      <point x="8" y="815" type="line"/>
      <point x="63" y="780" type="line"/>
      <point x="200" y="843" type="line"/>
      <point x="333" y="780" type="line"/>
      <point x="388" y="815" type="line"/>
      <point x="256" y="938" type="line"/>
    </contour>
  </outline>
</glyph>
